InterThaiLoopless-Italic.glyphspackage
{
glyphname = "koKai-thai";
layers = (
{
anchors = (
{
name = bottom;
pos = (922,0);
},
{
name = top;
pos = (1106,1202);
}
);
layerId = "200BE2C5-40F6-4CF4-AF4F-A33C0CC0964F";
shapes = (
{
closed = 1;
nodes = (
(180,0,l),
(266,518,ls),
(294,686,o),
(382,762,o),
(528,746,cs),
(566,742,l),
(572,784,l),
(242,820,l),
(258,786,l),
(264,814,ls),
(298,1034,o),
(466,1174,o),
(692,1174,cs),
(922,1174,o),
(1046,1030,o),
(1010,812,cs),
(876,0,l),
(922,0,l),
(1054,798,ls),
(1096,1048,o),
(954,1218,o),
(696,1218,cs),
(444,1218,o),
(258,1062,o),
(218,820,cs),
(212,780,l),
(382,762,l),
(382,756,l),
(294,728,o),
(242,652,o),
(220,520,cs),
(134,0,l)
);
}
);
width = 1226;
},
{
anchors = (
{
name = bottom;
pos = (1036,0);
},
{
name = top;
pos = (1220,1202);
}
);
layerId = "11F4534A-B963-4AB5-820F-DAF9A20CD933";
shapes = (
{
closed = 1;
nodes = (
(260,0,l),
(334,440,ls),
(358,586,o),
(430,672,o),
(520,658,cs),
(584,648,l),
(606,786,l),
(306,832,l),
(334,718,l),
(338,760,ls),
(366,952,o),
(516,1072,o),
(712,1072,cs),
(906,1072,o),
(1014,944,o),
(984,766,cs),
(858,0,l),
(1034,0,l),
(1160,754,ls),
(1208,1040,o),
(1032,1226,o),
(726,1226,cs),
(428,1226,o),
(224,1054,o),
(174,786,cs),
(160,718,l),
(358,688,l),
(356,676,l),
(248,646,o),
(176,556,o),
(154,420,cs),
(84,0,l)
);
}
);
width = 1292;
},
{
anchors = (
{
name = bottom;
pos = (1152,0);
},
{
name = top;
pos = (1336,1202);
}
);
layerId = "D0EC06BF-13F9-4C88-A6F5-B8203AF6C77E";
shapes = (
{
closed = 1;
nodes = (
(412,0,l),
(482,434,ls),
(492,496,o),
(530,528,o),
(592,528,cs),
(634,528,l),
(670,746,l),
(408,746,l),
(488,676,l),
(496,734,ls),
(514,862,o),
(592,928,o),
(718,928,cs),
(836,928,o),
(892,870,o),
(874,764,cs),
(750,0,l),
(1152,0,l),
(1274,744,ls),
(1324,1048,o),
(1126,1226,o),
(744,1226,cs),
(376,1226,o),
(158,1058,o),
(104,734,cs),
(92,654,l),
(298,654,l),
(296,642,l),
(170,600,o),
(96,514,o),
(74,374,cs),
(14,0,l)
);
}
);
width = 1348;
}
);
unicode = 3585;
}
{
glyphname = "khoKhai-thai";
layers = (
{
anchors = (
{
name = bottom;
pos = (838,0);
},
{
name = top;
pos = (1050,1202);
}
);
layerId = "200BE2C5-40F6-4CF4-AF4F-A33C0CC0964F";
shapes = (
{
closed = 1;
nodes = (
(702,-14,o),
(872,134,o),
(910,356,cs),
(1050,1202,l),
(1004,1202,l),
(866,370,ls),
(832,164,o),
(680,30,o),
(482,30,cs),
(286,30,o),
(178,164,o),
(212,370,cs),
(256,634,ls),
(274,746,o),
(350,800,o),
(424,854,cs),
(512,918,o),
(586,968,o),
(586,1080,cs),
(586,1166,o),
(522,1218,o),
(418,1218,cs),
(366,1218,o),
(316,1206,o),
(270,1180,c),
(274,1138,l),
(324,1162,o),
(372,1174,o),
(418,1174,cs),
(496,1174,o),
(538,1140,o),
(538,1078,cs),
(538,988,o),
(470,936,o),
(394,880,cs),
(316,822,o),
(232,760,o),
(210,634,cs),
(168,382,ls),
(128,146,o),
(256,-14,o),
(484,-14,cs)
);
}
);
width = 1156;
},
{
anchors = (
{
name = bottom;
pos = (878,0);
},
{
name = top;
pos = (1090,1202);
}
);
layerId = "11F4534A-B963-4AB5-820F-DAF9A20CD933";
shapes = (
{
closed = 1;
nodes = (
(740,-24,o),
(910,116,o),
(948,344,cs),
(1090,1202,l),
(914,1202,l),
(778,378,ls),
(754,226,o),
(650,130,o),
(506,130,cs),
(360,130,o),
(278,230,o),
(302,378,cs),
(322,504,ls),
(336,588,o),
(380,660,o),
(454,722,cs),
(564,812,o),
(620,910,o),
(622,1016,cs),
(622,1144,o),
(536,1218,o),
(386,1218,cs),
(340,1218,o),
(294,1212,o),
(248,1198,c),
(254,1048,l),
(284,1058,o),
(318,1064,o),
(350,1064,cs),
(414,1064,o),
(446,1038,o),
(446,984,cs),
(446,926,o),
(408,874,o),
(330,814,cs),
(216,728,o),
(170,650,o),
(148,512,cs),
(126,372,ls),
(88,134,o),
(238,-24,o),
(498,-24,cs)
);
}
);
width = 1147;
},
{
anchors = (
{
name = bottom;
pos = (1106,0);
},
{
name = top;
pos = (1320,1202);
}
);
layerId = "D0EC06BF-13F9-4C88-A6F5-B8203AF6C77E";
shapes = (
{
closed = 1;
nodes = (
(930,-22,o),
(1146,156,o),
(1194,446,cs),
(1320,1202,l),
(916,1202,l),
(794,456,ls),
(776,342,o),
(708,280,o),
(610,280,cs),
(512,280,o),
(468,342,o),
(486,456,cs),
(502,552,ls),
(514,624,o),
(544,676,o),
(622,754,cs),
(716,852,o),
(750,918,o),
(750,1004,cs),
(752,1146,o),
(648,1218,o),
(446,1218,cs),
(358,1218,o),
(264,1202,o),
(194,1178,c),
(204,962,l),
(228,972,o),
(262,978,o),
(290,978,cs),
(336,978,o),
(360,960,o),
(360,926,cs),
(360,892,o),
(342,868,o),
(276,818,cs),
(172,736,o),
(122,662,o),
(104,560,cs),
(88,468,ls),
(38,182,o),
(254,-22,o),
(608,-22,cs)
);
}
);
width = 1319;
}
);
metricRight = "boBaimai-thai";
unicode = 3586;
}
{
glyphname = "khoKhuat-thai";
layers = (
{
anchors = (
{
name = bottom;
pos = (838,0);
},
{
name = top;
pos = (1050,1202);
}
);
layerId = "200BE2C5-40F6-4CF4-AF4F-A33C0CC0964F";
shapes = (
{
closed = 1;
nodes = (
(702,-14,o),
(872,134,o),
(910,356,cs),
(1050,1202,l),
(1004,1202,l),
(866,370,ls),
(832,164,o),
(680,30,o),
(482,30,cs),
(286,30,o),
(178,164,o),
(212,368,cs),
(256,634,ls),
(274,746,o),
(350,800,o),
(424,854,cs),
(496,906,o),
(568,954,o),
(586,1070,cs),
(608,1202,l),
(562,1202,l),
(556,1174,ls),
(542,1094,o),
(470,1030,o),
(388,1030,cs),
(314,1030,o),
(274,1082,o),
(288,1160,cs),
(294,1202,l),
(248,1202,l),
(242,1168,ls),
(224,1064,o),
(286,986,o),
(384,986,cs),
(442,986,o),
(494,1016,o),
(534,1070,c),
(540,1070,l),
(524,968,o),
(464,932,o),
(394,880,cs),
(316,822,o),
(232,760,o),
(210,634,cs),
(168,382,ls),
(128,146,o),
(256,-14,o),
(484,-14,cs)
);
}
);
width = 1156;
},
{
anchors = (
{
name = bottom;
pos = (898,0);
},
{
name = top;
pos = (1112,1202);
}
);
layerId = "11F4534A-B963-4AB5-820F-DAF9A20CD933";
shapes = (
{
closed = 1;
nodes = (
(760,-24,o),
(932,114,o),
(970,344,cs),
(1112,1202,l),
(936,1202,l),
(800,378,ls),
(776,224,o),
(670,130,o),
(520,130,cs),
(368,130,o),
(286,228,o),
(310,378,cs),
(330,504,ls),
(344,590,o),
(388,660,o),
(468,724,cs),
(572,802,o),
(622,880,o),
(642,1000,cs),
(676,1202,l),
(518,1202,l),
(514,1182,ls),
(502,1116,o),
(452,1066,o),
(394,1066,cs),
(340,1066,o),
(308,1110,o),
(318,1172,cs),
(322,1202,l),
(162,1202,l),
(156,1170,ls),
(132,1028,o),
(198,926,o),
(318,926,cs),
(376,926,o),
(424,950,o),
(456,992,c),
(468,992,l),
(454,914,o),
(420,864,o),
(344,814,cs),
(226,728,o),
(178,652,o),
(156,512,cs),
(134,372,ls),
(94,134,o),
(246,-24,o),
(512,-24,cs)
);
}
);
width = 1169;
},
{
anchors = (
{
name = bottom;
pos = (1154,0);
},
{
name = top;
pos = (1368,1202);
}
);
layerId = "D0EC06BF-13F9-4C88-A6F5-B8203AF6C77E";
shapes = (
{
closed = 1;
nodes = (
(982,-22,o),
(1196,156,o),
(1244,446,cs),
(1368,1202,l),
(966,1202,l),
(844,456,ls),
(825,342,o),
(756,280,o),
(658,280,cs),
(560,280,o),
(518,342,o),
(536,456,cs),
(550,544,ls),
(564,626,o),
(592,678,o),
(674,754,cs),
(766,838,o),
(805,902,o),
(822,1006,cs),
(854,1202,l),
(556,1202,l),
(552,1186,ls),
(544,1140,o),
(512,1110,o),
(470,1110,cs),
(430,1110,o),
(412,1138,o),
(418,1182,cs),
(420,1202,l),
(166,1202,l),
(146,1094,ls),
(124,968,o),
(178,894,o),
(290,894,cs),
(346,894,o),
(408,916,o),
(446,950,c),
(456,950,l),
(448,906,o),
(424,874,o),
(344,818,cs),
(222,730,o),
(168,658,o),
(152,552,cs),
(140,468,ls),
(99,179,o),
(306,-22,o),
(658,-22,cs)
);
}
);
width = 1368;
}
);
metricRight = "boBaimai-thai";
unicode = 3587;
}
{
glyphname = "khoKhwai-thai";
layers = (
{
anchors = (
{
name = bottom;
pos = (936,0);
},
{
name = top;
pos = (1122,1202);
}
);
layerId = "200BE2C5-40F6-4CF4-AF4F-A33C0CC0964F";
shapes = (
{
closed = 1;
nodes = (
(166,0,l),
(206,242,ls),
(240,458,o),
(416,620,o),
(614,620,cs),
(646,620,o),
(674,616,o),
(702,608,c),
(710,654,l),
(682,662,o),
(652,666,o),
(618,666,cs),
(464,666,o),
(320,576,o),
(242,430,c),
(238,430,l),
(302,824,ls),
(336,1036,o),
(500,1174,o),
(718,1174,cs),
(940,1174,o),
(1060,1036,o),
(1026,824,cs),
(890,0,l),
(936,0,l),
(1072,816,ls),
(1112,1056,o),
(968,1218,o),
(720,1218,cs),
(480,1218,o),
(296,1064,o),
(258,836,cs),
(120,0,l)
);
}
);
width = 1241;
},
{
anchors = (
{
name = bottom;
pos = (1040,0);
},
{
name = top;
pos = (1224,1202);
}
);
layerId = "11F4534A-B963-4AB5-820F-DAF9A20CD933";
shapes = (
{
closed = 1;
nodes = (
(248,0,l),
(280,210,ls),
(306,372,o),
(452,486,o),
(620,486,cs),
(654,486,o),
(688,482,o),
(712,474,c),
(740,644,l),
(724,652,o),
(696,654,o),
(662,654,cs),
(522,654,o),
(394,582,o),
(328,462,c),
(318,462,l),
(368,770,ls),
(398,956,o),
(534,1072,o),
(722,1072,cs),
(914,1072,o),
(1020,954,o),
(990,772,cs),
(864,0,l),
(1040,0,l),
(1166,754,ls),
(1214,1042,o),
(1046,1226,o),
(740,1226,cs),
(454,1226,o),
(248,1064,o),
(206,808,cs),
(72,0,l)
);
}
);
width = 1299;
},
{
anchors = (
{
name = bottom;
pos = (1214,0);
},
{
name = top;
pos = (1398,1202);
}
);
layerId = "D0EC06BF-13F9-4C88-A6F5-B8203AF6C77E";
shapes = (
{
closed = 1;
nodes = (
(404,0,l),
(428,146,ls),
(450,276,o),
(544,358,o),
(674,358,cs),
(712,358,o),
(754,352,o),
(786,338,c),
(844,680,l),
(812,690,o),
(782,696,o),
(752,696,cs),
(634,696,o),
(538,616,o),
(478,468,c),
(466,468,l),
(508,712,ls),
(532,858,o),
(612,928,o),
(756,928,cs),
(900,928,o),
(958,856,o),
(934,712,cs),
(814,0,l),
(1214,0,l),
(1330,702,ls),
(1386,1036,o),
(1178,1226,o),
(786,1226,cs),
(404,1226,o),
(184,1046,o),
(128,702,cs),
(14,0,l)
);
}
);
width = 1411;
}
);
metricRight = "=|";
unicode = 3588;
}
{
glyphname = "khoKhon-thai";
layers = (
{
anchors = (
{
name = bottom;
pos = (954,0);
},
{
name = top;
pos = (1146,1202);
}
);
layerId = "200BE2C5-40F6-4CF4-AF4F-A33C0CC0964F";
shapes = (
{
closed = 1;
nodes = (
(168,0,l),
(208,242,ls),
(242,458,o),
(418,620,o),
(616,620,cs),
(648,620,o),
(678,616,o),
(706,608,c),
(712,654,l),
(684,662,o),
(656,666,o),
(622,666,cs),
(468,666,o),
(324,576,o),
(246,430,c),
(240,430,l),
(318,900,ls),
(342,1048,o),
(420,1142,o),
(544,1170,c),
(702,1022,l),
(714,1022,l),
(922,1170,l),
(1032,1140,o),
(1080,1044,o),
(1056,900,cs),
(908,0,l),
(954,0,l),
(1102,894,ls),
(1132,1070,o),
(1064,1188,o),
(914,1218,c),
(714,1076,l),
(706,1076,l),
(556,1218,l),
(402,1190,o),
(302,1080,o),
(274,914,cs),
(122,0,l)
);
}
);
width = 1262;
},
{
anchors = (
{
name = bottom;
pos = (1056,0);
},
{
name = top;
pos = (1240,1202);
}
);
layerId = "11F4534A-B963-4AB5-820F-DAF9A20CD933";
shapes = (
{
closed = 1;
nodes = (
(250,0,l),
(284,202,ls),
(310,362,o),
(454,478,o),
(622,478,cs),
(656,478,o),
(690,474,o),
(714,466,c),
(744,638,l),
(726,646,o),
(694,648,o),
(664,648,cs),
(522,648,o),
(394,572,o),
(330,454,c),
(318,454,l),
(386,856,ls),
(404,964,o),
(454,1026,o),
(542,1048,c),
(694,926,l),
(740,926,l),
(934,1048,l),
(1012,1028,o),
(1038,964,o),
(1020,856,cs),
(878,0,l),
(1054,0,l),
(1192,828,ls),
(1228,1044,o),
(1144,1184,o),
(958,1218,c),
(734,1072,l),
(722,1072,l),
(542,1218,l),
(358,1184,o),
(248,1062,o),
(214,850,cs),
(74,0,l)
);
}
);
width = 1313;
},
{
anchors = (
{
name = bottom;
pos = (1214,0);
},
{
name = top;
pos = (1400,1202);
}
);
layerId = "D0EC06BF-13F9-4C88-A6F5-B8203AF6C77E";
shapes = (
{
closed = 1;
nodes = (
(404,0,l),
(424,124,ls),
(446,254,o),
(540,336,o),
(670,336,cs),
(710,336,o),
(748,330,o),
(782,316,c),
(840,658,l),
(810,668,o),
(780,674,o),
(750,674,cs),
(630,674,o),
(536,594,o),
(476,446,c),
(464,446,l),
(520,784,ls),
(530,844,o),
(556,878,o),
(600,894,c),
(728,800,l),
(744,800,l),
(904,894,l),
(942,878,o),
(956,840,o),
(946,782,cs),
(816,0,l),
(1214,0,l),
(1346,800,ls),
(1388,1052,o),
(1284,1190,o),
(1016,1226,c),
(786,1080,l),
(770,1080,l),
(588,1226,l),
(334,1188,o),
(186,1048,o),
(146,802,cs),
(14,0,l)
);
}
);
width = 1413;
}
);
metricRight = "=|";
unicode = 3589;
}
{
glyphname = "khoRakhang-thai";
layers = (
{
anchors = (
{
name = bottom;
pos = (902,0);
},
{
name = top;
pos = (1114,1202);
}
);
layerId = "200BE2C5-40F6-4CF4-AF4F-A33C0CC0964F";
shapes = (
{
closed = 1;
nodes = (
(762,-14,o),
(936,140,o),
(976,376,cs),
(1114,1202,l),
(1068,1202,l),
(930,380,ls),
(896,170,o),
(736,30,o),
(530,30,cs),
(322,30,o),
(198,174,o),
(232,376,cs),
(276,636,ls),
(294,748,o),
(372,800,o),
(446,854,cs),
(518,906,o),
(588,954,o),
(606,1070,cs),
(628,1202,l),
(582,1202,l),
(578,1174,ls),
(566,1092,o),
(490,1032,o),
(408,1032,cs),
(334,1032,o),
(294,1080,o),
(308,1160,cs),
(316,1202,l),
(270,1202,l),
(264,1168,ls),
(246,1064,o),
(306,988,o),
(404,988,cs),
(462,988,o),
(514,1014,o),
(554,1070,c),
(560,1070,l),
(544,968,o),
(484,932,o),
(414,882,cs),
(334,824,o),
(250,762,o),
(230,636,cs),
(126,0,l),
(172,0,l),
(202,190,l),
(208,190,l),
(254,62,o),
(376,-14,o),
(534,-14,cs)
);
}
);
width = 1220;
},
{
anchors = (
{
name = bottom;
pos = (1030,0);
},
{
name = top;
pos = (1244,1202);
}
);
layerId = "11F4534A-B963-4AB5-820F-DAF9A20CD933";
shapes = (
{
closed = 1;
nodes = (
(904,-14,o),
(1068,150,o),
(1118,444,cs),
(1244,1202,l),
(1068,1202,l),
(946,472,ls),
(912,272,o),
(786,146,o),
(616,146,cs),
(426,146,o),
(308,302,o),
(344,500,cs),
(348,524,ls),
(362,598,o),
(408,668,o),
(484,728,cs),
(590,808,o),
(640,884,o),
(658,1000,cs),
(690,1202,l),
(532,1202,l),
(528,1182,ls),
(518,1116,o),
(466,1066,o),
(408,1066,cs),
(354,1066,o),
(324,1110,o),
(334,1172,cs),
(338,1202,l),
(176,1202,l),
(170,1170,ls),
(146,1028,o),
(212,926,o),
(332,926,cs),
(390,926,o),
(440,950,o),
(472,992,c),
(482,992,l),
(468,916,o),
(436,868,o),
(360,818,cs),
(246,736,o),
(196,660,o),
(174,530,cs),
(86,0,l),
(262,0,l),
(296,208,l),
(306,208,l),
(364,66,o),
(488,-14,o),
(656,-14,cs)
);
}
);
width = 1301;
},
{
anchors = (
{
name = bottom;
pos = (1198,0);
},
{
name = top;
pos = (1412,1202);
}
);
layerId = "D0EC06BF-13F9-4C88-A6F5-B8203AF6C77E";
shapes = (
{
closed = 1;
nodes = (
(1056,-14,o),
(1240,162,o),
(1284,432,cs),
(1412,1202,l),
(1010,1202,l),
(896,516,ls),
(876,390,o),
(796,312,o),
(688,312,cs),
(578,312,o),
(520,386,o),
(542,504,cs),
(550,544,ls),
(566,628,o),
(594,680,o),
(674,754,cs),
(766,838,o),
(806,902,o),
(822,1006,cs),
(854,1202,l),
(556,1202,l),
(552,1186,ls),
(544,1140,o),
(512,1110,o),
(470,1110,cs),
(430,1110,o),
(412,1138,o),
(418,1182,cs),
(420,1202,l),
(166,1202,l),
(146,1094,ls),
(124,968,o),
(178,894,o),
(290,894,cs),
(346,894,o),
(408,916,o),
(446,950,c),
(456,950,l),
(448,906,o),
(422,874,o),
(342,818,cs),
(216,728,o),
(164,658,o),
(146,552,cs),
(56,0,l),
(436,0,l),
(472,220,l),
(486,220,l),
(528,74,o),
(650,-14,o),
(818,-14,cs)
);
}
);
width = 1411;
}
);
metricRight = "=|noNu-thai";
unicode = 3590;
}
{
glyphname = "ngoNgu-thai";
layers = (
{
anchors = (
{
name = bottom;
pos = (766,0);
},
{
name = top;
pos = (1008,1202);
}
);
layerId = "200BE2C5-40F6-4CF4-AF4F-A33C0CC0964F";
shapes = (
{
closed = 1;
nodes = (
(418,0,ls),
(708,0,o),
(958,390,o),
(958,846,cs),
(958,1088,o),
(852,1218,o),
(658,1218,cs),
(600,1218,o),
(542,1206,o),
(488,1180,c),
(492,1138,l),
(546,1162,o),
(602,1174,o),
(656,1174,cs),
(824,1174,o),
(910,1060,o),
(910,842,cs),
(910,418,o),
(680,44,o),
(418,44,cs),
(294,44,l),
(326,32,l),
(210,1202,l),
(166,1202,l),
(286,0,l)
);
}
);
width = 1054;
},
{
anchors = (
{
name = bottom;
pos = (920,0);
},
{
name = top;
pos = (1120,1202);
}
);
layerId = "11F4534A-B963-4AB5-820F-DAF9A20CD933";
shapes = (
{
closed = 1;
nodes = (
(488,0,ls),
(844,0,o),
(1104,338,o),
(1102,806,cs),
(1104,1068,o),
(972,1218,o),
(750,1218,cs),
(688,1218,o),
(630,1206,o),
(570,1186,c),
(580,1042,l),
(622,1056,o),
(666,1064,o),
(706,1064,cs),
(844,1064,o),
(920,966,o),
(920,790,cs),
(922,426,o),
(728,152,o),
(474,152,cs),
(384,152,l),
(462,66,l),
(350,1202,l),
(174,1202,l),
(294,0,l)
);
}
);
width = 1186;
},
{
anchors = (
{
name = bottom;
pos = (1074,0);
},
{
name = top;
pos = (1304,1202);
}
);
layerId = "D0EC06BF-13F9-4C88-A6F5-B8203AF6C77E";
shapes = (
{
closed = 1;
nodes = (
(590,0,ls),
(978,0,o),
(1256,320,o),
(1256,766,cs),
(1258,1068,o),
(1120,1218,o),
(856,1218,cs),
(782,1218,o),
(698,1206,o),
(638,1186,c),
(648,898,l),
(674,908,o),
(700,912,o),
(722,912,cs),
(806,912,o),
(852,848,o),
(852,728,cs),
(852,512,o),
(738,314,o),
(616,314,cs),
(510,314,l),
(588,126,l),
(532,1202,l),
(126,1202,l),
(226,0,l)
);
}
);
width = 1290;
}
);
unicode = 3591;
}
{
glyphname = "choChan-thai";
layers = (
{
anchors = (
{
name = bottom;
pos = (800,0);
},
{
name = top;
pos = (1042,1202);
}
);
layerId = "200BE2C5-40F6-4CF4-AF4F-A33C0CC0964F";
shapes = (
{
closed = 1;
nodes = (
(410,0,ls),
(728,0,o),
(984,356,o),
(984,796,cs),
(984,1062,o),
(844,1218,o),
(606,1218,cs),
(374,1218,o),
(174,1066,o),
(112,844,c),
(160,844,l),
(230,1046,o),
(404,1174,o),
(606,1174,cs),
(820,1174,o),
(936,1038,o),
(936,792,cs),
(936,382,o),
(700,42,o),
(410,42,cs),
(330,42,l),
(356,12,l),
(456,624,l),
(200,624,l),
(192,580,l),
(432,580,l),
(408,612,l),
(308,0,l)
);
}
);
width = 1088;
},
{
anchors = (
{
name = bottom;
pos = (906,0);
},
{
name = top;
pos = (1102,1202);
}
);
layerId = "11F4534A-B963-4AB5-820F-DAF9A20CD933";
shapes = (
{
closed = 1;
nodes = (
(510,0,ls),
(838,0,o),
(1084,318,o),
(1084,742,cs),
(1084,1058,o),
(930,1226,o),
(642,1226,cs),
(374,1226,o),
(176,1078,o),
(102,822,c),
(276,822,l),
(332,980,o),
(460,1072,o),
(624,1072,cs),
(808,1072,o),
(904,958,o),
(904,742,cs),
(904,420,o),
(722,152,o),
(506,152,cs),
(370,152,l),
(426,50,l),
(524,646,l),
(194,646,l),
(170,498,l),
(386,498,l),
(338,546,l),
(248,0,l)
);
}
);
width = 1170;
},
{
anchors = (
{
name = bottom;
pos = (1064,0);
},
{
name = top;
pos = (1262,1202);
}
);
layerId = "D0EC06BF-13F9-4C88-A6F5-B8203AF6C77E";
shapes = (
{
closed = 1;
nodes = (
(516,0,ls),
(924,0,o),
(1206,286,o),
(1204,702,cs),
(1206,1028,o),
(1000,1226,o),
(664,1226,cs),
(350,1226,o),
(116,1048,o),
(74,778,c),
(472,778,l),
(500,862,o),
(568,914,o),
(652,914,cs),
(746,914,o),
(794,852,o),
(794,726,cs),
(794,492,o),
(682,290,o),
(552,290,cs),
(420,290,l),
(498,118,l),
(590,668,l),
(120,668,l),
(78,414,l),
(254,414,l),
(194,484,l),
(116,0,l)
);
}
);
width = 1246;
}
);
unicode = 3592;
}
{
glyphname = "choChing-thai";
layers = (
{
anchors = (
{
name = bottom;
pos = (910,0);
},
{
name = top;
pos = (1094,1202);
}
);
layerId = "200BE2C5-40F6-4CF4-AF4F-A33C0CC0964F";
shapes = (
{
closed = 1;
nodes = (
(676,-14,o),
(818,66,o),
(890,194,c),
(896,194,l),
(864,0,l),
(910,0,l),
(1044,816,ls),
(1084,1056,o),
(938,1218,o),
(680,1218,cs),
(466,1218,o),
(292,1110,o),
(216,932,c),
(258,918,l),
(330,1078,o),
(488,1174,o),
(680,1174,cs),
(910,1174,o),
(1034,1038,o),
(1000,828,cs),
(926,382,ls),
(892,178,o),
(722,30,o),
(522,30,cs),
(354,30,o),
(276,128,o),
(306,306,cs),
(360,632,l),
(166,632,l),
(158,588,l),
(342,588,l),
(310,612,l),
(260,314,ls),
(226,108,o),
(324,-14,o),
(522,-14,cs)
);
}
);
width = 1218;
},
{
anchors = (
{
name = bottom;
pos = (992,0);
},
{
name = top;
pos = (1176,1202);
}
);
layerId = "11F4534A-B963-4AB5-820F-DAF9A20CD933";
shapes = (
{
closed = 1;
nodes = (
(638,-14,o),
(772,64,o),
(834,190,c),
(846,190,l),
(816,0,l),
(992,0,l),
(1120,770,ls),
(1168,1054,o),
(1000,1226,o),
(700,1226,cs),
(458,1226,o),
(260,1112,o),
(162,920,c),
(312,862,l),
(404,1004,o),
(524,1072,o),
(686,1072,cs),
(880,1072,o),
(978,974,o),
(950,806,cs),
(894,474,ls),
(862,280,o),
(720,146,o),
(544,146,cs),
(406,146,o),
(342,230,o),
(366,376,cs),
(414,660,l),
(142,660,l),
(116,514,l),
(336,514,l),
(238,612,l),
(200,384,ls),
(160,142,o),
(272,-14,o),
(488,-14,cs)
);
}
);
width = 1248;
},
{
anchors = (
{
name = bottom;
pos = (1118,0);
},
{
name = top;
pos = (1288,1202);
}
);
layerId = "D0EC06BF-13F9-4C88-A6F5-B8203AF6C77E";
shapes = (
{
closed = 1;
nodes = (
(560,-14,o),
(682,66,o),
(762,220,c),
(772,220,l),
(736,0,l),
(1118,0,l),
(1248,794,ls),
(1290,1046,o),
(1076,1226,o),
(736,1226,cs),
(406,1226,o),
(158,1056,o),
(112,798,c),
(498,798,l),
(526,892,o),
(600,942,o),
(706,942,cs),
(818,942,o),
(872,884,o),
(854,782,cs),
(802,468,ls),
(788,374,o),
(718,312,o),
(630,312,cs),
(542,312,o),
(498,374,o),
(512,468,cs),
(546,680,l),
(94,680,l),
(50,426,l),
(226,426,l),
(158,454,l),
(132,304,ls),
(100,110,o),
(208,-14,o),
(402,-14,cs)
);
}
);
width = 1316;
}
);
metricRight = "loLing-thai";
unicode = 3593;
}
{
glyphname = "choChang-thai";
layers = (
{
anchors = (
{
name = bottom;
pos = (858,0);
},
{
name = top;
pos = (1066,1202);
}
);
layerId = "200BE2C5-40F6-4CF4-AF4F-A33C0CC0964F";
shapes = (
{
closed = 1;
nodes = (
(722,-14,o),
(894,132,o),
(932,356,cs),
(976,618,ls),
(998,744,o),
(956,832,o),
(862,858,c),
(864,864,l),
(960,884,o),
(1024,952,o),
(1040,1052,cs),
(1066,1202,l),
(1020,1202,l),
(994,1052,ls),
(976,948,o),
(890,882,o),
(776,882,cs),
(696,882,l),
(688,840,l),
(770,840,ls),
(892,840,o),
(952,756,o),
(930,618,cs),
(888,368,ls),
(854,160,o),
(700,30,o),
(492,30,cs),
(286,30,o),
(178,162,o),
(212,368,cs),
(256,634,ls),
(274,746,o),
(350,800,o),
(424,854,cs),
(512,918,o),
(586,968,o),
(586,1080,cs),
(586,1166,o),
(522,1218,o),
(418,1218,cs),
(366,1218,o),
(316,1206,o),
(270,1180,c),
(274,1138,l),
(324,1162,o),
(372,1174,o),
(418,1174,cs),
(496,1174,o),
(538,1140,o),
(538,1078,cs),
(538,988,o),
(470,936,o),
(394,880,cs),
(316,822,o),
(232,760,o),
(210,634,cs),
(168,382,ls),
(128,144,o),
(258,-14,o),
(494,-14,cs)
);
}
);
width = 1170;
},
{
anchors = (
{
name = bottom;
pos = (892,0);
},
{
name = top;
pos = (1106,1202);
}
);
layerId = "11F4534A-B963-4AB5-820F-DAF9A20CD933";
shapes = (
{
closed = 1;
nodes = (
(752,-24,o),
(924,114,o),
(962,344,cs),
(1004,586,ls),
(1026,716,o),
(986,804,o),
(898,832,c),
(902,844,l),
(1014,874,o),
(1086,968,o),
(1110,1102,cs),
(1128,1202,l),
(956,1202,l),
(938,1102,ls),
(916,980,o),
(844,908,o),
(734,908,cs),
(698,908,l),
(676,768,l),
(706,768,ls),
(804,768,o),
(848,702,o),
(828,586,cs),
(792,378,ls),
(766,224,o),
(664,130,o),
(514,130,cs),
(362,130,o),
(278,228,o),
(302,378,cs),
(322,504,ls),
(336,588,o),
(380,660,o),
(454,722,cs),
(564,812,o),
(620,910,o),
(622,1016,cs),
(622,1144,o),
(536,1218,o),
(386,1218,cs),
(340,1218,o),
(294,1212,o),
(248,1198,c),
(254,1048,l),
(284,1058,o),
(318,1064,o),
(350,1064,cs),
(414,1064,o),
(446,1038,o),
(446,984,cs),
(446,926,o),
(408,874,o),
(330,814,cs),
(216,728,o),
(170,650,o),
(148,512,cs),
(126,372,ls),
(88,134,o),
(238,-24,o),
(504,-24,cs)
);
}
);
width = 1168;
},
{
anchors = (
{
name = bottom;
pos = (1128,0);
},
{
name = top;
pos = (1348,1202);
}
);
layerId = "D0EC06BF-13F9-4C88-A6F5-B8203AF6C77E";
shapes = (
{
closed = 1;
nodes = (
(960,-22,o),
(1172,158,o),
(1224,450,cs),
(1252,616,ls),
(1272,726,o),
(1230,800,o),
(1142,824,c),
(1144,836,l),
(1256,862,o),
(1328,944,o),
(1346,1058,cs),
(1370,1202,l),
(976,1202,l),
(952,1058,ls),
(942,994,o),
(902,958,o),
(840,958,cs),
(824,958,l),
(782,702,l),
(806,702,ls),
(850,702,o),
(872,670,o),
(862,616,cs),
(834,464,ls),
(814,344,o),
(748,280,o),
(638,280,cs),
(528,280,o),
(480,346,o),
(500,464,cs),
(518,568,ls),
(532,650,o),
(562,704,o),
(638,786,cs),
(720,872,o),
(750,936,o),
(750,1014,cs),
(750,1150,o),
(654,1218,o),
(456,1218,cs),
(364,1218,o),
(266,1202,o),
(194,1178,c),
(204,962,l),
(228,972,o),
(262,978,o),
(290,978,cs),
(338,978,o),
(360,960,o),
(360,926,cs),
(360,894,o),
(342,868,o),
(280,818,cs),
(180,734,o),
(136,660,o),
(120,560,cs),
(106,474,ls),
(62,182,o),
(286,-22,o),
(632,-22,cs)
);
}
);
width = 1340;
}
);
metricLeft = "khoKhai-thai";
unicode = 3594;
}
{
glyphname = "soSo-thai";
layers = (
{
anchors = (
{
name = bottom;
pos = (858,0);
},
{
name = top;
pos = (1066,1202);
}
);
layerId = "200BE2C5-40F6-4CF4-AF4F-A33C0CC0964F";
shapes = (
{
closed = 1;
nodes = (
(722,-14,o),
(894,132,o),
(932,356,cs),
(976,618,ls),
(998,744,o),
(956,832,o),
(862,858,c),
(864,864,l),
(960,884,o),
(1024,952,o),
(1040,1052,cs),
(1066,1202,l),
(1020,1202,l),
(994,1052,ls),
(976,948,o),
(890,882,o),
(776,882,cs),
(696,882,l),
(688,840,l),
(770,840,ls),
(892,840,o),
(952,756,o),
(930,618,cs),
(888,370,ls),
(854,162,o),
(700,30,o),
(492,30,cs),
(286,30,o),
(178,162,o),
(212,370,cs),
(256,634,ls),
(274,746,o),
(350,800,o),
(424,854,cs),
(496,906,o),
(566,954,o),
(586,1070,cs),
(608,1202,l),
(562,1202,l),
(558,1174,ls),
(544,1092,o),
(470,1032,o),
(388,1032,cs),
(314,1032,o),
(274,1080,o),
(288,1160,cs),
(296,1202,l),
(248,1202,l),
(242,1168,ls),
(224,1064,o),
(286,988,o),
(384,988,cs),
(442,988,o),
(494,1014,o),
(534,1070,c),
(540,1070,l),
(524,968,o),
(464,932,o),
(394,880,cs),
(316,822,o),
(232,760,o),
(210,634,cs),
(168,382,ls),
(128,144,o),
(258,-14,o),
(494,-14,cs)
);
}
);
width = 1170;
},
{
anchors = (
{
name = bottom;
pos = (914,0);
},
{
name = top;
pos = (1128,1202);
}
);
layerId = "11F4534A-B963-4AB5-820F-DAF9A20CD933";
shapes = (
{
closed = 1;
nodes = (
(774,-24,o),
(946,114,o),
(984,344,cs),
(1026,586,ls),
(1046,716,o),
(1008,804,o),
(920,832,c),
(924,844,l),
(1036,874,o),
(1110,968,o),
(1132,1102,cs),
(1150,1202,l),
(978,1202,l),
(960,1102,ls),
(942,978,o),
(866,908,o),
(756,908,cs),
(720,908,l),
(698,768,l),
(728,768,ls),
(826,768,o),
(868,702,o),
(850,586,cs),
(814,378,ls),
(790,224,o),
(680,130,o),
(528,130,cs),
(370,130,o),
(286,228,o),
(310,378,cs),
(330,504,ls),
(344,590,o),
(388,660,o),
(468,724,cs),
(572,802,o),
(622,880,o),
(642,1000,cs),
(676,1202,l),
(518,1202,l),
(514,1182,ls),
(502,1116,o),
(452,1066,o),
(394,1066,cs),
(340,1066,o),
(308,1110,o),
(318,1172,cs),
(322,1202,l),
(162,1202,l),
(156,1170,ls),
(132,1028,o),
(198,926,o),
(318,926,cs),
(376,926,o),
(424,950,o),
(456,992,c),
(468,992,l),
(454,914,o),
(420,864,o),
(344,814,cs),
(226,728,o),
(178,652,o),
(156,512,cs),
(134,372,ls),
(96,134,o),
(248,-24,o),
(520,-24,cs)
);
}
);
width = 1190;
},
{
anchors = (
{
name = bottom;
pos = (1160,0);
},
{
name = top;
pos = (1376,1202);
}
);
layerId = "D0EC06BF-13F9-4C88-A6F5-B8203AF6C77E";
shapes = (
{
closed = 1;
nodes = (
(980,-22,o),
(1210,158,o),
(1260,452,cs),
(1288,616,ls),
(1306,726,o),
(1266,800,o),
(1176,824,c),
(1178,836,l),
(1290,862,o),
(1364,944,o),
(1382,1058,cs),
(1406,1202,l),
(1010,1202,l),
(988,1058,ls),
(978,994,o),
(938,958,o),
(876,958,cs),
(866,958,l),
(824,702,l),
(840,702,ls),
(884,702,o),
(906,672,o),
(896,616,cs),
(870,464,ls),
(850,344,o),
(782,280,o),
(672,280,cs),
(562,280,o),
(516,346,o),
(536,464,cs),
(552,566,ls),
(566,648,o),
(594,698,o),
(670,774,cs),
(750,854,o),
(784,912,o),
(800,1006,cs),
(832,1202,l),
(548,1202,l),
(546,1186,ls),
(538,1140,o),
(504,1110,o),
(462,1110,cs),
(422,1110,o),
(404,1138,o),
(410,1182,cs),
(414,1202,l),
(166,1202,l),
(146,1094,ls),
(124,968,o),
(178,894,o),
(290,894,cs),
(346,894,o),
(408,916,o),
(446,950,c),
(456,950,l),
(448,906,o),
(424,874,o),
(344,818,cs),
(220,728,o),
(168,660,o),
(152,552,cs),
(142,476,ls),
(96,180,o),
(304,-22,o),
(652,-22,cs)
);
}
);
width = 1376;
}
);
metricRight = "choChang-thai";
unicode = 3595;
}
{
glyphname = "choChoe-thai";
layers = (
{
anchors = (
{
name = bottom;
pos = (1598,0);
},
{
name = top;
pos = (1810,1202);
}
);
layerId = "200BE2C5-40F6-4CF4-AF4F-A33C0CC0964F";
shapes = (
{
closed = 1;
nodes = (
(1462,-14,o),
(1636,144,o),
(1674,376,cs),
(1810,1202,l),
(1764,1202,l),
(1630,380,ls),
(1596,172,o),
(1436,30,o),
(1242,30,cs),
(1046,30,o),
(924,178,o),
(958,376,cs),
(1030,798,ls),
(1072,1050,o),
(936,1218,o),
(688,1218,cs),
(446,1218,o),
(258,1058,o),
(218,820,cs),
(212,780,l),
(376,762,l),
(376,756,l),
(286,726,o),
(236,652,o),
(214,520,cs),
(170,258,ls),
(142,100,o),
(228,-10,o),
(378,-10,cs),
(410,-10,o),
(442,-4,o),
(474,8,c),
(466,48,l),
(440,38,o),
(412,34,o),
(382,34,cs),
(260,34,o),
(194,118,o),
(216,246,cs),
(260,518,ls),
(286,686,o),
(374,762,o),
(522,746,cs),
(562,742,l),
(568,784,l),
(242,818,l),
(258,786,l),
(264,814,ls),
(298,1028,o),
(468,1174,o),
(684,1174,cs),
(902,1174,o),
(1020,1032,o),
(984,810,cs),
(850,0,l),
(898,0,l),
(928,190,l),
(934,190,l),
(978,64,o),
(1100,-14,o),
(1246,-14,cs)
);
}
);
width = 1916;
},
{
anchors = (
{
name = bottom;
pos = (1754,0);
},
{
name = top;
pos = (1968,1202);
}
);
layerId = "11F4534A-B963-4AB5-820F-DAF9A20CD933";
shapes = (
{
closed = 1;
nodes = (
(1632,-14,o),
(1792,156,o),
(1842,444,cs),
(1968,1202,l),
(1792,1202,l),
(1672,472,ls),
(1638,276,o),
(1514,146,o),
(1362,146,cs),
(1192,146,o),
(1078,306,o),
(1112,500,cs),
(1156,760,ls),
(1204,1046,o),
(1040,1226,o),
(734,1226,cs),
(434,1226,o),
(212,1054,o),
(166,780,cs),
(154,718,l),
(352,688,l),
(350,676,l),
(242,646,o),
(174,556,o),
(152,420,cs),
(132,306,ls),
(98,106,o),
(190,-14,o),
(378,-14,cs),
(422,-14,o),
(464,-8,o),
(504,6,c),
(494,152,l),
(470,144,o),
(442,140,o),
(418,140,cs),
(322,140,o),
(286,194,o),
(306,306,cs),
(328,440,ls),
(352,586,o),
(424,672,o),
(514,658,cs),
(580,648,l),
(604,786,l),
(300,832,l),
(328,718,l),
(334,760,ls),
(366,950,o),
(512,1072,o),
(712,1072,cs),
(906,1072,o),
(1014,960,o),
(984,784,cs),
(854,0,l),
(1030,0,l),
(1064,208,l),
(1074,208,l),
(1130,66,o),
(1254,-14,o),
(1406,-14,cs)
);
}
);
width = 2025;
},
{
anchors = (
{
name = bottom;
pos = (1810,0);
},
{
name = top;
pos = (2024,1202);
}
);
layerId = "D0EC06BF-13F9-4C88-A6F5-B8203AF6C77E";
shapes = (
{
closed = 1;
nodes = (
(1682,-14,o),
(1848,138,o),
(1888,384,cs),
(2024,1202,l),
(1622,1202,l),
(1504,488,ls),
(1486,376,o),
(1418,312,o),
(1320,312,cs),
(1222,312,o),
(1178,376,o),
(1196,488,cs),
(1236,744,ls),
(1284,1048,o),
(1098,1226,o),
(730,1226,cs),
(374,1226,o),
(152,1054,o),
(100,734,cs),
(88,654,l),
(294,654,l),
(292,642,l),
(166,600,o),
(92,514,o),
(70,374,cs),
(62,328,ls),
(32,130,o),
(158,-12,o),
(370,-12,cs),
(448,-12,o),
(534,0,o),
(616,24,c),
(606,306,l),
(582,300,o),
(544,296,o),
(524,296,cs),
(474,296,o),
(452,320,o),
(460,366,cs),
(472,434,ls),
(482,496,o),
(518,528,o),
(580,528,cs),
(622,528,l),
(658,746,l),
(398,746,l),
(476,676,l),
(484,734,ls),
(502,860,o),
(580,928,o),
(702,928,cs),
(816,928,o),
(874,868,o),
(856,764,cs),
(730,0,l),
(1092,0,l),
(1128,212,l),
(1138,212,l),
(1172,70,o),
(1292,-14,o),
(1460,-14,cs)
);
}
);
width = 2023;
}
);
metricLeft = "thoThung-thai";
metricRight = "moMa-thai";
unicode = 3596;
}
{
glyphname = "yoYing-thai";
layers = (
{
anchors = (
{
name = bottom;
pos = (1542,-338);
},
{
name = top;
pos = (1810,1202);
}
);
layerId = "200BE2C5-40F6-4CF4-AF4F-A33C0CC0964F";
shapes = (
{
closed = 1;
nodes = (
(1400,-352,o),
(1576,-216,o),
(1612,0,cs),
(1810,1202,l),
(1764,1202,l),
(1632,404,ls),
(1600,204,o),
(1430,58,o),
(1234,58,cs),
(1038,58,o),
(930,200,o),
(964,408,cs),
(1030,798,ls),
(1072,1050,o),
(934,1218,o),
(688,1218,cs),
(446,1218,o),
(258,1058,o),
(218,820,cs),
(212,780,l),
(376,762,l),
(376,756,l),
(288,728,o),
(236,652,o),
(214,520,cs),
(170,258,ls),
(144,100,o),
(228,-10,o),
(378,-10,cs),
(410,-10,o),
(442,-4,o),
(474,8,c),
(466,48,l),
(440,38,o),
(412,34,o),
(382,34,cs),
(260,34,o),
(192,118,o),
(214,246,cs),
(260,518,ls),
(288,686,o),
(376,762,o),
(522,746,cs),
(560,742,l),
(566,784,l),
(242,818,l),
(258,784,l),
(264,812,ls),
(298,1028,o),
(468,1174,o),
(684,1174,cs),
(902,1174,o),
(1020,1032,o),
(984,810,cs),
(920,416,ls),
(882,180,o),
(1010,14,o),
(1230,14,cs),
(1380,14,o),
(1528,96,o),
(1596,216,c),
(1602,216,l),
(1568,8,ls),
(1536,-188,o),
(1378,-308,o),
(1158,-308,cs),
(1030,-308,o),
(930,-268,o),
(872,-190,c),
(836,-218,l),
(900,-304,o),
(1016,-352,o),
(1160,-352,cs)
);
}
);
width = 1922;
},
{
anchors = (
{
name = bottom;
pos = (1684,-418);
},
{
name = top;
pos = (1968,1202);
}
);
layerId = "11F4534A-B963-4AB5-820F-DAF9A20CD933";
shapes = (
{
closed = 1;
nodes = (
(1548,-434,o),
(1720,-300,o),
(1760,-50,cs),
(1968,1202,l),
(1792,1202,l),
(1678,514,ls),
(1646,314,o),
(1484,162,o),
(1310,162,cs),
(1160,162,o),
(1076,288,o),
(1106,472,cs),
(1156,760,ls),
(1204,1046,o),
(1040,1226,o),
(734,1226,cs),
(434,1226,o),
(214,1054,o),
(166,780,cs),
(154,718,l),
(352,688,l),
(350,676,l),
(242,646,o),
(174,556,o),
(152,420,cs),
(132,306,ls),
(100,106,o),
(190,-14,o),
(378,-14,cs),
(422,-14,o),
(464,-8,o),
(504,6,c),
(494,152,l),
(470,144,o),
(442,140,o),
(418,140,cs),
(322,140,o),
(286,194,o),
(306,306,cs),
(328,440,ls),
(352,586,o),
(424,672,o),
(514,658,cs),
(580,648,l),
(604,786,l),
(300,832,l),
(328,718,l),
(334,760,ls),
(366,950,o),
(512,1072,o),
(712,1072,cs),
(906,1072,o),
(1014,960,o),
(984,784,cs),
(936,494,ls),
(886,198,o),
(1020,0,o),
(1262,0,cs),
(1416,0,o),
(1556,86,o),
(1618,222,c),
(1630,222,l),
(1590,-12,ls),
(1560,-186,o),
(1442,-286,o),
(1268,-286,cs),
(1136,-286,o),
(1040,-228,o),
(988,-120,c),
(834,-216,l),
(922,-362,o),
(1066,-434,o),
(1272,-434,cs)
);
}
);
width = 2032;
},
{
anchors = (
{
name = bottom;
pos = (1744,-428);
},
{
name = top;
pos = (2026,1202);
}
);
layerId = "D0EC06BF-13F9-4C88-A6F5-B8203AF6C77E";
shapes = (
{
closed = 1;
nodes = (
(1560,-442,o),
(1780,-280,o),
(1826,2,cs),
(2026,1202,l),
(1624,1202,l),
(1510,518,ls),
(1492,406,o),
(1422,342,o),
(1324,342,cs),
(1226,342,o),
(1182,406,o),
(1200,518,cs),
(1236,744,ls),
(1284,1048,o),
(1098,1226,o),
(730,1226,cs),
(374,1226,o),
(152,1052,o),
(100,734,cs),
(88,654,l),
(280,654,l),
(278,642,l),
(152,600,o),
(76,512,o),
(56,374,cs),
(48,324,ls),
(18,126,o),
(146,-14,o),
(360,-14,cs),
(436,-14,o),
(520,-6,o),
(608,18,c),
(596,304,l),
(572,298,o),
(536,292,o),
(516,292,cs),
(466,292,o),
(444,316,o),
(452,362,cs),
(464,434,ls),
(474,498,o),
(512,528,o),
(574,528,cs),
(622,528,l),
(658,746,l),
(390,746,l),
(476,676,l),
(484,734,ls),
(502,860,o),
(580,928,o),
(702,928,cs),
(816,928,o),
(872,868,o),
(856,764,cs),
(798,414,ls),
(760,174,o),
(880,14,o),
(1102,14,cs),
(1266,14,o),
(1404,100,o),
(1472,242,c),
(1484,242,l),
(1444,2,ls),
(1426,-112,o),
(1358,-172,o),
(1248,-172,cs),
(1162,-172,o),
(1108,-134,o),
(1106,-72,c),
(718,-72,l),
(728,-298,o),
(926,-442,o),
(1232,-442,cs)
);
}
);
width = 2030;
}
);
metricLeft = "thoThung-thai";
unicode = 3597;
}
{
glyphname = "doChada-thai";
layers = (
{
anchors = (
{
name = bottom;
pos = (872,-338);
},
{
name = top;
pos = (1112,1202);
}
);
layerId = "200BE2C5-40F6-4CF4-AF4F-A33C0CC0964F";
shapes = (
{
closed = 1;
nodes = (
(196,-218,o),
(308,-160,o),
(452,-160,cs),
(596,-160,o),
(720,-220,o),
(822,-338,c),
(872,-338,l),
(1060,804,ls),
(1102,1054,o),
(960,1218,o),
(698,1218,cs),
(434,1218,o),
(240,1062,o),
(200,822,cs),
(194,784,l),
(406,760,l),
(404,754,l),
(316,726,o),
(264,650,o),
(242,518,cs),
(184,174,ls),
(170,92,o),
(122,44,o),
(56,44,cs),
(-16,44,l),
(-24,0,l),
(52,0,ls),
(146,0,o),
(212,62,o),
(230,166,cs),
(288,516,ls),
(316,684,o),
(404,760,o),
(550,744,cs),
(570,742,l),
(576,782,l),
(224,822,l),
(240,788,l),
(246,816,ls),
(280,1034,o),
(456,1174,o),
(696,1174,cs),
(930,1174,o),
(1054,1034,o),
(1016,812,cs),
(834,-288,l),
(830,-288,l),
(724,-176,o),
(592,-116,o),
(452,-116,cs),
(296,-116,o),
(166,-182,o),
(62,-314,c),
(94,-342,l)
);
}
);
width = 1231;
},
{
anchors = (
{
name = bottom;
pos = (954,-482);
},
{
name = top;
pos = (1218,1202);
}
);
layerId = "11F4534A-B963-4AB5-820F-DAF9A20CD933";
shapes = (
{
closed = 1;
nodes = (
(198,-362,o),
(312,-290,o),
(452,-290,cs),
(586,-290,o),
(692,-356,o),
(750,-482,c),
(954,-482,l),
(1158,754,ls),
(1206,1040,o),
(1030,1226,o),
(724,1226,cs),
(424,1226,o),
(220,1054,o),
(170,780,cs),
(158,718,l),
(364,688,l),
(362,676,l),
(260,648,o),
(194,558,o),
(170,420,cs),
(148,290,ls),
(132,200,o),
(84,154,o),
(2,154,cs),
(-30,154,l),
(-56,0,l),
(-2,0,ls),
(182,0,o),
(286,82,o),
(314,248,cs),
(346,440,ls),
(372,592,o),
(438,674,o),
(526,658,cs),
(582,648,l),
(606,786,l),
(304,832,l),
(332,718,l),
(338,760,ls),
(372,950,o),
(514,1072,o),
(712,1072,cs),
(906,1072,o),
(1014,944,o),
(984,766,cs),
(802,-328,l),
(792,-328,l),
(712,-206,o),
(586,-142,o),
(428,-142,cs),
(228,-142,o),
(70,-246,o),
(-20,-438,c),
(136,-488,l)
);
}
);
width = 1290;
},
{
anchors = (
{
name = bottom;
pos = (1082,-482);
},
{
name = top;
pos = (1346,1202);
}
);
layerId = "D0EC06BF-13F9-4C88-A6F5-B8203AF6C77E";
shapes = (
{
closed = 1;
nodes = (
(376,-418,o),
(434,-384,o),
(510,-384,cs),
(582,-384,o),
(640,-416,o),
(680,-482,c),
(1082,-482,l),
(1284,744,ls),
(1334,1048,o),
(1136,1226,o),
(754,1226,cs),
(384,1226,o),
(168,1058,o),
(114,734,cs),
(102,654,l),
(344,654,l),
(344,642,l),
(230,606,o),
(162,530,o),
(142,410,cs),
(134,366,ls),
(126,318,o),
(98,296,o),
(48,296,cs),
(-4,296,l),
(-54,0,l),
(118,0,ls),
(348,0,o),
(474,96,o),
(506,292,cs),
(530,434,ls),
(540,496,o),
(576,528,o),
(638,528,cs),
(658,528,l),
(696,746,l),
(418,746,l),
(498,676,l),
(506,734,ls),
(524,862,o),
(602,928,o),
(728,928,cs),
(846,928,o),
(902,870,o),
(884,764,cs),
(728,-194,l),
(718,-194,l),
(656,-122,o),
(558,-84,o),
(440,-84,cs),
(208,-84,o),
(38,-230,o),
(-22,-482,c),
(352,-482,l)
);
}
);
width = 1357;
}
);
metricLeft = "phoSamphao-thai";
metricRight = "phoSamphao-thai";
unicode = 3598;
}
{
glyphname = "toPatak-thai";
layers = (
{
anchors = (
{
name = bottom;
pos = (872,-338);
},
{
name = top;
pos = (1112,1202);
}
);
layerId = "200BE2C5-40F6-4CF4-AF4F-A33C0CC0964F";
shapes = (
{
closed = 1;
nodes = (
(412,-352,o),
(512,-264,o),
(542,-134,c),
(528,-160,l),
(818,-338,l),
(872,-338,l),
(1060,804,ls),
(1102,1054,o),
(960,1218,o),
(698,1218,cs),
(434,1218,o),
(240,1062,o),
(200,822,cs),
(194,784,l),
(406,760,l),
(404,754,l),
(316,726,o),
(264,650,o),
(242,518,cs),
(184,174,ls),
(170,92,o),
(124,44,o),
(56,44,cs),
(-16,44,l),
(-22,0,l),
(52,0,ls),
(148,0,o),
(212,62,o),
(230,166,cs),
(288,516,ls),
(316,684,o),
(404,760,o),
(550,744,cs),
(570,742,l),
(576,782,l),
(224,822,l),
(240,788,l),
(246,816,ls),
(280,1034,o),
(456,1174,o),
(696,1174,cs),
(930,1174,o),
(1054,1034,o),
(1016,812,cs),
(832,-292,l),
(830,-292,l),
(536,-116,l),
(500,-116,l),
(482,-226,o),
(392,-308,o),
(294,-308,cs),
(212,-308,o),
(160,-252,o),
(150,-154,c),
(106,-170,l),
(122,-284,o),
(192,-352,o),
(294,-352,cs)
);
}
);
width = 1231;
},
{
anchors = (
{
name = bottom;
pos = (954,-482);
},
{
name = top;
pos = (1220,1202);
}
);
layerId = "11F4534A-B963-4AB5-820F-DAF9A20CD933";
shapes = (
{
closed = 1;
nodes = (
(370,-498,o),
(460,-442,o),
(526,-334,c),
(536,-334,l),
(750,-482,l),
(954,-482,l),
(1158,754,ls),
(1206,1040,o),
(1030,1226,o),
(724,1226,cs),
(424,1226,o),
(222,1054,o),
(172,780,cs),
(160,718,l),
(366,688,l),
(364,676,l),
(262,648,o),
(196,558,o),
(172,420,cs),
(148,290,ls),
(132,200,o),
(84,154,o),
(2,154,cs),
(-30,154,l),
(-56,0,l),
(-2,0,ls),
(182,0,o),
(284,82,o),
(314,248,cs),
(348,440,ls),
(374,592,o),
(440,674,o),
(528,658,cs),
(584,648,l),
(606,786,l),
(306,832,l),
(334,718,l),
(340,760,ls),
(374,950,o),
(514,1072,o),
(712,1072,cs),
(906,1072,o),
(1014,944,o),
(984,766,cs),
(804,-324,l),
(792,-324,l),
(564,-168,l),
(482,-168,l),
(410,-310,o),
(368,-354,o),
(302,-354,cs),
(232,-354,o),
(202,-302,o),
(194,-162,c),
(44,-208,l),
(46,-394,o),
(126,-498,o),
(266,-498,cs)
);
}
);
width = 1290;
},
{
anchors = (
{
name = bottom;
pos = (1082,-482);
},
{
name = top;
pos = (1346,1202);
}
);
layerId = "D0EC06BF-13F9-4C88-A6F5-B8203AF6C77E";
shapes = (
{
closed = 1;
nodes = (
(348,-498,o),
(434,-456,o),
(512,-368,c),
(522,-368,l),
(636,-482,l),
(1082,-482,l),
(1284,744,ls),
(1334,1048,o),
(1136,1226,o),
(754,1226,cs),
(384,1226,o),
(168,1058,o),
(114,734,cs),
(102,654,l),
(344,654,l),
(344,642,l),
(230,606,o),
(162,530,o),
(142,410,cs),
(134,366,ls),
(126,318,o),
(98,296,o),
(48,296,cs),
(-4,296,l),
(-54,0,l),
(118,0,ls),
(348,0,o),
(474,96,o),
(506,292,cs),
(530,434,ls),
(540,496,o),
(576,528,o),
(638,528,cs),
(658,528,l),
(696,746,l),
(418,746,l),
(498,676,l),
(506,734,ls),
(524,862,o),
(602,928,o),
(728,928,cs),
(846,928,o),
(902,870,o),
(884,764,cs),
(722,-222,l),
(708,-222,l),
(612,-126,l),
(488,-126,l),
(478,-184,o),
(446,-216,o),
(402,-216,cs),
(358,-216,o),
(338,-182,o),
(350,-126,c),
(-14,-126,l),
(-54,-366,o),
(36,-498,o),
(236,-498,cs)
);
}
);
width = 1357;
}
);
metricLeft = "phoSamphao-thai";
metricRight = "phoSamphao-thai";
unicode = 3599;
}
{
glyphname = "thoNangmontho-thai";
layers = (
{
anchors = (
{
name = bottom;
pos = (902,0);
},
{
name = top;
pos = (1096,1202);
}
);
layerId = "200BE2C5-40F6-4CF4-AF4F-A33C0CC0964F";
shapes = (
{
closed = 1;
nodes = (
(156,0,l),
(256,606,ls),
(270,694,o),
(302,744,o),
(418,844,cs),
(676,1066,ls),
(752,1132,o),
(826,1166,o),
(892,1166,cs),
(988,1166,o),
(1038,1100,o),
(1020,992,cs),
(856,0,l),
(902,0,l),
(1064,986,ls),
(1086,1120,o),
(1018,1210,o),
(894,1210,cs),
(816,1210,o),
(744,1176,o),
(658,1102,cs),
(592,1046,l),
(586,1046,l),
(612,1202,l),
(566,1202,l),
(562,1174,ls),
(550,1092,o),
(474,1032,o),
(392,1032,cs),
(318,1032,o),
(278,1080,o),
(292,1160,cs),
(300,1202,l),
(254,1202,l),
(248,1168,ls),
(230,1064,o),
(290,988,o),
(388,988,cs),
(446,988,o),
(498,1014,o),
(538,1070,c),
(544,1070,l),
(530,990,o),
(468,940,o),
(398,882,cs),
(270,772,o),
(228,712,o),
(210,606,cs),
(110,0,l)
);
}
);
width = 1210;
},
{
anchors = (
{
name = bottom;
pos = (1038,0);
},
{
name = top;
pos = (1230,1202);
}
);
layerId = "11F4534A-B963-4AB5-820F-DAF9A20CD933";
shapes = (
{
closed = 1;
nodes = (
(262,0,l),
(342,478,ls),
(356,572,o),
(396,638,o),
(494,720,cs),
(808,990,ls),
(870,1042,o),
(912,1064,o),
(954,1064,cs),
(1010,1064,o),
(1032,1024,o),
(1020,946,cs),
(862,0,l),
(1038,0,l),
(1198,954,ls),
(1224,1116,o),
(1148,1218,o),
(1002,1218,cs),
(914,1218,o),
(834,1182,o),
(734,1096,cs),
(664,1034,l),
(652,1034,l),
(680,1202,l),
(532,1202,l),
(528,1182,ls),
(518,1116,o),
(464,1066,o),
(406,1066,cs),
(352,1066,o),
(322,1110,o),
(334,1172,cs),
(338,1202,l),
(176,1202,l),
(168,1148,ls),
(144,1016,o),
(202,926,o),
(312,926,cs),
(368,926,o),
(430,952,o),
(472,992,c),
(482,992,l),
(466,894,o),
(440,852,o),
(354,786,cs),
(236,694,o),
(188,614,o),
(166,478,cs),
(86,0,l)
);
}
);
width = 1300;
},
{
anchors = (
{
name = bottom;
pos = (1224,0);
},
{
name = top;
pos = (1416,1202);
}
);
layerId = "D0EC06BF-13F9-4C88-A6F5-B8203AF6C77E";
shapes = (
{
closed = 1;
nodes = (
(464,0,l),
(554,544,ls),
(566,610,o),
(584,644,o),
(626,684,cs),
(752,800,ls),
(818,860,o),
(844,876,o),
(882,876,cs),
(938,876,o),
(960,834,o),
(946,756,cs),
(822,0,l),
(1224,0,l),
(1366,848,ls),
(1406,1086,o),
(1324,1218,o),
(1134,1218,cs),
(1034,1218,o),
(946,1178,o),
(856,1096,cs),
(804,1048,l),
(792,1048,l),
(818,1202,l),
(556,1202,l),
(552,1186,ls),
(544,1140,o),
(512,1110,o),
(470,1110,cs),
(430,1110,o),
(410,1138,o),
(418,1182,cs),
(420,1202,l),
(166,1202,l),
(146,1094,ls),
(126,968,o),
(178,894,o),
(290,894,cs),
(346,894,o),
(408,916,o),
(446,950,c),
(456,950,l),
(448,904,o),
(426,878,o),
(324,798,cs),
(212,710,o),
(168,646,o),
(152,546,cs),
(62,0,l)
);
}
);
width = 1422;
}
);
unicode = 3601;
}
{
glyphname = "thoPhuthao-thai";
layers = (
{
anchors = (
{
name = bottom;
pos = (1618,0);
},
{
name = top;
pos = (1832,1202);
}
);
layerId = "200BE2C5-40F6-4CF4-AF4F-A33C0CC0964F";
shapes = (
{
closed = 1;
nodes = (
(530,-14,o),
(572,-8,o),
(618,8,c),
(608,50,l),
(568,36,o),
(524,30,o),
(482,30,cs),
(286,30,o),
(172,182,o),
(172,444,cs),
(172,804,o),
(350,1136,o),
(562,1176,c),
(532,1180,l),
(688,1026,l),
(700,1026,l),
(908,1180,l),
(876,1176,l),
(994,1154,o),
(1046,1054,o),
(1020,900,cs),
(872,0,l),
(918,0,l),
(948,190,l),
(954,190,l),
(998,64,o),
(1120,-14,o),
(1266,-14,cs),
(1482,-14,o),
(1656,144,o),
(1694,376,cs),
(1832,1202,l),
(1784,1202,l),
(1648,380,ls),
(1614,172,o),
(1456,30,o),
(1262,30,cs),
(1066,30,o),
(946,178,o),
(978,376,cs),
(1064,892,ls),
(1094,1068,o),
(1028,1186,o),
(884,1218,c),
(702,1080,l),
(694,1080,l),
(554,1218,l),
(320,1180,o),
(126,828,o),
(126,450,cs),
(126,160,o),
(258,-14,o),
(484,-14,cs)
);
}
);
width = 1938;
},
{
anchors = (
{
name = bottom;
pos = (1757,0);
},
{
name = top;
pos = (1971,1202);
}
);
layerId = "11F4534A-B963-4AB5-820F-DAF9A20CD933";
shapes = (
{
closed = 1;
nodes = (
(573,-14,o),
(625,-8,o),
(675,10,c),
(673,158,l),
(637,146,o),
(599,140,o),
(557,140,cs),
(367,140,o),
(275,254,o),
(275,492,cs),
(275,786,o),
(417,1042,o),
(585,1052,c),
(487,1094,l),
(683,934,l),
(729,934,l),
(979,1094,l),
(851,1052,l),
(963,1058,o),
(1019,974,o),
(995,834,cs),
(855,0,l),
(1031,0,l),
(1065,208,l),
(1077,208,l),
(1133,66,o),
(1253,-14,o),
(1407,-14,cs),
(1633,-14,o),
(1797,156,o),
(1845,444,cs),
(1971,1202,l),
(1795,1202,l),
(1673,472,ls),
(1641,276,o),
(1517,146,o),
(1363,146,cs),
(1195,146,o),
(1081,306,o),
(1113,500,cs),
(1167,814,ls),
(1201,1024,o),
(1117,1168,o),
(929,1218,c),
(723,1080,l),
(711,1080,l),
(557,1218,l),
(287,1168,o),
(93,858,o),
(93,480,cs),
(93,170,o),
(251,-14,o),
(517,-14,cs)
);
}
);
width = 2028;
},
{
anchors = (
{
name = bottom;
pos = (1818,0);
},
{
name = top;
pos = (2032,1202);
}
);
layerId = "D0EC06BF-13F9-4C88-A6F5-B8203AF6C77E";
shapes = (
{
closed = 1;
nodes = (
(516,-14,o),
(584,-4,o),
(648,14,c),
(696,308,l),
(672,296,o),
(640,290,o),
(610,290,cs),
(516,290,o),
(466,356,o),
(466,482,cs),
(466,692,o),
(556,888,o),
(668,922,c),
(618,930,l),
(712,836,l),
(730,836,l),
(862,932,l),
(802,916,l),
(860,908,o),
(884,868,o),
(872,798,cs),
(740,0,l),
(1102,0,l),
(1138,212,l),
(1150,212,l),
(1184,68,o),
(1302,-14,o),
(1470,-14,cs),
(1692,-14,o),
(1856,138,o),
(1896,384,cs),
(2032,1202,l),
(1632,1202,l),
(1512,488,ls),
(1494,376,o),
(1428,312,o),
(1332,312,cs),
(1234,312,o),
(1188,376,o),
(1206,488,cs),
(1258,802,ls),
(1298,1044,o),
(1186,1188,o),
(926,1226,c),
(750,1110,l),
(738,1110,l),
(600,1226,l),
(282,1198,o),
(50,872,o),
(52,450,cs),
(50,150,o),
(192,-14,o),
(450,-14,cs)
);
}
);
width = 2031;
}
);
metricLeft = "toTao-thai";
metricRight = "=|noNu-thai";
unicode = 3602;
}
{
glyphname = "noNen-thai";
layers = (
{
anchors = (
{
name = bottom;
pos = (1614,0);
},
{
name = top;
pos = (1810,1202);
}
);
layerId = "200BE2C5-40F6-4CF4-AF4F-A33C0CC0964F";
shapes = (
{
closed = 1;
nodes = (
(1374,-14,o),
(1522,66,o),
(1592,186,c),
(1598,186,l),
(1566,0,l),
(1614,0,l),
(1810,1202,l),
(1764,1202,l),
(1628,376,ls),
(1596,176,o),
(1426,30,o),
(1230,30,cs),
(1034,30,o),
(926,172,o),
(960,380,cs),
(1030,798,ls),
(1072,1050,o),
(934,1218,o),
(688,1218,cs),
(446,1218,o),
(258,1058,o),
(218,820,cs),
(212,780,l),
(376,762,l),
(376,756,l),
(288,728,o),
(236,652,o),
(214,520,cs),
(170,258,ls),
(144,100,o),
(228,-10,o),
(378,-10,cs),
(410,-10,o),
(442,-4,o),
(474,8,c),
(466,48,l),
(440,38,o),
(412,34,o),
(382,34,cs),
(260,34,o),
(194,118,o),
(216,246,cs),
(260,518,ls),
(288,686,o),
(376,762,o),
(522,746,cs),
(560,742,l),
(566,784,l),
(242,818,l),
(258,784,l),
(264,812,ls),
(298,1028,o),
(468,1174,o),
(684,1174,cs),
(902,1174,o),
(1020,1032,o),
(984,810,cs),
(914,388,ls),
(876,152,o),
(1004,-14,o),
(1224,-14,cs)
);
}
);
width = 1921;
},
{
anchors = (
{
name = bottom;
pos = (1768,0);
},
{
name = top;
pos = (1968,1202);
}
);
layerId = "11F4534A-B963-4AB5-820F-DAF9A20CD933";
shapes = (
{
closed = 1;
nodes = (
(1412,-14,o),
(1552,72,o),
(1614,208,c),
(1626,208,l),
(1592,0,l),
(1768,0,l),
(1968,1202,l),
(1792,1202,l),
(1676,500,ls),
(1642,300,o),
(1482,146,o),
(1306,146,cs),
(1156,146,o),
(1072,274,o),
(1104,458,cs),
(1156,760,ls),
(1204,1046,o),
(1040,1226,o),
(734,1226,cs),
(434,1226,o),
(212,1054,o),
(166,780,cs),
(154,718,l),
(352,688,l),
(350,676,l),
(242,646,o),
(174,556,o),
(152,420,cs),
(132,306,ls),
(98,106,o),
(190,-14,o),
(378,-14,cs),
(422,-14,o),
(464,-8,o),
(504,6,c),
(494,152,l),
(470,144,o),
(442,140,o),
(418,140,cs),
(322,140,o),
(286,194,o),
(306,306,cs),
(328,440,ls),
(352,586,o),
(424,672,o),
(514,658,cs),
(580,648,l),
(604,786,l),
(300,832,l),
(328,718,l),
(334,760,ls),
(366,950,o),
(512,1072,o),
(712,1072,cs),
(906,1072,o),
(1014,958,o),
(984,784,cs),
(930,482,ls),
(880,186,o),
(1012,-14,o),
(1258,-14,cs)
);
}
);
width = 2031;
},
{
anchors = (
{
name = bottom;
pos = (1826,0);
},
{
name = top;
pos = (2026,1202);
}
);
layerId = "D0EC06BF-13F9-4C88-A6F5-B8203AF6C77E";
shapes = (
{
closed = 1;
nodes = (
(1262,-14,o),
(1400,70,o),
(1466,212,c),
(1480,212,l),
(1444,0,l),
(1826,0,l),
(2026,1202,l),
(1624,1202,l),
(1506,488,ls),
(1488,376,o),
(1416,312,o),
(1318,312,cs),
(1222,312,o),
(1178,376,o),
(1196,488,cs),
(1236,744,ls),
(1284,1048,o),
(1098,1226,o),
(730,1226,cs),
(374,1226,o),
(152,1054,o),
(100,734,cs),
(88,654,l),
(294,654,l),
(292,642,l),
(166,600,o),
(92,514,o),
(70,374,cs),
(62,328,ls),
(32,130,o),
(158,-12,o),
(370,-12,cs),
(448,-12,o),
(534,0,o),
(616,24,c),
(606,306,l),
(582,300,o),
(544,296,o),
(524,296,cs),
(474,296,o),
(452,320,o),
(460,366,cs),
(472,434,ls),
(482,496,o),
(518,528,o),
(580,528,cs),
(622,528,l),
(658,746,l),
(398,746,l),
(476,676,l),
(484,734,ls),
(502,860,o),
(580,928,o),
(702,928,cs),
(816,928,o),
(874,868,o),
(856,764,cs),
(792,384,ls),
(752,144,o),
(874,-14,o),
(1098,-14,cs)
);
}
);
width = 2030;
}
);
metricLeft = "thoThung-thai";
metricRight = "noNu-thai";
unicode = 3603;
}
{
glyphname = "doDek-thai";
layers = (
{
anchors = (
{
name = bottom;
pos = (922,0);
},
{
name = top;
pos = (1108,1202);
}
);
layerId = "200BE2C5-40F6-4CF4-AF4F-A33C0CC0964F";
shapes = (
{
closed = 1;
nodes = (
(530,-14,o),
(570,-8,o),
(616,8,c),
(608,50,l),
(566,36,o),
(524,30,o),
(482,30,cs),
(284,30,o),
(172,182,o),
(172,444,cs),
(172,874,o),
(398,1174,o),
(722,1174,cs),
(944,1174,o),
(1050,1046,o),
(1012,824,cs),
(876,0,l),
(922,0,l),
(1058,814,ls),
(1100,1066,o),
(972,1218,o),
(722,1218,cs),
(368,1218,o),
(124,902,o),
(124,450,cs),
(124,160,o),
(258,-14,o),
(484,-14,cs)
);
}
);
width = 1226;
},
{
anchors = (
{
name = bottom;
pos = (1030,0);
},
{
name = top;
pos = (1214,1202);
}
);
layerId = "11F4534A-B963-4AB5-820F-DAF9A20CD933";
shapes = (
{
closed = 1;
nodes = (
(570,-14,o),
(622,-8,o),
(672,10,c),
(670,158,l),
(632,146,o),
(594,140,o),
(552,140,cs),
(362,140,o),
(270,254,o),
(270,492,cs),
(270,820,o),
(472,1072,o),
(728,1072,cs),
(914,1072,o),
(1012,952,o),
(980,762,cs),
(854,0,l),
(1030,0,l),
(1154,756,ls),
(1202,1042,o),
(1032,1226,o),
(736,1226,cs),
(354,1226,o),
(90,920,o),
(88,480,cs),
(88,170,o),
(248,-14,o),
(514,-14,cs)
);
}
);
width = 1288;
},
{
anchors = (
{
name = bottom;
pos = (1154,0);
},
{
name = top;
pos = (1340,1202);
}
);
layerId = "D0EC06BF-13F9-4C88-A6F5-B8203AF6C77E";
shapes = (
{
closed = 1;
nodes = (
(532,-14,o),
(594,-6,o),
(640,12,c),
(690,306,l),
(664,294,o),
(634,290,o),
(606,290,cs),
(512,290,o),
(466,356,o),
(466,492,cs),
(466,736,o),
(586,922,o),
(744,922,cs),
(844,922,o),
(892,858,o),
(876,754,cs),
(752,0,l),
(1154,0,l),
(1284,786,ls),
(1328,1050,o),
(1116,1226,o),
(766,1226,cs),
(334,1226,o),
(56,920,o),
(56,470,cs),
(56,158,o),
(202,-14,o),
(466,-14,cs)
);
}
);
width = 1352;
}
);
unicode = 3604;
}
{
glyphname = "toTao-thai";
layers = (
{
anchors = (
{
name = bottom;
pos = (946,0);
},
{
name = top;
pos = (1132,1202);
}
);
layerId = "200BE2C5-40F6-4CF4-AF4F-A33C0CC0964F";
shapes = (
{
closed = 1;
nodes = (
(530,-14,o),
(572,-8,o),
(618,8,c),
(608,50,l),
(568,36,o),
(524,30,o),
(482,30,cs),
(286,30,o),
(172,182,o),
(172,444,cs),
(172,804,o),
(350,1136,o),
(562,1176,c),
(532,1180,l),
(704,1026,l),
(716,1026,l),
(936,1180,l),
(904,1176,l),
(1022,1154,o),
(1074,1054,o),
(1048,900,cs),
(900,0,l),
(946,0,l),
(1094,890,ls),
(1124,1066,o),
(1058,1186,o),
(914,1218,c),
(716,1080,l),
(708,1080,l),
(554,1218,l),
(320,1180,o),
(126,828,o),
(126,450,cs),
(126,160,o),
(258,-14,o),
(484,-14,cs)
);
}
);
width = 1256;
},
{
anchors = (
{
name = bottom;
pos = (1046,0);
},
{
name = top;
pos = (1230,1202);
}
);
layerId = "11F4534A-B963-4AB5-820F-DAF9A20CD933";
shapes = (
{
closed = 1;
nodes = (
(572,-14,o),
(624,-8,o),
(674,10,c),
(672,158,l),
(634,146,o),
(598,140,o),
(556,140,cs),
(366,140,o),
(274,254,o),
(274,492,cs),
(274,786,o),
(416,1042,o),
(584,1052,c),
(486,1094,l),
(690,934,l),
(736,934,l),
(992,1094,l),
(864,1052,l),
(976,1058,o),
(1032,974,o),
(1008,834,cs),
(870,0,l),
(1046,0,l),
(1180,814,ls),
(1214,1024,o),
(1130,1168,o),
(942,1218,c),
(728,1080,l),
(718,1080,l),
(552,1218,l),
(284,1160,o),
(92,850,o),
(92,480,cs),
(92,170,o),
(250,-14,o),
(516,-14,cs)
);
}
);
width = 1304;
},
{
anchors = (
{
name = bottom;
pos = (1170,0);
},
{
name = top;
pos = (1354,1202);
}
);
layerId = "D0EC06BF-13F9-4C88-A6F5-B8203AF6C77E";
shapes = (
{
closed = 1;
nodes = (
(518,-14,o),
(582,-6,o),
(640,12,c),
(690,306,l),
(662,294,o),
(634,290,o),
(604,290,cs),
(512,290,o),
(468,352,o),
(466,474,cs),
(466,694,o),
(560,894,o),
(674,924,c),
(620,924,l),
(728,836,l),
(744,836,l),
(872,916,l),
(836,916,l),
(892,906,o),
(910,866,o),
(898,798,cs),
(766,0,l),
(1170,0,l),
(1304,802,ls),
(1344,1046,o),
(1236,1188,o),
(968,1226,c),
(766,1108,l),
(754,1108,l),
(592,1226,l),
(274,1188,o),
(52,874,o),
(50,438,cs),
(50,156,o),
(194,-14,o),
(456,-14,cs)
);
}
);
width = 1368;
}
);
unicode = 3605;
}
{
glyphname = "thoThung-thai";
layers = (
{
anchors = (
{
name = bottom;
pos = (926,0);
},
{
name = top;
pos = (1110,1202);
}
);
layerId = "200BE2C5-40F6-4CF4-AF4F-A33C0CC0964F";
shapes = (
{
closed = 1;
nodes = (
(410,-10,o),
(442,-4,o),
(474,8,c),
(466,48,l),
(438,38,o),
(410,34,o),
(382,34,cs),
(260,34,o),
(192,118,o),
(214,246,cs),
(260,518,ls),
(288,686,o),
(376,762,o),
(522,746,cs),
(560,742,l),
(566,784,l),
(242,818,l),
(258,784,l),
(264,812,ls),
(298,1030,o),
(470,1174,o),
(698,1174,cs),
(928,1174,o),
(1050,1034,o),
(1012,810,cs),
(878,0,l),
(926,0,l),
(1058,798,ls),
(1100,1054,o),
(960,1218,o),
(702,1218,cs),
(448,1218,o),
(258,1062,o),
(218,820,cs),
(212,780,l),
(376,762,l),
(376,756,l),
(288,728,o),
(236,652,o),
(214,520,cs),
(170,258,ls),
(144,100,o),
(228,-10,o),
(378,-10,cs)
);
}
);
width = 1230;
},
{
anchors = (
{
name = bottom;
pos = (1042,0);
},
{
name = top;
pos = (1230,1202);
}
);
layerId = "11F4534A-B963-4AB5-820F-DAF9A20CD933";
shapes = (
{
closed = 1;
nodes = (
(422,-14,o),
(464,-8,o),
(504,6,c),
(494,152,l),
(470,144,o),
(442,140,o),
(418,140,cs),
(322,140,o),
(288,194,o),
(306,306,cs),
(328,440,ls),
(352,586,o),
(424,672,o),
(514,658,cs),
(580,648,l),
(604,786,l),
(300,832,l),
(328,718,l),
(334,760,ls),
(368,952,o),
(518,1072,o),
(722,1072,cs),
(916,1072,o),
(1024,944,o),
(994,766,cs),
(866,0,l),
(1042,0,l),
(1168,754,ls),
(1216,1040,o),
(1042,1226,o),
(736,1226,cs),
(434,1226,o),
(218,1056,o),
(166,780,cs),
(154,718,l),
(352,688,l),
(350,676,l),
(242,646,o),
(174,556,o),
(152,420,cs),
(132,306,ls),
(100,106,o),
(190,-14,o),
(378,-14,cs)
);
}
);
width = 1300;
},
{
anchors = (
{
name = bottom;
pos = (1162,0);
},
{
name = top;
pos = (1346,1202);
}
);
layerId = "D0EC06BF-13F9-4C88-A6F5-B8203AF6C77E";
shapes = (
{
closed = 1;
nodes = (
(440,-14,o),
(526,-2,o),
(608,22,c),
(596,304,l),
(572,298,o),
(536,292,o),
(516,292,cs),
(466,292,o),
(444,316,o),
(452,362,cs),
(464,434,ls),
(474,498,o),
(512,528,o),
(574,528,cs),
(622,528,l),
(658,746,l),
(390,746,l),
(482,676,l),
(492,734,ls),
(510,862,o),
(590,928,o),
(722,928,cs),
(844,928,o),
(902,870,o),
(884,764,cs),
(760,0,l),
(1162,0,l),
(1284,744,ls),
(1334,1048,o),
(1134,1226,o),
(748,1226,cs),
(374,1226,o),
(154,1058,o),
(100,734,cs),
(88,654,l),
(280,654,l),
(278,642,l),
(152,600,o),
(76,512,o),
(56,374,cs),
(48,324,ls),
(18,126,o),
(146,-14,o),
(360,-14,cs)
);
}
);
width = 1358;
}
);
metricRight = "koKai-thai";
unicode = 3606;
}
{
glyphname = "thoThahan-thai";
layers = (
{
anchors = (
{
name = bottom;
pos = (912,0);
},
{
name = top;
pos = (1098,1202);
}
);
layerId = "200BE2C5-40F6-4CF4-AF4F-A33C0CC0964F";
shapes = (
{
closed = 1;
nodes = (
(168,0,l),
(304,828,ls),
(336,1030,o),
(508,1174,o),
(716,1174,cs),
(924,1174,o),
(1036,1036,o),
(1002,824,cs),
(866,0,l),
(912,0,l),
(1046,816,ls),
(1086,1054,o),
(954,1218,o),
(722,1218,cs),
(562,1218,o),
(412,1138,o),
(342,1016,c),
(336,1016,l),
(368,1202,l),
(320,1202,l),
(122,0,l)
);
}
);
width = 1217;
},
{
anchors = (
{
name = bottom;
pos = (1027,0);
},
{
name = top;
pos = (1211,1202);
}
);
layerId = "11F4534A-B963-4AB5-820F-DAF9A20CD933";
shapes = (
{
closed = 1;
nodes = (
(253,0,l),
(371,718,ls),
(403,912,o),
(563,1056,o),
(749,1056,cs),
(913,1056,o),
(1005,930,o),
(975,746,cs),
(851,0,l),
(1027,0,l),
(1147,726,ls),
(1197,1026,o),
(1065,1218,o),
(813,1218,cs),
(645,1218,o),
(499,1130,o),
(429,994,c),
(417,994,l),
(451,1202,l),
(275,1202,l),
(77,0,l)
);
}
);
width = 1283;
},
{
anchors = (
{
name = bottom;
pos = (1161,0);
},
{
name = top;
pos = (1345,1202);
}
);
layerId = "D0EC06BF-13F9-4C88-A6F5-B8203AF6C77E";
shapes = (
{
closed = 1;
nodes = (
(421,0,l),
(535,698,ls),
(555,816,o),
(631,890,o),
(737,890,cs),
(841,890,o),
(893,818,o),
(873,698,cs),
(759,0,l),
(1161,0,l),
(1291,782,ls),
(1333,1042,o),
(1205,1218,o),
(971,1218,cs),
(803,1218,o),
(655,1130,o),
(573,984,c),
(561,984,l),
(599,1202,l),
(217,1202,l),
(17,0,l)
);
}
);
width = 1359;
}
);
metricLeft = "=|noNu-thai";
metricRight = "=|noNu-thai";
unicode = 3607;
}
{
glyphname = "thoThong-thai";
layers = (
{
anchors = (
{
name = bottom;
pos = (852,0);
},
{
name = top;
pos = (1074,1202);
}
);
layerId = "200BE2C5-40F6-4CF4-AF4F-A33C0CC0964F";
shapes = (
{
closed = 1;
nodes = (
(560,0,ls),
(796,0,o),
(964,162,o),
(964,390,cs),
(964,540,o),
(886,632,o),
(718,676,cs),
(492,736,ls),
(368,768,o),
(308,832,o),
(308,930,cs),
(308,1076,o),
(446,1174,o),
(654,1174,cs),
(844,1174,o),
(970,1090,o),
(998,948,c),
(1042,962,l),
(1006,1126,o),
(868,1218,o),
(654,1218,cs),
(416,1218,o),
(260,1104,o),
(260,930,cs),
(260,810,o),
(334,728,o),
(476,690,cs),
(700,632,ls),
(854,592,o),
(918,520,o),
(918,388,cs),
(918,186,o),
(768,44,o),
(554,44,cs),
(190,44,l),
(210,22,l),
(296,552,l),
(250,552,l),
(160,0,l)
);
}
);
width = 1146;
},
{
anchors = (
{
name = bottom;
pos = (918,0);
},
{
name = top;
pos = (1102,1202);
}
);
layerId = "11F4534A-B963-4AB5-820F-DAF9A20CD933";
shapes = (
{
closed = 1;
nodes = (
(570,0,ls),
(844,0,o),
(998,150,o),
(1000,418,cs),
(998,574,o),
(904,680,o),
(720,726,cs),
(498,782,ls),
(408,804,o),
(364,844,o),
(366,910,cs),
(366,1012,o),
(464,1080,o),
(610,1080,cs),
(756,1080,o),
(866,1010,o),
(896,904,c),
(1060,950,l),
(1022,1128,o),
(868,1226,o),
(634,1226,cs),
(364,1226,o),
(182,1084,o),
(184,878,cs),
(182,740,o),
(260,660,o),
(434,618,cs),
(652,564,ls),
(764,536,o),
(816,482,o),
(816,390,cs),
(816,244,o),
(720,146,o),
(574,146,cs),
(194,146,l),
(258,66,l),
(334,522,l),
(158,522,l),
(72,0,l)
);
}
);
width = 1126;
},
{
anchors = (
{
name = bottom;
pos = (1038,0);
},
{
name = top;
pos = (1236,1202);
}
);
layerId = "D0EC06BF-13F9-4C88-A6F5-B8203AF6C77E";
shapes = (
{
closed = 1;
nodes = (
(638,0,ls),
(934,0,o),
(1136,174,o),
(1136,424,cs),
(1136,600,o),
(1036,714,o),
(848,754,cs),
(606,806,ls),
(538,822,o),
(508,846,o),
(508,886,cs),
(508,938,o),
(556,968,o),
(642,968,cs),
(746,968,o),
(802,924,o),
(808,830,c),
(1182,830,l),
(1170,1088,o),
(984,1226,o),
(654,1226,cs),
(316,1226,o),
(110,1084,o),
(110,846,cs),
(110,684,o),
(206,592,o),
(412,546,cs),
(642,496,ls),
(710,482,o),
(740,454,o),
(742,408,cs),
(740,334,o),
(686,290,o),
(598,290,cs),
(320,290,l),
(408,118,l),
(466,480,l),
(104,480,l),
(24,0,l)
);
}
);
width = 1218;
}
);
unicode = 3608;
}
{
glyphname = "noNu-thai";
layers = (
{
anchors = (
{
name = bottom;
pos = (910,0);
},
{
name = top;
pos = (1110,1202);
}
);
layerId = "200BE2C5-40F6-4CF4-AF4F-A33C0CC0964F";
shapes = (
{
closed = 1;
nodes = (
(668,-14,o),
(818,64,o),
(888,186,c),
(894,186,l),
(864,0,l),
(910,0,l),
(1110,1202,l),
(1064,1202,l),
(926,376,ls),
(892,174,o),
(722,30,o),
(514,30,cs),
(306,30,o),
(194,168,o),
(228,380,cs),
(366,1202,l),
(318,1202,l),
(184,388,ls),
(144,148,o),
(276,-14,o),
(508,-14,cs)
);
}
);
width = 1218;
},
{
anchors = (
{
name = bottom;
pos = (1016,0);
},
{
name = top;
pos = (1214,1202);
}
);
layerId = "11F4534A-B963-4AB5-820F-DAF9A20CD933";
shapes = (
{
closed = 1;
nodes = (
(656,-14,o),
(800,72,o),
(862,208,c),
(872,208,l),
(840,0,l),
(1016,0,l),
(1214,1202,l),
(1038,1202,l),
(922,500,ls),
(888,296,o),
(726,146,o),
(540,146,cs),
(378,146,o),
(292,272,o),
(322,458,cs),
(446,1202,l),
(270,1202,l),
(150,482,ls),
(102,184,o),
(236,-14,o),
(490,-14,cs)
);
}
);
width = 1278;
},
{
anchors = (
{
name = bottom;
pos = (1156,0);
},
{
name = top;
pos = (1356,1202);
}
);
layerId = "D0EC06BF-13F9-4C88-A6F5-B8203AF6C77E";
shapes = (
{
closed = 1;
nodes = (
(576,-14,o),
(724,76,o),
(798,220,c),
(812,220,l),
(776,0,l),
(1156,0,l),
(1356,1202,l),
(952,1202,l),
(836,504,ls),
(816,386,o),
(740,312,o),
(634,312,cs),
(530,312,o),
(478,384,o),
(498,504,cs),
(616,1202,l),
(212,1202,l),
(82,420,ls),
(38,162,o),
(172,-14,o),
(408,-14,cs)
);
}
);
width = 1360;
}
);
unicode = 3609;
}
{
glyphname = "poPla-thai";
layers = (
{
anchors = (
{
name = bottom;
pos = (896,0);
},
{
name = top;
pos = (912,1202);
}
);
layerId = "200BE2C5-40F6-4CF4-AF4F-A33C0CC0964F";
shapes = (
{
closed = 1;
nodes = (
(754,-14,o),
(930,138,o),
(970,374,cs),
(1162,1536,l),
(1116,1536,l),
(926,380,ls),
(892,168,o),
(730,30,o),
(520,30,cs),
(308,30,o),
(194,170,o),
(228,380,cs),
(366,1202,l),
(318,1202,l),
(184,392,ls),
(144,148,o),
(280,-14,o),
(522,-14,cs)
);
}
);
width = 1213;
},
{
anchors = (
{
name = bottom;
pos = (994,0);
},
{
name = top;
pos = (888,1202);
}
);
layerId = "11F4534A-B963-4AB5-820F-DAF9A20CD933";
shapes = (
{
closed = 1;
nodes = (
(834,-24,o),
(1032,132,o),
(1074,386,cs),
(1268,1566,l),
(1092,1566,l),
(904,424,ls),
(874,244,o),
(744,130,o),
(566,130,cs),
(386,130,o),
(288,246,o),
(318,424,cs),
(446,1202,l),
(270,1202,l),
(142,430,ls),
(96,156,o),
(262,-24,o),
(560,-24,cs)
);
}
);
width = 1266;
},
{
anchors = (
{
name = bottom;
pos = (1140,0);
},
{
name = top;
pos = (858,1202);
}
);
layerId = "D0EC06BF-13F9-4C88-A6F5-B8203AF6C77E";
shapes = (
{
closed = 1;
nodes = (
(954,-22,o),
(1180,152,o),
(1230,454,cs),
(1432,1676,l),
(1030,1676,l),
(832,482,ls),
(810,356,o),
(742,284,o),
(632,284,cs),
(524,284,o),
(474,356,o),
(496,482,cs),
(616,1202,l),
(212,1202,l),
(90,468,ls),
(42,176,o),
(250,-22,o),
(610,-22,cs)
);
}
);
width = 1352;
}
);
metricLeft = "boBaimai-thai";
metricRight = "boBaimai-thai";
unicode = 3611;
}
{
glyphname = "phoPhung-thai";
layers = (
{
anchors = (
{
name = bottom;
pos = (936,0);
},
{
name = top;
pos = (1134,1202);
}
);
layerId = "200BE2C5-40F6-4CF4-AF4F-A33C0CC0964F";
shapes = (
{
closed = 1;
nodes = (
(184,0,l),
(616,524,l),
(622,524,l),
(882,0,l),
(936,0,l),
(1134,1202,l),
(1088,1202,l),
(902,78,l),
(894,78,l),
(648,576,l),
(600,576,l),
(190,78,l),
(182,78,l),
(326,954,ls),
(348,1090,o),
(432,1166,o),
(558,1166,cs),
(592,1166,o),
(622,1162,o),
(644,1152,c),
(662,1192,l),
(634,1204,o),
(596,1210,o),
(558,1210,cs),
(406,1210,o),
(306,1122,o),
(280,968,cs),
(122,0,l)
);
}
);
width = 1244;
},
{
anchors = (
{
name = bottom;
pos = (1086,0);
},
{
name = top;
pos = (1286,1202);
}
);
layerId = "11F4534A-B963-4AB5-820F-DAF9A20CD933";
shapes = (
{
closed = 1;
nodes = (
(290,0,l),
(660,492,l),
(678,492,l),
(884,0,l),
(1086,0,l),
(1286,1202,l),
(1116,1202,l),
(954,234,l),
(942,234,l),
(758,668,l),
(624,668,l),
(294,234,l),
(282,234,l),
(392,888,ls),
(414,1012,o),
(468,1064,o),
(578,1064,cs),
(604,1064,o),
(628,1062,o),
(652,1054,c),
(708,1198,l),
(672,1212,o),
(630,1218,o),
(582,1218,cs),
(384,1218,o),
(260,1110,o),
(226,914,cs),
(74,0,l)
);
}
);
width = 1348;
},
{
anchors = (
{
name = bottom;
pos = (1206,0);
},
{
name = top;
pos = (1406,1202);
}
);
layerId = "D0EC06BF-13F9-4C88-A6F5-B8203AF6C77E";
shapes = (
{
closed = 1;
nodes = (
(446,0,l),
(650,280,l),
(664,280,l),
(774,0,l),
(1206,0,l),
(1406,1202,l),
(1016,1202,l),
(882,376,l),
(872,376,l),
(760,674,l),
(668,674,l),
(460,376,l),
(450,376,l),
(532,866,ls),
(540,914,o),
(568,936,o),
(618,936,cs),
(640,936,o),
(680,930,o),
(706,924,c),
(802,1182,l),
(728,1206,o),
(646,1218,o),
(568,1218,cs),
(330,1218,o),
(188,1100,o),
(152,878,cs),
(8,0,l)
);
}
);
width = 1404;
}
);
unicode = 3612;
}
{
glyphname = "phoPhan-thai";
layers = (
{
anchors = (
{
name = bottom;
pos = (1006,0);
},
{
name = top;
pos = (1236,1202);
}
);
layerId = "200BE2C5-40F6-4CF4-AF4F-A33C0CC0964F";
shapes = (
{
closed = 1;
nodes = (
(278,0,l),
(802,1124,l),
(810,1124,l),
(960,0,l),
(1006,0,l),
(1396,1202,l),
(1348,1202,l),
(998,110,l),
(986,110,l),
(842,1202,l),
(788,1202,l),
(284,110,l),
(272,110,l),
(282,1202,l),
(238,1202,l),
(228,0,l)
);
}
);
width = 1422;
},
{
anchors = (
{
name = bottom;
pos = (1106,0);
},
{
name = top;
pos = (1330,1202);
}
);
layerId = "11F4534A-B963-4AB5-820F-DAF9A20CD933";
shapes = (
{
closed = 1;
nodes = (
(416,0,l),
(822,930,l),
(840,930,l),
(936,0,l),
(1106,0,l),
(1560,1202,l),
(1384,1202,l),
(1064,312,l),
(1052,312,l),
(962,1202,l),
(780,1202,l),
(394,312,l),
(382,312,l),
(354,1202,l),
(180,1202,l),
(238,0,l)
);
}
);
width = 1528;
},
{
anchors = (
{
name = bottom;
pos = (1358,0);
},
{
name = top;
pos = (1596,1202);
}
);
layerId = "D0EC06BF-13F9-4C88-A6F5-B8203AF6C77E";
shapes = (
{
closed = 1;
nodes = (
(626,0,l),
(864,582,l),
(882,582,l),
(926,0,l),
(1358,0,l),
(1814,1202,l),
(1418,1202,l),
(1180,464,l),
(1170,464,l),
(1124,1202,l),
(840,1202,l),
(552,464,l),
(540,464,l),
(546,1202,l),
(152,1202,l),
(206,0,l)
);
}
);
width = 1754;
}
);
metricRight = "=|";
unicode = 3614;
}
{
glyphname = "foFan-thai";
layers = (
{
anchors = (
{
name = bottom;
pos = (992,0);
},
{
name = top;
pos = (1164,1202);
}
);
layerId = "200BE2C5-40F6-4CF4-AF4F-A33C0CC0964F";
shapes = (
{
closed = 1;
nodes = (
(278,0,l),
(794,1124,l),
(802,1124,l),
(946,0,l),
(992,0,l),
(1474,1536,l),
(1426,1536,l),
(982,110,l),
(970,110,l),
(834,1202,l),
(782,1202,l),
(282,110,l),
(270,110,l),
(282,1202,l),
(238,1202,l),
(228,0,l)
);
}
);
width = 1472;
},
{
anchors = (
{
name = bottom;
pos = (1100,0);
},
{
name = top;
pos = (1204,1202);
}
);
layerId = "11F4534A-B963-4AB5-820F-DAF9A20CD933";
shapes = (
{
closed = 1;
nodes = (
(386,0,l),
(802,938,l),
(820,938,l),
(930,0,l),
(1100,0,l),
(1628,1566,l),
(1456,1566,l),
(1052,330,l),
(1040,330,l),
(942,1202,l),
(760,1202,l),
(372,330,l),
(360,330,l),
(354,1202,l),
(180,1202,l),
(208,0,l)
);
}
);
width = 1480;
},
{
anchors = (
{
name = bottom;
pos = (1352,0);
},
{
name = top;
pos = (1320,1202);
}
);
layerId = "D0EC06BF-13F9-4C88-A6F5-B8203AF6C77E";
shapes = (
{
closed = 1;
nodes = (
(626,0,l),
(862,582,l),
(878,582,l),
(918,0,l),
(1352,0,l),
(1960,1676,l),
(1566,1676,l),
(1172,464,l),
(1162,464,l),
(1120,1202,l),
(838,1202,l),
(552,464,l),
(540,464,l),
(546,1202,l),
(152,1202,l),
(206,0,l)
);
}
);
width = 1776;
}
);
unicode = 3615;
}
{
glyphname = "moMa-thai";
layers = (
{
anchors = (
{
name = bottom;
pos = (898,0);
},
{
name = top;
pos = (1112,1202);
}
);
layerId = "200BE2C5-40F6-4CF4-AF4F-A33C0CC0964F";
shapes = (
{
closed = 1;
nodes = (
(758,-14,o),
(934,140,o),
(974,376,cs),
(1112,1202,l),
(1066,1202,l),
(928,380,ls),
(892,170,o),
(734,30,o),
(528,30,cs),
(320,30,o),
(196,174,o),
(230,376,cs),
(368,1202,l),
(320,1202,l),
(122,0,l),
(168,0,l),
(198,190,l),
(204,190,l),
(250,62,o),
(372,-14,o),
(530,-14,cs)
);
}
);
width = 1218;
},
{
anchors = (
{
name = bottom;
pos = (1005,0);
},
{
name = top;
pos = (1219,1202);
}
);
layerId = "11F4534A-B963-4AB5-820F-DAF9A20CD933";
shapes = (
{
closed = 1;
nodes = (
(881,-14,o),
(1045,152,o),
(1093,444,cs),
(1219,1202,l),
(1043,1202,l),
(921,472,ls),
(887,272,o),
(763,146,o),
(599,146,cs),
(417,146,o),
(303,302,o),
(335,500,cs),
(451,1202,l),
(275,1202,l),
(77,0,l),
(253,0,l),
(285,208,l),
(297,208,l),
(353,66,o),
(477,-14,o),
(639,-14,cs)
);
}
);
width = 1276;
},
{
anchors = (
{
name = bottom;
pos = (1147,0);
},
{
name = top;
pos = (1361,1202);
}
);
layerId = "D0EC06BF-13F9-4C88-A6F5-B8203AF6C77E";
shapes = (
{
closed = 1;
nodes = (
(1005,-14,o),
(1187,162,o),
(1233,432,cs),
(1361,1202,l),
(957,1202,l),
(845,516,ls),
(823,390,o),
(745,312,o),
(641,312,cs),
(535,312,o),
(483,386,o),
(503,504,cs),
(621,1202,l),
(217,1202,l),
(17,0,l),
(399,0,l),
(435,220,l),
(447,220,l),
(489,74,o),
(609,-14,o),
(773,-14,cs)
);
}
);
width = 1360;
}
);
metricLeft = "=|noNu-thai";
metricRight = "=|noNu-thai";
unicode = 3617;
}
{
glyphname = "yoYak-thai";
layers = (
{
anchors = (
{
name = bottom;
pos = (880,0);
},
{
name = top;
pos = (1094,1202);
}
);
layerId = "200BE2C5-40F6-4CF4-AF4F-A33C0CC0964F";
shapes = (
{
closed = 1;
nodes = (
(740,-14,o),
(916,136,o),
(956,374,cs),
(1094,1202,l),
(1048,1202,l),
(910,380,ls),
(876,170,o),
(716,30,o),
(506,30,cs),
(318,30,o),
(206,134,o),
(206,306,cs),
(206,504,o),
(354,670,o),
(530,670,cs),
(640,670,l),
(648,712,l),
(514,712,ls),
(382,712,o),
(304,790,o),
(302,916,cs),
(302,1068,o),
(414,1166,o),
(586,1166,cs),
(628,1166,o),
(670,1162,o),
(696,1152,c),
(716,1192,l),
(686,1204,o),
(636,1210,o),
(588,1210,cs),
(390,1210,o),
(256,1092,o),
(258,920,cs),
(258,804,o),
(320,716,o),
(424,688,c),
(422,682,l),
(272,644,o),
(158,480,o),
(158,302,cs),
(156,110,o),
(294,-14,o),
(504,-14,cs)
);
}
);
width = 1200;
},
{
anchors = (
{
name = bottom;
pos = (982,0);
},
{
name = top;
pos = (1196,1202);
}
);
layerId = "11F4534A-B963-4AB5-820F-DAF9A20CD933";
shapes = (
{
closed = 1;
nodes = (
(824,-24,o),
(1018,134,o),
(1064,410,cs),
(1196,1202,l),
(1020,1202,l),
(896,456,ls),
(862,250,o),
(730,130,o),
(536,130,cs),
(378,130,o),
(280,214,o),
(280,350,cs),
(280,494,o),
(378,596,o),
(520,596,cs),
(708,596,l),
(732,740,l),
(540,740,ls),
(420,740,o),
(352,790,o),
(352,882,cs),
(352,994,o),
(452,1064,o),
(616,1064,cs),
(654,1064,o),
(690,1060,o),
(722,1052,c),
(778,1198,l),
(734,1212,o),
(680,1218,o),
(618,1218,cs),
(354,1218,o),
(180,1088,o),
(178,890,cs),
(178,786,o),
(228,714,o),
(324,674,c),
(322,662,l),
(182,606,o),
(96,476,o),
(94,322,cs),
(96,112,o),
(262,-24,o),
(526,-24,cs)
);
}
);
width = 1253;
},
{
anchors = (
{
name = bottom;
pos = (1102,0);
},
{
name = top;
pos = (1314,1202);
}
);
layerId = "D0EC06BF-13F9-4C88-A6F5-B8203AF6C77E";
shapes = (
{
closed = 1;
nodes = (
(914,-22,o),
(1138,142,o),
(1188,446,cs),
(1314,1202,l),
(912,1202,l),
(792,476,ls),
(770,340,o),
(696,272,o),
(568,272,cs),
(472,272,o),
(418,310,o),
(418,376,cs),
(418,458,o),
(480,504,o),
(584,504,cs),
(632,504,l),
(674,754,l),
(636,754,ls),
(566,754,o),
(524,786,o),
(524,836,cs),
(524,896,o),
(568,934,o),
(636,934,cs),
(660,934,o),
(684,928,o),
(706,920,c),
(798,1186,l),
(732,1206,o),
(648,1218,o),
(568,1218,cs),
(300,1218,o),
(132,1094,o),
(130,896,cs),
(132,786,o),
(180,714,o),
(280,680,c),
(278,666,l),
(118,630,o),
(10,502,o),
(10,344,cs),
(10,122,o),
(220,-22,o),
(546,-22,cs)
);
}
);
width = 1313;
}
);
metricRight = "boBaimai-thai";
unicode = 3618;
}
{
glyphname = "roRua-thai";
layers = (
{
anchors = (
{
name = bottom;
pos = (772,0);
},
{
name = top;
pos = (978,1202);
}
);
layerId = "200BE2C5-40F6-4CF4-AF4F-A33C0CC0964F";
shapes = (
{
closed = 1;
nodes = (
(702,-14,o),
(870,132,o),
(870,334,cs),
(870,472,o),
(790,566,o),
(646,604,cs),
(466,652,ls),
(330,688,o),
(260,762,o),
(260,880,cs),
(260,1050,o),
(406,1174,o),
(608,1174,cs),
(780,1174,o),
(894,1084,o),
(916,934,c),
(964,946,l),
(930,1120,o),
(800,1218,o),
(608,1218,cs),
(378,1218,o),
(214,1076,o),
(214,880,cs),
(214,742,o),
(296,648,o),
(448,608,cs),
(626,560,ls),
(754,526,o),
(824,450,o),
(824,334,cs),
(824,158,o),
(672,30,o),
(470,30,cs),
(282,30,o),
(152,136,o),
(146,296,c),
(98,286,l),
(112,104,o),
(260,-14,o),
(470,-14,cs)
);
}
);
width = 1044;
},
{
anchors = (
{
name = bottom;
pos = (852,0);
},
{
name = top;
pos = (1066,1202);
}
);
layerId = "11F4534A-B963-4AB5-820F-DAF9A20CD933";
shapes = (
{
closed = 1;
nodes = (
(754,-24,o),
(940,134,o),
(942,366,cs),
(942,520,o),
(860,622,o),
(702,662,cs),
(512,712,ls),
(406,738,o),
(352,796,o),
(352,884,cs),
(350,1000,o),
(450,1080,o),
(596,1080,cs),
(730,1080,o),
(832,1014,o),
(866,904,c),
(1030,950,l),
(980,1124,o),
(824,1226,o),
(608,1226,cs),
(352,1226,o),
(174,1078,o),
(174,864,cs),
(174,710,o),
(264,600,o),
(422,560,cs),
(602,514,ls),
(706,488,o),
(760,428,o),
(760,338,cs),
(758,212,o),
(652,130,o),
(482,130,cs),
(336,130,o),
(254,192,o),
(234,318,c),
(62,274,l),
(92,84,o),
(244,-24,o),
(476,-24,cs)
);
}
);
width = 1076;
},
{
anchors = (
{
name = bottom;
pos = (964,0);
},
{
name = top;
pos = (1208,1202);
}
);
layerId = "D0EC06BF-13F9-4C88-A6F5-B8203AF6C77E";
shapes = (
{
closed = 1;
nodes = (
(880,-22,o),
(1090,146,o),
(1090,408,cs),
(1092,584,o),
(996,688,o),
(804,726,cs),
(604,764,ls),
(552,774,o),
(526,798,o),
(526,840,cs),
(526,898,o),
(578,940,o),
(650,940,cs),
(728,940,o),
(768,894,o),
(760,814,c),
(1134,814,l),
(1152,1070,o),
(970,1226,o),
(658,1226,cs),
(336,1226,o),
(122,1056,o),
(122,802,cs),
(122,632,o),
(216,522,o),
(398,482,cs),
(580,440,ls),
(648,426,o),
(680,400,o),
(680,354,cs),
(680,300,o),
(638,266,o),
(568,266,cs),
(484,266,o),
(426,316,o),
(426,390,c),
(30,390,l),
(38,132,o),
(230,-22,o),
(550,-22,cs)
);
}
);
width = 1172;
}
);
unicode = 3619;
}
{
glyphname = "loLing-thai";
layers = (
{
anchors = (
{
name = bottom;
pos = (846,0);
},
{
name = top;
pos = (1030,1202);
}
);
layerId = "200BE2C5-40F6-4CF4-AF4F-A33C0CC0964F";
shapes = (
{
closed = 1;
nodes = (
(498,-24,o),
(548,-16,o),
(596,-2,c),
(594,42,l),
(550,28,o),
(498,20,o),
(440,20,cs),
(242,20,o),
(140,104,o),
(140,262,cs),
(140,456,o),
(300,580,o),
(594,612,cs),
(766,630,o),
(856,654,o),
(912,690,c),
(798,0,l),
(846,0,l),
(984,842,ls),
(1020,1062,o),
(884,1218,o),
(654,1218,cs),
(462,1218,o),
(294,1106,o),
(222,932,c),
(264,918,l),
(332,1076,o),
(482,1174,o),
(654,1174,cs),
(856,1174,o),
(974,1036,o),
(938,842,cs),
(926,780,ls),
(914,712,o),
(832,680,o),
(594,656,cs),
(266,622,o),
(92,484,o),
(92,262,cs),
(92,78,o),
(216,-24,o),
(440,-24,cs)
);
}
);
width = 1154;
},
{
anchors = (
{
name = bottom;
pos = (944,0);
},
{
name = top;
pos = (1128,1202);
}
);
layerId = "11F4534A-B963-4AB5-820F-DAF9A20CD933";
shapes = (
{
closed = 1;
nodes = (
(514,-20,o),
(574,-12,o),
(614,4,c),
(610,152,l),
(572,140,o),
(534,134,o),
(484,134,cs),
(326,134,o),
(250,190,o),
(250,304,cs),
(248,434,o),
(356,512,o),
(568,536,cs),
(752,556,o),
(818,570,o),
(866,598,c),
(768,0,l),
(944,0,l),
(1084,840,ls),
(1124,1080,o),
(962,1226,o),
(686,1226,cs),
(458,1226,o),
(282,1120,o),
(200,946,c),
(354,888,l),
(416,1002,o),
(542,1072,o),
(686,1072,cs),
(852,1072,o),
(928,984,o),
(904,830,cs),
(900,802,ls),
(888,726,o),
(824,702,o),
(580,678,cs),
(242,644,o),
(66,512,o),
(68,290,cs),
(68,92,o),
(206,-20,o),
(448,-20,cs)
);
}
);
width = 1200;
},
{
anchors = (
{
name = bottom;
pos = (1102,0);
},
{
name = top;
pos = (1288,1202);
}
);
layerId = "D0EC06BF-13F9-4C88-A6F5-B8203AF6C77E";
shapes = (
{
closed = 1;
nodes = (
(462,-14,o),
(528,-6,o),
(602,14,c),
(648,286,l),
(618,272,o),
(576,264,o),
(538,264,cs),
(460,264,o),
(418,298,o),
(418,360,cs),
(418,432,o),
(474,470,o),
(600,488,cs),
(676,500,o),
(744,516,o),
(800,534,c),
(710,0,l),
(1102,0,l),
(1234,798,ls),
(1276,1052,o),
(1064,1226,o),
(720,1226,cs),
(402,1226,o),
(178,1074,o),
(126,820,c),
(520,820,l),
(544,900,o),
(610,944,o),
(712,944,cs),
(800,944,o),
(852,910,o),
(852,854,cs),
(852,850,ls),
(852,768,o),
(766,736,o),
(540,722,cs),
(210,704,o),
(12,542,o),
(12,300,cs),
(12,98,o),
(148,-14,o),
(392,-14,cs)
);
}
);
width = 1300;
}
);
unicode = 3621;
}
{
glyphname = "lu-thai";
layers = (
{
anchors = (
{
name = bottom;
pos = (872,-338);
},
{
name = top;
pos = (1112,1202);
}
);
layerId = "200BE2C5-40F6-4CF4-AF4F-A33C0CC0964F";
shapes = (
{
closed = 1;
nodes = (
(872,-338,l),
(1060,804,ls),
(1102,1054,o),
(960,1218,o),
(698,1218,cs),
(434,1218,o),
(240,1062,o),
(200,822,cs),
(194,784,l),
(406,760,l),
(404,754,l),
(316,726,o),
(264,650,o),
(242,518,cs),
(184,174,ls),
(170,92,o),
(124,44,o),
(56,44,cs),
(-16,44,l),
(-24,0,l),
(52,0,ls),
(148,0,o),
(212,62,o),
(230,166,cs),
(288,516,ls),
(316,684,o),
(404,760,o),
(550,744,cs),
(570,742,l),
(576,782,l),
(224,822,l),
(240,788,l),
(246,816,ls),
(280,1034,o),
(456,1174,o),
(696,1174,cs),
(930,1174,o),
(1054,1036,o),
(1016,814,cs),
(824,-338,l)
);
}
);
width = 1231;
},
{
anchors = (
{
name = bottom;
pos = (954,-482);
},
{
name = top;
pos = (1220,1202);
}
);
layerId = "11F4534A-B963-4AB5-820F-DAF9A20CD933";
shapes = (
{
closed = 1;
nodes = (
(954,-482,l),
(1160,754,ls),
(1208,1040,o),
(1034,1226,o),
(728,1226,cs),
(428,1226,o),
(222,1054,o),
(172,780,cs),
(160,718,l),
(366,688,l),
(364,676,l),
(262,648,o),
(196,558,o),
(172,420,cs),
(148,290,ls),
(132,200,o),
(84,154,o),
(2,154,cs),
(-30,154,l),
(-56,0,l),
(-2,0,ls),
(182,0,o),
(284,82,o),
(314,248,cs),
(348,440,ls),
(374,592,o),
(440,674,o),
(528,658,cs),
(584,648,l),
(606,786,l),
(306,832,l),
(334,718,l),
(340,760,ls),
(374,950,o),
(516,1072,o),
(714,1072,cs),
(908,1072,o),
(1014,944,o),
(984,766,cs),
(778,-482,l)
);
}
);
width = 1292;
},
{
anchors = (
{
name = bottom;
pos = (1082,-482);
},
{
name = top;
pos = (1328,1202);
}
);
layerId = "D0EC06BF-13F9-4C88-A6F5-B8203AF6C77E";
shapes = (
{
closed = 1;
nodes = (
(1082,-482,l),
(1286,746,ls),
(1336,1050,o),
(1136,1226,o),
(754,1226,cs),
(384,1226,o),
(168,1058,o),
(114,734,cs),
(102,654,l),
(344,654,l),
(344,642,l),
(230,606,o),
(162,530,o),
(142,410,cs),
(134,366,ls),
(126,318,o),
(98,296,o),
(48,296,cs),
(-4,296,l),
(-54,0,l),
(118,0,ls),
(348,0,o),
(474,96,o),
(506,292,cs),
(530,434,ls),
(540,496,o),
(576,528,o),
(638,528,cs),
(658,528,l),
(696,746,l),
(418,746,l),
(498,676,l),
(506,734,ls),
(524,862,o),
(602,928,o),
(728,928,cs),
(846,928,o),
(904,870,o),
(886,764,cs),
(680,-482,l)
);
}
);
width = 1358;
}
);
metricLeft = "phoSamphao-thai";
metricRight = "phoSamphao-thai";
unicode = 3622;
}
{
glyphname = "woWaen-thai";
layers = (
{
anchors = (
{
name = bottom;
pos = (794,0);
},
{
name = top;
pos = (1038,1202);
}
);
layerId = "200BE2C5-40F6-4CF4-AF4F-A33C0CC0964F";
shapes = (
{
closed = 1;
nodes = (
(764,-14,o),
(992,326,o),
(992,792,cs),
(992,1062,o),
(858,1218,o),
(632,1218,cs),
(416,1218,o),
(242,1074,o),
(178,844,c),
(226,844,l),
(286,1048,o),
(440,1174,o),
(628,1174,cs),
(830,1174,o),
(944,1038,o),
(944,792,cs),
(944,354,o),
(734,30,o),
(454,30,cs),
(260,30,o),
(138,160,o),
(146,360,c),
(98,360,l),
(92,136,o),
(236,-14,o),
(454,-14,cs)
);
}
);
width = 1098;
},
{
anchors = (
{
name = bottom;
pos = (918,0);
},
{
name = top;
pos = (1146,1202);
}
);
layerId = "11F4534A-B963-4AB5-820F-DAF9A20CD933";
shapes = (
{
closed = 1;
nodes = (
(864,-24,o),
(1118,298,o),
(1118,754,cs),
(1118,1050,o),
(956,1226,o),
(686,1226,cs),
(422,1226,o),
(208,1060,o),
(146,804,c),
(322,804,l),
(372,966,o),
(508,1072,o),
(666,1072,cs),
(838,1072,o),
(938,946,o),
(938,728,cs),
(936,394,o),
(748,130,o),
(506,130,cs),
(354,130,o),
(260,228,o),
(258,382,c),
(82,382,l),
(82,138,o),
(248,-24,o),
(504,-24,cs)
);
}
);
width = 1208;
},
{
anchors = (
{
name = bottom;
pos = (1062,0);
},
{
name = top;
pos = (1262,1202);
}
);
layerId = "D0EC06BF-13F9-4C88-A6F5-B8203AF6C77E";
shapes = (
{
closed = 1;
nodes = (
(938,-22,o),
(1204,278,o),
(1202,700,cs),
(1202,1036,o),
(1012,1226,o),
(680,1226,cs),
(354,1226,o),
(136,1036,o),
(82,706,c),
(456,706,l),
(488,836,o),
(558,910,o),
(648,910,cs),
(742,910,o),
(790,832,o),
(788,680,cs),
(790,458,o),
(698,302,o),
(568,302,cs),
(470,302,o),
(410,384,o),
(424,504,c),
(50,504,l),
(10,198,o),
(224,-22,o),
(564,-22,cs)
);
}
);
width = 1240;
}
);
unicode = 3623;
}
{
glyphname = "soSala-thai";
layers = (
{
anchors = (
{
name = bottom;
pos = (936,0);
},
{
name = top;
pos = (1122,1202);
}
);
layerId = "200BE2C5-40F6-4CF4-AF4F-A33C0CC0964F";
shapes = (
{
closed = 1;
nodes = (
(166,0,l),
(206,242,ls),
(240,458,o),
(416,620,o),
(614,620,cs),
(646,620,o),
(674,616,o),
(702,608,c),
(710,654,l),
(682,662,o),
(652,666,o),
(618,666,cs),
(464,666,o),
(320,576,o),
(242,430,c),
(238,430,l),
(302,824,ls),
(336,1036,o),
(500,1174,o),
(718,1174,cs),
(940,1174,o),
(1060,1036,o),
(1026,824,cs),
(890,0,l),
(936,0,l),
(1072,816,ls),
(1094,942,o),
(1062,1052,o),
(988,1124,c),
(1006,1106,l),
(944,1178,o),
(842,1218,o),
(720,1218,cs),
(480,1218,o),
(296,1064,o),
(258,836,cs),
(120,0,l)
);
},
{
closed = 1;
nodes = (
(1260,1304,l),
(1198,1304,l),
(976,1122,l),
(996,1086,l)
);
}
);
width = 1240;
},
{
anchors = (
{
name = bottom;
pos = (1040,0);
},
{
name = top;
pos = (1224,1202);
}
);
layerId = "11F4534A-B963-4AB5-820F-DAF9A20CD933";
shapes = (
{
closed = 1;
nodes = (
(248,0,l),
(282,210,ls),
(308,370,o),
(450,486,o),
(620,486,cs),
(654,486,o),
(688,482,o),
(712,474,c),
(740,644,l),
(722,652,o),
(694,654,o),
(662,654,cs),
(522,654,o),
(392,582,o),
(328,462,c),
(318,462,l),
(368,770,ls),
(398,956,o),
(534,1072,o),
(722,1072,cs),
(912,1072,o),
(1022,950,o),
(990,760,cs),
(864,0,l),
(1040,0,l),
(1170,778,ls),
(1196,936,o),
(1140,1054,o),
(1026,1098,c),
(1094,1028,l),
(1046,1158,o),
(916,1226,o),
(740,1226,cs),
(454,1226,o),
(248,1064,o),
(206,808,cs),
(72,0,l)
);
},
{
closed = 1;
nodes = (
(1378,1270,l),
(1180,1270,l),
(962,1066,l),
(1096,1008,l)
);
}
);
width = 1304;
},
{
anchors = (
{
name = bottom;
pos = (1214,0);
},
{
name = top;
pos = (1398,1202);
}
);
layerId = "D0EC06BF-13F9-4C88-A6F5-B8203AF6C77E";
shapes = (
{
closed = 1;
nodes = (
(404,0,l),
(428,146,ls),
(450,276,o),
(544,358,o),
(674,358,cs),
(712,358,o),
(754,352,o),
(786,338,c),
(844,680,l),
(812,690,o),
(782,696,o),
(752,696,cs),
(634,696,o),
(538,616,o),
(478,468,c),
(466,468,l),
(508,712,ls),
(532,858,o),
(612,928,o),
(756,928,cs),
(900,928,o),
(958,856,o),
(934,712,cs),
(816,0,l),
(1214,0,l),
(1332,708,ls),
(1362,890,o),
(1282,1012,o),
(1112,1046,c),
(1234,974,l),
(1146,1144,o),
(982,1226,o),
(738,1226,cs),
(388,1226,o),
(186,1054,o),
(128,702,cs),
(14,0,l)
);
},
{
closed = 1;
nodes = (
(1582,1262,l),
(1252,1262,l),
(1064,1054,l),
(1234,850,l)
);
}
);
width = 1428;
}
);
unicode = 3624;
}
{
glyphname = "soRusi-thai";
layers = (
{
anchors = (
{
name = bottom;
pos = (896,0);
},
{
name = top;
pos = (1110,1202);
}
);
layerId = "200BE2C5-40F6-4CF4-AF4F-A33C0CC0964F";
shapes = (
{
closed = 1;
nodes = (
(756,-14,o),
(932,138,o),
(972,374,cs),
(1110,1202,l),
(1064,1202,l),
(978,684,l),
(974,670,l),
(926,380,ls),
(892,168,o),
(730,30,o),
(520,30,cs),
(308,30,o),
(194,170,o),
(228,380,cs),
(366,1202,l),
(318,1202,l),
(184,392,ls),
(144,148,o),
(280,-14,o),
(522,-14,cs)
);
},
{
closed = 1;
nodes = (
(1224,654,l),
(1230,696,l),
(642,696,l),
(634,654,l)
);
}
);
width = 1234;
},
{
anchors = (
{
name = bottom;
pos = (1016,0);
},
{
name = top;
pos = (1230,1202);
}
);
layerId = "11F4534A-B963-4AB5-820F-DAF9A20CD933";
shapes = (
{
closed = 1;
nodes = (
(854,-24,o),
(1054,132,o),
(1096,386,cs),
(1230,1202,l),
(1054,1202,l),
(968,686,l),
(964,660,l),
(926,424,ls),
(896,242,o),
(762,130,o),
(576,130,cs),
(386,130,o),
(288,246,o),
(318,424,cs),
(446,1202,l),
(270,1202,l),
(142,430,ls),
(96,156,o),
(264,-24,o),
(570,-24,cs)
);
},
{
closed = 1;
nodes = (
(1290,594,l),
(1314,742,l),
(664,742,l),
(638,594,l)
);
}
);
width = 1308;
},
{
anchors = (
{
name = bottom;
pos = (1156,0);
},
{
name = top;
pos = (1370,1202);
}
);
layerId = "D0EC06BF-13F9-4C88-A6F5-B8203AF6C77E";
shapes = (
{
closed = 1;
nodes = (
(966,-22,o),
(1196,154,o),
(1246,460,cs),
(1370,1202,l),
(974,1202,l),
(888,690,l),
(898,660,l),
(866,466,ls),
(844,338,o),
(768,270,o),
(648,270,cs),
(528,270,o),
(472,338,o),
(494,466,cs),
(616,1202,l),
(212,1202,l),
(92,476,ls),
(42,180,o),
(254,-22,o),
(618,-22,cs)
);
},
{
closed = 1;
nodes = (
(1410,574,l),
(1458,864,l),
(722,864,l),
(672,574,l)
);
}
);
width = 1426;
}
);
unicode = 3625;
}
{
glyphname = "hoHip-thai";
layers = (
{
anchors = (
{
name = bottom;
pos = (900,0);
},
{
name = top;
pos = (1100,1202);
}
);
layerId = "200BE2C5-40F6-4CF4-AF4F-A33C0CC0964F";
shapes = (
{
closed = 1;
nodes = (
(900,0,l),
(988,538,ls),
(1028,778,o),
(900,940,o),
(668,940,cs),
(512,940,o),
(374,864,o),
(296,738,c),
(278,738,l),
(258,550,l),
(292,754,o),
(458,896,o),
(664,896,cs),
(868,896,o),
(978,758,o),
(944,546,cs),
(854,0,l)
);
},
{
closed = 1;
nodes = (
(168,0,l),
(280,682,l),
(284,706,l),
(368,1202,l),
(320,1202,l),
(122,0,l)
);
},
{
closed = 1;
nodes = (
(614,908,l),
(668,1060,o),
(810,1164,o),
(966,1164,cs),
(1010,1164,o),
(1050,1156,o),
(1084,1140,c),
(1104,1182,l),
(1068,1200,o),
(1022,1208,o),
(972,1208,cs),
(784,1208,o),
(624,1088,o),
(572,908,c)
);
}
);
width = 1186;
},
{
anchors = (
{
name = bottom;
pos = (1005,0);
},
{
name = top;
pos = (1203,1202);
}
);
layerId = "11F4534A-B963-4AB5-820F-DAF9A20CD933";
shapes = (
{
closed = 1;
nodes = (
(1005,0,l),
(1085,494,ls),
(1127,752,o),
(997,920,o),
(749,920,cs),
(603,920,o),
(471,862,o),
(385,758,c),
(331,758,l),
(327,454,l),
(359,644,o),
(511,780,o),
(691,780,cs),
(853,780,o),
(941,670,o),
(911,496,cs),
(829,0,l)
);
},
{
closed = 1;
nodes = (
(253,0,l),
(361,666,l),
(371,740,l),
(449,1202,l),
(275,1202,l),
(77,0,l)
);
},
{
closed = 1;
nodes = (
(801,860,l),
(835,1012,o),
(925,1070,o),
(1053,1070,cs),
(1093,1070,o),
(1129,1066,o),
(1161,1052,c),
(1217,1190,l),
(1167,1208,o),
(1111,1218,o),
(1049,1218,cs),
(845,1218,o),
(713,1104,o),
(627,860,c)
);
}
);
width = 1261;
},
{
anchors = (
{
name = bottom;
pos = (1135,0);
},
{
name = top;
pos = (1335,1202);
}
);
layerId = "D0EC06BF-13F9-4C88-A6F5-B8203AF6C77E";
shapes = (
{
closed = 1;
nodes = (
(1135,0,l),
(1211,456,ls),
(1263,766,o),
(1081,854,o),
(881,854,cs),
(751,854,o),
(627,818,o),
(561,762,c),
(515,762,l),
(487,408,l),
(505,518,o),
(573,582,o),
(673,582,cs),
(773,582,o),
(821,514,o),
(803,404,cs),
(737,0,l)
);
},
{
closed = 1;
nodes = (
(421,0,l),
(517,584,l),
(537,738,l),
(615,1202,l),
(217,1202,l),
(17,0,l)
);
},
{
closed = 1;
nodes = (
(983,766,l),
(999,880,o),
(1049,920,o),
(1133,920,cs),
(1163,920,o),
(1205,912,o),
(1233,904,c),
(1339,1186,l),
(1277,1206,o),
(1201,1218,o),
(1131,1218,cs),
(915,1218,o),
(737,1112,o),
(651,766,c)
);
}
);
width = 1321;
}
);
metricLeft = "=|noNu-thai";
unicode = 3627;
}
{
glyphname = "loChula-thai";
layers = (
{
anchors = (
{
name = bottom;
pos = (994,0);
}
);
layerId = "200BE2C5-40F6-4CF4-AF4F-A33C0CC0964F";
shapes = (
{
closed = 1;
nodes = (
(262,0,l),
(752,910,l),
(760,910,l),
(948,0,l),
(994,0,l),
(1286,930,ls),
(1328,1066,o),
(1288,1176,o),
(1184,1208,c),
(1186,1214,l),
(1280,1234,o),
(1340,1284,o),
(1374,1372,cs),
(1442,1536,l),
(1394,1536,l),
(1334,1386,ls),
(1294,1288,o),
(1206,1230,o),
(1098,1230,cs),
(780,1230,l),
(774,1188,l),
(1090,1188,ls),
(1228,1188,o),
(1292,1090,o),
(1246,944,cs),
(984,106,l),
(972,106,l),
(792,970,l),
(736,970,l),
(270,106,l),
(258,106,l),
(284,1202,l),
(238,1202,l),
(214,0,l)
);
}
);
width = 1382;
},
{
anchors = (
{
name = bottom;
pos = (1122,0);
}
);
layerId = "11F4534A-B963-4AB5-820F-DAF9A20CD933";
shapes = (
{
closed = 1;
nodes = (
(370,0,l),
(774,736,l),
(792,736,l),
(958,0,l),
(1122,0,l),
(1412,1042,ls),
(1442,1140,o),
(1426,1208,o),
(1376,1242,c),
(1376,1250,l),
(1472,1280,o),
(1548,1352,o),
(1584,1446,cs),
(1628,1566,l),
(1456,1566,l),
(1410,1444,ls),
(1380,1358,o),
(1312,1314,o),
(1210,1314,cs),
(760,1314,l),
(738,1174,l),
(1134,1174,ls),
(1234,1174,o),
(1270,1134,o),
(1244,1042,cs),
(1046,292,l),
(1034,292,l),
(902,942,l),
(712,942,l),
(366,296,l),
(354,296,l),
(376,1202,l),
(202,1202,l),
(186,0,l)
);
}
);
width = 1490;
},
{
anchors = (
{
name = bottom;
pos = (1336,0);
}
);
layerId = "D0EC06BF-13F9-4C88-A6F5-B8203AF6C77E";
shapes = (
{
closed = 1;
nodes = (
(590,0,l),
(828,488,l),
(844,488,l),
(918,0,l),
(1336,0,l),
(1666,982,ls),
(1712,1116,o),
(1696,1190,o),
(1612,1240,c),
(1614,1250,l),
(1744,1288,o),
(1812,1358,o),
(1868,1508,cs),
(1928,1676,l),
(1540,1676,l),
(1480,1506,ls),
(1448,1412,o),
(1378,1368,o),
(1274,1368,cs),
(856,1368,l),
(808,1072,l),
(1172,1072,ls),
(1280,1072,o),
(1318,1026,o),
(1288,930,cs),
(1134,406,l),
(1122,406,l),
(1038,862,l),
(754,862,l),
(520,406,l),
(510,406,l),
(546,1202,l),
(152,1202,l),
(170,0,l)
);
}
);
width = 1698;
}
);
unicode = 3628;
}
{
glyphname = "oAng-thai";
kernLeft = "oAng-thai";
layers = (
{
anchors = (
{
name = bottom;
pos = (916,0);
},
{
name = top;
pos = (1116,1202);
}
);
layerId = "200BE2C5-40F6-4CF4-AF4F-A33C0CC0964F";
shapes = (
{
closed = 1;
nodes = (
(816,-14,o),
(1070,328,o),
(1070,768,cs),
(1070,1048,o),
(922,1218,o),
(676,1218,cs),
(440,1218,o),
(246,1072,o),
(178,844,c),
(226,844,l),
(296,1048,o),
(468,1174,o),
(674,1174,cs),
(896,1174,o),
(1022,1028,o),
(1022,770,cs),
(1022,356,o),
(786,30,o),
(490,30,cs),
(242,30,o),
(126,240,o),
(184,584,c),
(162,580,l),
(594,580,l),
(600,624,l),
(142,624,l),
(136,584,ls),
(78,214,o),
(212,-14,o),
(490,-14,cs)
);
}
);
width = 1176;
},
{
anchors = (
{
name = bottom;
pos = (998,0);
},
{
name = top;
pos = (1226,1202);
}
);
layerId = "11F4534A-B963-4AB5-820F-DAF9A20CD933";
shapes = (
{
closed = 1;
nodes = (
(934,-24,o),
(1198,296,o),
(1200,758,cs),
(1198,1054,o),
(1028,1226,o),
(732,1226,cs),
(456,1226,o),
(236,1068,o),
(162,818,c),
(338,818,l),
(392,972,o),
(532,1070,o),
(706,1070,cs),
(906,1070,o),
(1016,950,o),
(1018,728,cs),
(1018,382,o),
(822,134,o),
(550,134,cs),
(330,134,o),
(236,280,o),
(282,554,c),
(220,500,l),
(634,500,l),
(658,646,l),
(126,646,l),
(110,548,ls),
(52,194,o),
(220,-24,o),
(552,-24,cs)
);
}
);
width = 1288;
},
{
anchors = (
{
name = bottom;
pos = (1092,0);
},
{
name = top;
pos = (1336,1202);
}
);
layerId = "D0EC06BF-13F9-4C88-A6F5-B8203AF6C77E";
shapes = (
{
closed = 1;
nodes = (
(1012,-22,o),
(1294,270,o),
(1292,692,cs),
(1292,1028,o),
(1088,1226,o),
(742,1226,cs),
(420,1226,o),
(164,1048,o),
(114,790,c),
(514,790,l),
(550,878,o),
(618,924,o),
(708,924,cs),
(824,924,o),
(880,846,o),
(878,682,cs),
(880,444,o),
(766,278,o),
(602,278,cs),
(490,278,o),
(428,342,o),
(434,456,c),
(408,436,l),
(640,436,l),
(682,684,l),
(84,684,l),
(68,556,ls),
(24,202,o),
(232,-22,o),
(606,-22,cs)
);
}
);
width = 1330;
}
);
unicode = 3629;
}
{
glyphname = "hoNokhuk-thai";
kernLeft = "oAng-thai";
layers = (
{
anchors = (
{
name = bottom;
pos = (916,0);
},
{
name = top;
pos = (1116,1202);
}
);
layerId = "200BE2C5-40F6-4CF4-AF4F-A33C0CC0964F";
shapes = (
{
closed = 1;
nodes = (
(816,-14,o),
(1070,328,o),
(1070,768,cs),
(1070,904,o),
(1036,1014,o),
(970,1092,c),
(986,1072,l),
(916,1168,o),
(810,1218,o),
(676,1218,cs),
(440,1218,o),
(246,1072,o),
(178,844,c),
(226,844,l),
(296,1048,o),
(468,1174,o),
(674,1174,cs),
(896,1174,o),
(1022,1028,o),
(1022,770,cs),
(1022,356,o),
(786,30,o),
(490,30,cs),
(242,30,o),
(126,240,o),
(184,584,c),
(162,580,l),
(594,580,l),
(600,624,l),
(142,624,l),
(136,584,ls),
(78,214,o),
(212,-14,o),
(490,-14,cs)
);
},
{
closed = 1;
nodes = (
(1276,1304,l),
(1214,1304,l),
(960,1096,l),
(978,1058,l)
);
}
);
width = 1198;
},
{
anchors = (
{
name = bottom;
pos = (998,0);
},
{
name = top;
pos = (1224,1202);
}
);
layerId = "11F4534A-B963-4AB5-820F-DAF9A20CD933";
shapes = (
{
closed = 1;
nodes = (
(932,-24,o),
(1198,294,o),
(1200,750,cs),
(1198,934,o),
(1136,1060,o),
(1006,1118,c),
(1074,1052,l),
(1012,1168,o),
(894,1226,o),
(726,1226,cs),
(454,1226,o),
(234,1066,o),
(162,818,c),
(338,818,l),
(392,972,o),
(532,1070,o),
(706,1070,cs),
(906,1070,o),
(1016,950,o),
(1018,728,cs),
(1018,382,o),
(822,134,o),
(550,134,cs),
(330,134,o),
(236,280,o),
(282,554,c),
(220,500,l),
(634,500,l),
(658,646,l),
(126,646,l),
(110,548,ls),
(52,194,o),
(220,-24,o),
(552,-24,cs)
);
},
{
closed = 1;
nodes = (
(1346,1284,l),
(1134,1284,l),
(916,1080,l),
(1064,1022,l)
);
}
);
width = 1296;
},
{
anchors = (
{
name = bottom;
pos = (1092,0);
},
{
name = top;
pos = (1336,1202);
}
);
layerId = "D0EC06BF-13F9-4C88-A6F5-B8203AF6C77E";
shapes = (
{
closed = 1;
nodes = (
(1004,-22,o),
(1292,266,o),
(1292,664,cs),
(1294,866,o),
(1214,1000,o),
(1062,1054,c),
(1156,974,l),
(1112,1128,o),
(938,1226,o),
(712,1226,cs),
(412,1226,o),
(170,1050,o),
(114,790,c),
(514,790,l),
(550,878,o),
(620,924,o),
(708,924,cs),
(824,926,o),
(880,846,o),
(878,682,cs),
(880,444,o),
(766,278,o),
(602,278,cs),
(490,278,o),
(428,342,o),
(434,456,c),
(408,436,l),
(640,436,l),
(682,684,l),
(84,684,l),
(68,556,ls),
(24,202,o),
(234,-22,o),
(606,-22,cs)
);
},
{
closed = 1;
nodes = (
(1496,1262,l),
(1154,1262,l),
(964,1054,l),
(1150,850,l)
);
}
);
width = 1336;
}
);
metricLeft = "oAng-thai";
unicode = 3630;
}
{
glyphname = "paiyannoi-thai";
layers = (
{
layerId = "200BE2C5-40F6-4CF4-AF4F-A33C0CC0964F";
shapes = (
{
closed = 1;
nodes = (
(656,596,o),
(810,700,o),
(876,868,c),
(904,868,l),
(940,1086,l),
(916,1086,l),
(872,822,o),
(698,640,o),
(482,640,cs),
(334,640,o),
(240,730,o),
(240,874,cs),
(240,1044,o),
(356,1166,o),
(520,1166,cs),
(560,1166,o),
(602,1160,o),
(632,1146,c),
(646,1190,l),
(612,1204,o),
(566,1210,o),
(522,1210,cs),
(330,1210,o),
(194,1070,o),
(192,874,cs),
(194,708,o),
(308,596,o),
(482,596,cs)
);
},
{
closed = 1;
nodes = (
(782,0,l),
(982,1202,l),
(936,1202,l),
(736,0,l)
);
}
);
width = 1092;
},
{
layerId = "11F4534A-B963-4AB5-820F-DAF9A20CD933";
shapes = (
{
closed = 1;
nodes = (
(588,560,o),
(712,626,o),
(788,736,c),
(874,736,l),
(918,996,l),
(844,996,l),
(818,836,o),
(676,714,o),
(516,714,cs),
(402,714,o),
(334,774,o),
(334,870,cs),
(334,984,o),
(424,1070,o),
(538,1070,cs),
(568,1070,o),
(596,1066,o),
(626,1054,c),
(674,1192,l),
(628,1208,o),
(580,1218,o),
(530,1218,cs),
(314,1218,o),
(156,1066,o),
(156,858,cs),
(156,680,o),
(276,560,o),
(456,560,cs)
);
},
{
closed = 1;
nodes = (
(854,0,l),
(1054,1202,l),
(878,1202,l),
(678,0,l)
);
}
);
width = 1128;
},
{
layerId = "D0EC06BF-13F9-4C88-A6F5-B8203AF6C77E";
shapes = (
{
closed = 1;
nodes = (
(578,344,o),
(698,414,o),
(760,542,c),
(832,542,l),
(890,882,l),
(830,882,l),
(810,756,o),
(716,668,o),
(606,668,cs),
(526,668,o),
(478,714,o),
(478,786,cs),
(478,870,o),
(548,930,o),
(642,930,cs),
(672,930,o),
(700,924,o),
(718,914,c),
(764,1196,l),
(712,1210,o),
(652,1218,o),
(590,1218,cs),
(278,1218,o),
(64,1018,o),
(64,722,cs),
(64,490,o),
(204,344,o),
(426,344,cs)
);
},
{
closed = 1;
nodes = (
(1086,0,l),
(1286,1202,l),
(882,1202,l),
(684,0,l)
);
}
);
width = 1284;
}
);
unicode = 3631;
}
{
glyphname = "saraA-thai";
layers = (
{
layerId = "200BE2C5-40F6-4CF4-AF4F-A33C0CC0964F";
shapes = (
{
closed = 1;
nodes = (
(678,874,l),
(686,916,l),
(370,916,ls),
(276,916,o),
(244,954,o),
(258,1048,cs),
(268,1106,l),
(222,1106,l),
(214,1054,ls),
(196,934,o),
(246,874,o),
(370,874,cs)
);
},
{
closed = 1;
nodes = (
(558,146,l),
(564,190,l),
(252,190,ls),
(156,190,o),
(124,228,o),
(138,322,cs),
(146,378,l),
(102,378,l),
(94,326,ls),
(76,206,o),
(128,146,o),
(252,146,cs)
);
}
);
width = 728;
},
{
layerId = "11F4534A-B963-4AB5-820F-DAF9A20CD933";
shapes = (
{
closed = 1;
nodes = (
(666,770,l),
(690,912,l),
(450,912,ls),
(376,912,o),
(344,950,o),
(356,1022,cs),
(372,1112,l),
(202,1112,l),
(184,988,ls),
(160,854,o),
(240,770,o),
(386,770,cs)
);
},
{
closed = 1;
nodes = (
(558,114,l),
(584,258,l),
(344,258,ls),
(268,258,o),
(234,294,o),
(248,366,cs),
(264,456,l),
(94,456,l),
(76,334,ls),
(54,200,o),
(132,114,o),
(278,114,cs)
);
}
);
width = 720;
},
{
layerId = "D0EC06BF-13F9-4C88-A6F5-B8203AF6C77E";
shapes = (
{
closed = 1;
nodes = (
(724,704,l),
(772,992,l),
(568,992,ls),
(524,992,o),
(504,1016,o),
(512,1058,cs),
(526,1148,l),
(182,1148,l),
(154,984,ls),
(124,794,o),
(204,704,o),
(402,704,cs)
);
},
{
closed = 1;
nodes = (
(616,50,l),
(664,338,l),
(462,338,ls),
(418,338,o),
(396,360,o),
(402,402,cs),
(418,494,l),
(74,494,l),
(46,328,ls),
(16,138,o),
(94,50,o),
(292,50,cs)
);
}
);
width = 774;
}
);
unicode = 3632;
}
{
glyphname = "maiHanaKat-thai";
layers = (
{
anchors = (
{
name = _top;
pos = (-104,1202);
},
{
name = top;
pos = (-44,1570);
}
);
layerId = "200BE2C5-40F6-4CF4-AF4F-A33C0CC0964F";
shapes = (
{
closed = 1;
nodes = (
(148,1394,l),
(154,1438,l),
(-300,1438,ls),
(-398,1438,o),
(-428,1466,o),
(-416,1538,cs),
(-408,1590,l),
(-454,1590,l),
(-462,1544,ls),
(-480,1444,o),
(-426,1394,o),
(-300,1394,cs)
);
}
);
width = 0;
},
{
anchors = (
{
name = _top;
pos = (-58,1202);
},
{
name = top;
pos = (8,1598);
}
);
layerId = "11F4534A-B963-4AB5-820F-DAF9A20CD933";
shapes = (
{
closed = 1;
nodes = (
(178,1362,l),
(200,1506,l),
(-270,1506,ls),
(-336,1506,o),
(-362,1532,o),
(-354,1592,cs),
(-348,1634,l),
(-512,1634,l),
(-520,1586,ls),
(-542,1442,o),
(-474,1362,o),
(-324,1362,cs)
);
}
);
width = 0;
},
{
anchors = (
{
name = _top;
pos = (4,1202);
},
{
name = top;
pos = (88,1716);
}
);
layerId = "D0EC06BF-13F9-4C88-A6F5-B8203AF6C77E";
shapes = (
{
closed = 1;
nodes = (
(190,1336,l),
(234,1600,l),
(-170,1600,ls),
(-236,1600,o),
(-262,1634,o),
(-252,1696,cs),
(-246,1742,l),
(-604,1742,l),
(-626,1614,ls),
(-658,1430,o),
(-572,1336,o),
(-366,1336,cs)
);
}
);
width = 0;
}
);
unicode = 3633;
}
{
glyphname = "saraAa-thai";
kernLeft = "saraAa-thai";
kernRight = "saraAa-thai";
layers = (
{
layerId = "200BE2C5-40F6-4CF4-AF4F-A33C0CC0964F";
shapes = (
{
closed = 1;
nodes = (
(574,0,l),
(722,894,ls),
(754,1088,o),
(652,1218,o),
(472,1218,cs),
(330,1218,o),
(200,1136,o),
(132,1000,c),
(172,978,l),
(240,1104,o),
(348,1174,o),
(472,1174,cs),
(626,1174,o),
(702,1066,o),
(674,898,cs),
(526,0,l)
);
}
);
width = 876;
},
{
layerId = "11F4534A-B963-4AB5-820F-DAF9A20CD933";
shapes = (
{
closed = 1;
nodes = (
(690,0,l),
(830,844,ls),
(870,1074,o),
(744,1226,o),
(520,1226,cs),
(330,1226,o),
(170,1116,o),
(108,940,c),
(254,894,l),
(304,1008,o),
(394,1072,o),
(496,1072,cs),
(614,1072,o),
(678,984,o),
(656,854,cs),
(514,0,l)
);
}
);
width = 946;
},
{
layerId = "D0EC06BF-13F9-4C88-A6F5-B8203AF6C77E";
shapes = (
{
closed = 1;
nodes = (
(892,0,l),
(1022,784,ls),
(1066,1048,o),
(886,1226,o),
(578,1226,cs),
(288,1226,o),
(86,1058,o),
(52,784,c),
(426,784,l),
(440,866,o),
(480,912,o),
(542,912,cs),
(604,912,o),
(630,862,o),
(616,774,cs),
(488,0,l)
);
}
);
width = 1082;
}
);
unicode = 3634;
}
{
glyphname = "saraAm-thai";
kernLeft = "saraAa-thai";
kernRight = "saraAa-thai";
layers = (
{
layerId = "200BE2C5-40F6-4CF4-AF4F-A33C0CC0964F";
shapes = (
{
closed = 1;
nodes = (
(574,0,l),
(722,894,ls),
(754,1084,o),
(652,1218,o),
(472,1218,cs),
(330,1218,o),
(200,1136,o),
(132,1000,c),
(172,978,l),
(240,1104,o),
(348,1174,o),
(472,1174,cs),
(626,1174,o),
(702,1070,o),
(674,898,cs),
(526,0,l)
);
},
{
closed = 1;
nodes = (
(-2,1366,o),
(70,1436,o),
(70,1528,cs),
(70,1610,o),
(4,1676,o),
(-82,1676,cs),
(-174,1676,o),
(-244,1606,o),
(-244,1514,cs),
(-244,1430,o),
(-180,1366,o),
(-94,1366,cs)
);
},
{
closed = 1;
nodes = (
(-156,1408,o),
(-200,1454,o),
(-200,1516,cs),
(-200,1582,o),
(-148,1634,o),
(-82,1634,cs),
(-20,1634,o),
(24,1588,o),
(24,1526,cs),
(24,1460,o),
(-28,1408,o),
(-94,1408,cs)
);
}
);
width = 876;
},
{
layerId = "11F4534A-B963-4AB5-820F-DAF9A20CD933";
shapes = (
{
closed = 1;
nodes = (
(690,0,l),
(830,844,ls),
(868,1074,o),
(744,1226,o),
(520,1226,cs),
(330,1226,o),
(170,1116,o),
(108,940,c),
(254,894,l),
(304,1008,o),
(394,1072,o),
(496,1072,cs),
(614,1072,o),
(678,984,o),
(656,854,cs),
(514,0,l)
);
},
{
closed = 1;
nodes = (
(8,1342,o),
(96,1420,o),
(94,1530,cs),
(96,1626,o),
(20,1690,o),
(-86,1690,cs),
(-204,1690,o),
(-288,1612,o),
(-290,1502,cs),
(-288,1408,o),
(-218,1342,o),
(-110,1342,cs)
);
},
{
closed = 1;
nodes = (
(-140,1440,o),
(-162,1466,o),
(-162,1500,cs),
(-160,1554,o),
(-130,1592,o),
(-88,1592,cs),
(-56,1592,o),
(-34,1566,o),
(-34,1532,cs),
(-32,1480,o),
(-64,1440,o),
(-108,1440,cs)
);
}
);
width = 946;
},
{
layerId = "D0EC06BF-13F9-4C88-A6F5-B8203AF6C77E";
shapes = (
{
closed = 1;
nodes = (
(892,0,l),
(1022,784,ls),
(1066,1048,o),
(886,1226,o),
(578,1226,cs),
(288,1226,o),
(86,1058,o),
(52,784,c),
(426,784,l),
(440,866,o),
(480,912,o),
(542,912,cs),
(604,912,o),
(630,862,o),
(616,774,cs),
(488,0,l)
);
},
{
closed = 1;
nodes = (
(-4,1288,o),
(126,1408,o),
(124,1570,cs),
(124,1712,o),
(10,1810,o),
(-152,1810,cs),
(-332,1810,o),
(-460,1692,o),
(-462,1526,cs),
(-460,1388,o),
(-346,1288,o),
(-182,1288,cs)
);
},
{
closed = 1;
nodes = (
(-218,1458,o),
(-246,1486,o),
(-246,1528,cs),
(-246,1596,o),
(-212,1640,o),
(-158,1640,cs),
(-118,1640,o),
(-92,1610,o),
(-92,1568,cs),
(-90,1502,o),
(-124,1458,o),
(-178,1458,cs)
);
}
);
width = 1082;
}
);
unicode = 3635;
}
{
glyphname = "saraI-thai";
layers = (
{
anchors = (
{
name = _top;
pos = (-104,1202);
},
{
name = top;
pos = (-60,1474);
}
);
layerId = "200BE2C5-40F6-4CF4-AF4F-A33C0CC0964F";
shapes = (
{
closed = 1;
nodes = (
(-74,1394,l),
(-68,1438,l),
(-804,1438,l),
(-810,1394,l)
);
}
);
width = 0;
},
{
anchors = (
{
name = _top;
pos = (-58,1202);
},
{
name = top;
pos = (0,1538);
}
);
layerId = "11F4534A-B963-4AB5-820F-DAF9A20CD933";
shapes = (
{
closed = 1;
nodes = (
(-30,1362,l),
(-4,1510,l),
(-884,1510,l),
(-910,1362,l)
);
}
);
width = 0;
},
{
anchors = (
{
name = _top;
pos = (4,1202);
},
{
name = top;
pos = (72,1620);
}
);
layerId = "D0EC06BF-13F9-4C88-A6F5-B8203AF6C77E";
shapes = (
{
closed = 1;
nodes = (
(24,1336,l),
(70,1600,l),
(-978,1600,l),
(-1024,1336,l)
);
}
);
width = 0;
}
);
unicode = 3636;
}
{
glyphname = "saraIi-thai";
layers = (
{
anchors = (
{
name = _top;
pos = (-104,1202);
},
{
name = top;
pos = (-32,1640);
}
);
layerId = "200BE2C5-40F6-4CF4-AF4F-A33C0CC0964F";
shapes = (
{
closed = 1;
nodes = (
(-74,1394,l),
(-32,1640,l),
(-78,1640,l),
(-112,1438,l),
(-802,1438,l),
(-808,1394,l)
);
}
);
width = 0;
},
{
anchors = (
{
name = _top;
pos = (-58,1202);
},
{
name = top;
pos = (22,1682);
}
);
layerId = "11F4534A-B963-4AB5-820F-DAF9A20CD933";
shapes = (
{
closed = 1;
nodes = (
(-30,1362,l),
(22,1682,l),
(-142,1682,l),
(-170,1510,l),
(-886,1510,l),
(-910,1362,l)
);
}
);
width = 0;
},
{
anchors = (
{
name = _top;
pos = (4,1202);
},
{
name = top;
pos = (92,1744);
}
);
layerId = "D0EC06BF-13F9-4C88-A6F5-B8203AF6C77E";
shapes = (
{
closed = 1;
nodes = (
(24,1336,l),
(92,1744,l),
(-266,1744,l),
(-290,1600,l),
(-978,1600,l),
(-1024,1336,l)
);
}
);
width = 0;
}
);
unicode = 3637;
}
{
glyphname = "saraUe-thai";
layers = (
{
anchors = (
{
name = _top;
pos = (-104,1202);
},
{
name = top;
pos = (-32,1640);
}
);
layerId = "200BE2C5-40F6-4CF4-AF4F-A33C0CC0964F";
shapes = (
{
closed = 1;
nodes = (
(-90,1394,ls),
(4,1394,o),
(70,1466,o),
(70,1550,cs),
(70,1622,o),
(20,1676,o),
(-60,1676,cs),
(-146,1676,o),
(-216,1608,o),
(-216,1522,cs),
(-216,1482,o),
(-200,1442,o),
(-172,1428,c),
(-172,1438,l),
(-800,1438,l),
(-808,1394,l)
);
},
{
closed = 1;
nodes = (
(-140,1438,o),
(-172,1468,o),
(-172,1518,cs),
(-172,1580,o),
(-126,1634,o),
(-60,1634,cs),
(-6,1634,o),
(26,1602,o),
(24,1548,cs),
(24,1482,o),
(-24,1438,o),
(-88,1438,cs)
);
}
);
width = 0;
},
{
anchors = (
{
name = _top;
pos = (-58,1202);
},
{
name = top;
pos = (-2,1682);
}
);
layerId = "11F4534A-B963-4AB5-820F-DAF9A20CD933";
shapes = (
{
closed = 1;
nodes = (
(-134,1362,ls),
(-8,1362,o),
(74,1440,o),
(74,1554,cs),
(74,1642,o),
(6,1704,o),
(-92,1704,cs),
(-216,1704,o),
(-298,1624,o),
(-298,1504,cs),
(-298,1486,o),
(-296,1470,o),
(-292,1452,c),
(-216,1510,l),
(-886,1510,l),
(-910,1362,l)
);
},
{
closed = 1;
nodes = (
(-156,1462,o),
(-176,1484,o),
(-174,1518,cs),
(-176,1566,o),
(-140,1606,o),
(-100,1606,cs),
(-70,1606,o),
(-54,1586,o),
(-52,1552,cs),
(-52,1502,o),
(-84,1462,o),
(-126,1462,cs)
);
}
);
width = 0;
},
{
anchors = (
{
name = _top;
pos = (4,1202);
},
{
name = top;
pos = (54,1744);
}
);
layerId = "D0EC06BF-13F9-4C88-A6F5-B8203AF6C77E";
shapes = (
{
closed = 1;
nodes = (
(-160,1336,ls),
(6,1336,o),
(126,1446,o),
(126,1596,cs),
(126,1720,o),
(32,1796,o),
(-122,1796,cs),
(-290,1796,o),
(-410,1690,o),
(-410,1544,cs),
(-410,1518,o),
(-410,1490,o),
(-406,1476,c),
(-220,1600,l),
(-976,1600,l),
(-1020,1336,l)
);
},
{
closed = 1;
nodes = (
(-196,1486,o),
(-220,1510,o),
(-220,1544,cs),
(-220,1600,o),
(-186,1642,o),
(-138,1642,cs),
(-106,1642,o),
(-80,1616,o),
(-80,1582,cs),
(-80,1526,o),
(-116,1486,o),
(-164,1486,cs)
);
}
);
width = 0;
}
);
unicode = 3638;
}
{
glyphname = "saraUee-thai";
layers = (
{
anchors = (
{
name = _top;
pos = (-104,1202);
},
{
name = top;
pos = (-32,1640);
}
);
layerId = "200BE2C5-40F6-4CF4-AF4F-A33C0CC0964F";
shapes = (
{
closed = 1;
nodes = (
(-74,1394,l),
(-32,1640,l),
(-78,1640,l),
(-112,1438,l),
(-328,1438,l),
(-342,1438,l),
(-804,1438,l),
(-810,1394,l)
);
},
{
closed = 1;
nodes = (
(-318,1416,l),
(-280,1640,l),
(-326,1640,l),
(-364,1416,l)
);
}
);
width = 0;
},
{
anchors = (
{
name = _top;
pos = (-58,1202);
},
{
name = top;
pos = (22,1682);
}
);
layerId = "11F4534A-B963-4AB5-820F-DAF9A20CD933";
shapes = (
{
closed = 1;
nodes = (
(-30,1362,l),
(22,1682,l),
(-138,1682,l),
(-168,1506,l),
(-318,1506,l),
(-346,1510,l),
(-886,1510,l),
(-910,1362,l)
);
},
{
closed = 1;
nodes = (
(-292,1438,l),
(-252,1682,l),
(-406,1682,l),
(-446,1438,l)
);
}
);
width = 0;
},
{
anchors = (
{
name = _top;
pos = (4,1202);
},
{
name = top;
pos = (92,1744);
}
);
layerId = "D0EC06BF-13F9-4C88-A6F5-B8203AF6C77E";
shapes = (
{
closed = 1;
nodes = (
(24,1336,l),
(92,1744,l),
(-198,1744,l),
(-228,1576,l),
(-414,1576,l),
(-410,1600,l),
(-978,1600,l),
(-1024,1336,l)
);
},
{
closed = 1;
nodes = (
(-344,1506,l),
(-304,1744,l),
(-582,1744,l),
(-622,1506,l)
);
}
);
width = 0;
}
);
unicode = 3639;
}
{
glyphname = "saraU-thai";
layers = (
{
anchors = (
{
name = _bottom;
pos = (-304,0);
},
{
name = bottom;
pos = (-380,-458);
}
);
layerId = "200BE2C5-40F6-4CF4-AF4F-A33C0CC0964F";
shapes = (
{
closed = 1;
nodes = (
(-380,-458,l),
(-334,-174,l),
(-506,-174,l),
(-512,-216,l),
(-386,-216,l),
(-426,-458,l)
);
}
);
width = 0;
},
{
anchors = (
{
name = _bottom;
pos = (-254,0);
},
{
name = bottom;
pos = (-340,-510);
}
);
layerId = "11F4534A-B963-4AB5-820F-DAF9A20CD933";
shapes = (
{
closed = 1;
nodes = (
(-340,-510,l),
(-282,-160,l),
(-578,-160,l),
(-602,-300,l),
(-470,-300,l),
(-506,-510,l)
);
}
);
width = 0;
},
{
anchors = (
{
name = _bottom;
pos = (-196,0);
},
{
name = bottom;
pos = (-296,-606);
}
);
layerId = "D0EC06BF-13F9-4C88-A6F5-B8203AF6C77E";
shapes = (
{
closed = 1;
nodes = (
(-296,-606,l),
(-218,-130,l),
(-704,-130,l),
(-746,-382,l),
(-600,-382,l),
(-636,-606,l)
);
}
);
width = 0;
}
);
unicode = 3640;
}
{
glyphname = "saraUu-thai";
layers = (
{
anchors = (
{
name = _bottom;
pos = (-304,0);
},
{
name = bottom;
pos = (-384,-450);
}
);
layerId = "200BE2C5-40F6-4CF4-AF4F-A33C0CC0964F";
shapes = (
{
closed = 1;
nodes = (
(-442,-456,o),
(-368,-390,o),
(-350,-272,cs),
(-334,-174,l),
(-380,-174,l),
(-396,-268,ls),
(-410,-366,o),
(-466,-414,o),
(-560,-414,cs),
(-654,-414,o),
(-692,-366,o),
(-678,-268,cs),
(-662,-174,l),
(-804,-174,l),
(-812,-216,l),
(-714,-216,l),
(-720,-264,ls),
(-742,-386,o),
(-678,-456,o),
(-560,-456,cs)
);
}
);
width = 0;
},
{
anchors = (
{
name = _bottom;
pos = (-254,0);
},
{
name = bottom;
pos = (-346,-546);
}
);
layerId = "11F4534A-B963-4AB5-820F-DAF9A20CD933";
shapes = (
{
closed = 1;
nodes = (
(-442,-556,o),
(-332,-478,o),
(-310,-336,cs),
(-282,-160,l),
(-442,-160,l),
(-466,-306,ls),
(-478,-378,o),
(-526,-422,o),
(-594,-422,cs),
(-668,-422,o),
(-710,-374,o),
(-698,-306,cs),
(-674,-160,l),
(-922,-160,l),
(-944,-292,l),
(-850,-292,l),
(-852,-312,ls),
(-876,-464,o),
(-772,-556,o),
(-598,-556,cs)
);
}
);
width = 0;
},
{
anchors = (
{
name = _bottom;
pos = (-196,0);
},
{
name = bottom;
pos = (-294,-588);
}
);
layerId = "D0EC06BF-13F9-4C88-A6F5-B8203AF6C77E";
shapes = (
{
closed = 1;
nodes = (
(-430,-588,o),
(-278,-486,o),
(-252,-334,cs),
(-218,-130,l),
(-542,-130,l),
(-568,-286,ls),
(-578,-344,o),
(-610,-376,o),
(-660,-376,cs),
(-710,-376,o),
(-732,-344,o),
(-722,-286,cs),
(-696,-130,l),
(-1094,-130,l),
(-1130,-342,l),
(-1028,-342,l),
(-1030,-366,ls),
(-1038,-502,o),
(-914,-588,o),
(-666,-588,cs)
);
}
);
width = 0;
}
);
unicode = 3641;
}
{
glyphname = "phinthu-thai";
layers = (
{
anchors = (
{
name = _bottom;
pos = (-304,0);
},
{
name = bottom;
pos = (-332,-272);
}
);
layerId = "200BE2C5-40F6-4CF4-AF4F-A33C0CC0964F";
shapes = (
{
closed = 1;
nodes = (
(-340,-272,o),
(-314,-250,o),
(-314,-216,cs),
(-314,-188,o),
(-334,-168,o),
(-364,-168,cs),
(-396,-168,o),
(-420,-192,o),
(-420,-224,cs),
(-420,-252,o),
(-402,-272,o),
(-372,-272,cs)
);
}
);
width = 0;
},
{
anchors = (
{
name = _bottom;
pos = (-254,0);
},
{
name = bottom;
pos = (-316,-364);
}
);
layerId = "11F4534A-B963-4AB5-820F-DAF9A20CD933";
shapes = (
{
closed = 1;
nodes = (
(-324,-364,o),
(-270,-310,o),
(-270,-238,cs),
(-268,-184,o),
(-310,-144,o),
(-372,-144,cs),
(-448,-144,o),
(-504,-198,o),
(-504,-270,cs),
(-502,-324,o),
(-458,-364,o),
(-400,-364,cs)
);
}
);
width = 0;
},
{
anchors = (
{
name = _bottom;
pos = (-196,0);
},
{
name = bottom;
pos = (-282,-528);
}
);
layerId = "D0EC06BF-13F9-4C88-A6F5-B8203AF6C77E";
shapes = (
{
closed = 1;
nodes = (
(-348,-528,o),
(-244,-430,o),
(-246,-304,cs),
(-246,-198,o),
(-320,-124,o),
(-428,-124,cs),
(-554,-124,o),
(-656,-226,o),
(-656,-352,cs),
(-656,-456,o),
(-584,-528,o),
(-474,-528,cs)
);
}
);
width = 0;
}
);
unicode = 3642;
}
{
glyphname = "saraE-thai";
kernRight = "saraE-thai";
layers = (
{
layerId = "200BE2C5-40F6-4CF4-AF4F-A33C0CC0964F";
shapes = (
{
closed = 1;
nodes = (
(392,-20,o),
(426,-14,o),
(450,-2,c),
(446,38,l),
(416,28,o),
(390,24,o),
(360,24,cs),
(246,24,o),
(186,100,o),
(206,222,cs),
(368,1202,l),
(322,1202,l),
(160,230,ls),
(136,78,o),
(214,-20,o),
(358,-20,cs)
);
}
);
width = 592;
},
{
layerId = "11F4534A-B963-4AB5-820F-DAF9A20CD933";
shapes = (
{
closed = 1;
nodes = (
(420,-14,o),
(464,-8,o),
(496,6,c),
(488,150,l),
(462,142,o),
(436,140,o),
(410,140,cs),
(330,140,o),
(300,194,o),
(316,302,cs),
(466,1202,l),
(290,1202,l),
(136,274,ls),
(106,90,o),
(190,-14,o),
(370,-14,cs)
);
}
);
width = 616;
},
{
layerId = "D0EC06BF-13F9-4C88-A6F5-B8203AF6C77E";
shapes = (
{
closed = 1;
nodes = (
(478,-14,o),
(562,-2,o),
(644,22,c),
(632,304,l),
(608,298,o),
(572,292,o),
(552,292,cs),
(502,292,o),
(480,316,o),
(488,362,cs),
(628,1202,l),
(226,1202,l),
(82,324,ls),
(46,102,o),
(154,-14,o),
(398,-14,cs)
);
}
);
width = 750;
}
);
unicode = 3648;
}
{
glyphname = "saraO-thai";
layers = (
{
layerId = "200BE2C5-40F6-4CF4-AF4F-A33C0CC0964F";
shapes = (
{
closed = 1;
nodes = (
(400,-20,o),
(432,-14,o),
(456,-2,c),
(452,38,l),
(422,28,o),
(396,24,o),
(366,24,cs),
(252,24,o),
(192,100,o),
(212,222,cs),
(402,1370,ls),
(430,1532,o),
(396,1642,o),
(300,1694,c),
(302,1698,l),
(774,1698,l),
(782,1742,l),
(226,1742,l),
(220,1698,l),
(346,1652,o),
(386,1554,o),
(358,1376,cs),
(168,230,ls),
(144,78,o),
(222,-20,o),
(366,-20,cs)
);
}
);
width = 600;
},
{
layerId = "11F4534A-B963-4AB5-820F-DAF9A20CD933";
shapes = (
{
closed = 1;
nodes = (
(510,-14,o),
(560,-8,o),
(584,6,c),
(576,154,l),
(552,146,o),
(526,142,o),
(496,142,cs),
(414,142,o),
(384,190,o),
(402,300,cs),
(588,1412,ls),
(612,1564,o),
(562,1676,o),
(448,1714,c),
(450,1726,l),
(898,1726,l),
(922,1874,l),
(290,1874,l),
(264,1714,l),
(392,1688,o),
(444,1594,o),
(414,1424,cs),
(222,274,ls),
(192,90,o),
(276,-14,o),
(460,-14,cs)
);
}
);
width = 704;
},
{
layerId = "D0EC06BF-13F9-4C88-A6F5-B8203AF6C77E";
shapes = (
{
closed = 1;
nodes = (
(600,-14,o),
(686,-2,o),
(768,22,c),
(756,304,l),
(732,298,o),
(696,292,o),
(676,292,cs),
(626,292,o),
(604,316,o),
(612,362,cs),
(776,1354,ls),
(808,1546,o),
(772,1684,o),
(670,1750,c),
(674,1764,l),
(1078,1764,l),
(1126,2050,l),
(286,2050,l),
(242,1800,l),
(384,1772,o),
(424,1654,o),
(382,1392,cs),
(206,324,ls),
(170,102,o),
(276,-14,o),
(520,-14,cs)
);
}
);
width = 888;
}
);
unicode = 3650;
}
{
glyphname = "saraAiMaimuan-thai";
layers = (
{
layerId = "200BE2C5-40F6-4CF4-AF4F-A33C0CC0964F";
shapes = (
{
closed = 1;
nodes = (
(400,-20,o),
(432,-14,o),
(456,-2,c),
(452,38,l),
(422,28,o),
(396,24,o),
(366,24,cs),
(252,24,o),
(192,100,o),
(212,222,cs),
(344,1018,ls),
(360,1122,o),
(406,1188,o),
(532,1294,cs),
(654,1398,o),
(696,1466,o),
(696,1566,cs),
(696,1678,o),
(608,1752,o),
(482,1752,cs),
(372,1752,o),
(266,1698,o),
(200,1606,c),
(238,1578,l),
(306,1664,o),
(388,1710,o),
(480,1710,cs),
(584,1710,o),
(646,1652,o),
(648,1562,cs),
(648,1476,o),
(612,1420,o),
(498,1324,cs),
(368,1218,o),
(316,1136,o),
(298,1018,cs),
(168,230,ls),
(144,80,o),
(222,-20,o),
(366,-20,cs)
);
}
);
width = 600;
},
{
layerId = "11F4534A-B963-4AB5-820F-DAF9A20CD933";
shapes = (
{
closed = 1;
nodes = (
(510,-14,o),
(560,-8,o),
(584,6,c),
(576,154,l),
(552,146,o),
(526,142,o),
(496,142,cs),
(416,142,o),
(384,196,o),
(402,300,cs),
(528,1052,ls),
(546,1158,o),
(582,1220,o),
(666,1288,cs),
(828,1418,o),
(896,1522,o),
(894,1648,cs),
(896,1808,o),
(780,1898,o),
(592,1898,cs),
(408,1898,o),
(268,1806,o),
(182,1634,c),
(328,1590,l),
(386,1692,o),
(478,1750,o),
(580,1750,cs),
(670,1750,o),
(722,1708,o),
(722,1628,cs),
(720,1552,o),
(680,1490,o),
(578,1408,cs),
(426,1282,o),
(378,1212,o),
(354,1066,cs),
(222,274,ls),
(192,88,o),
(276,-14,o),
(460,-14,cs)
);
}
);
width = 704;
},
{
layerId = "D0EC06BF-13F9-4C88-A6F5-B8203AF6C77E";
shapes = (
{
closed = 1;
nodes = (
(600,-14,o),
(686,-2,o),
(768,22,c),
(756,304,l),
(732,298,o),
(696,292,o),
(676,292,cs),
(624,292,o),
(604,314,o),
(612,362,cs),
(742,1138,ls),
(760,1252,o),
(816,1334,o),
(948,1432,cs),
(1098,1542,o),
(1158,1636,o),
(1158,1762,cs),
(1158,1956,o),
(990,2078,o),
(718,2078,cs),
(416,2078,o),
(212,1926,o),
(166,1672,c),
(532,1672,l),
(552,1748,o),
(604,1792,o),
(670,1792,cs),
(724,1792,o),
(754,1760,o),
(756,1714,cs),
(754,1662,o),
(726,1630,o),
(610,1552,cs),
(446,1442,o),
(376,1354,o),
(354,1226,cs),
(206,324,ls),
(170,100,o),
(274,-14,o),
(520,-14,cs)
);
}
);
width = 888;
}
);
unicode = 3651;
}
{
glyphname = "saraAiMaimalai-thai";
layers = (
{
layerId = "200BE2C5-40F6-4CF4-AF4F-A33C0CC0964F";
shapes = (
{
closed = 1;
nodes = (
(400,-20,o),
(432,-14,o),
(456,-2,c),
(452,38,l),
(422,28,o),
(396,24,o),
(366,24,cs),
(252,24,o),
(192,100,o),
(212,222,cs),
(390,1296,ls),
(424,1504,o),
(530,1634,o),
(720,1698,c),
(728,1742,l),
(242,1742,l),
(236,1698,l),
(638,1698,l),
(638,1694,l),
(470,1632,o),
(378,1510,o),
(344,1304,cs),
(168,230,ls),
(144,78,o),
(222,-20,o),
(366,-20,cs)
);
}
);
width = 600;
},
{
layerId = "11F4534A-B963-4AB5-820F-DAF9A20CD933";
shapes = (
{
closed = 1;
nodes = (
(510,-14,o),
(560,-8,o),
(584,6,c),
(576,154,l),
(552,146,o),
(526,142,o),
(496,142,cs),
(416,142,o),
(384,196,o),
(402,300,cs),
(590,1424,ls),
(618,1600,o),
(702,1690,o),
(862,1714,c),
(888,1874,l),
(306,1874,l),
(280,1726,l),
(658,1726,l),
(656,1714,l),
(526,1676,o),
(436,1566,o),
(410,1412,cs),
(222,274,ls),
(192,90,o),
(276,-14,o),
(460,-14,cs)
);
}
);
width = 704;
},
{
layerId = "D0EC06BF-13F9-4C88-A6F5-B8203AF6C77E";
shapes = (
{
closed = 1;
nodes = (
(600,-14,o),
(686,-2,o),
(768,22,c),
(756,304,l),
(732,298,o),
(696,292,o),
(676,292,cs),
(626,292,o),
(604,316,o),
(612,362,cs),
(782,1392,ls),
(826,1660,o),
(910,1772,o),
(1084,1800,c),
(1126,2050,l),
(322,2050,l),
(274,1764,l),
(610,1764,l),
(608,1750,l),
(486,1678,o),
(404,1530,o),
(368,1318,cs),
(206,324,ls),
(170,102,o),
(276,-14,o),
(520,-14,cs)
);
}
);
width = 888;
}
);
unicode = 3652;
}
{
glyphname = "maiyamok-thai";
layers = (
{
layerId = "200BE2C5-40F6-4CF4-AF4F-A33C0CC0964F";
shapes = (
{
closed = 1;
nodes = (
(766,-338,l),
(970,886,ls),
(1000,1064,o),
(938,1182,o),
(802,1212,c),
(618,1072,l),
(610,1072,l),
(472,1212,l),
(306,1182,o),
(192,1036,o),
(192,858,cs),
(192,700,o),
(294,598,o),
(450,598,cs),
(492,598,o),
(534,606,o),
(574,622,c),
(566,664,l),
(530,650,o),
(490,642,o),
(452,642,cs),
(322,642,o),
(240,726,o),
(240,860,cs),
(240,1012,o),
(338,1146,o),
(468,1170,c),
(450,1174,l),
(606,1018,l),
(618,1018,l),
(826,1174,l),
(786,1170,l),
(900,1144,o),
(950,1050,o),
(924,894,cs),
(720,-338,l)
);
}
);
width = 1164;
},
{
layerId = "11F4534A-B963-4AB5-820F-DAF9A20CD933";
shapes = (
{
closed = 1;
nodes = (
(802,-482,l),
(1038,930,ls),
(1066,1096,o),
(982,1204,o),
(812,1218,c),
(626,1078,l),
(616,1078,l),
(478,1218,l),
(288,1194,o),
(150,1030,o),
(150,824,cs),
(150,646,o),
(260,530,o),
(434,530,cs),
(480,530,o),
(526,540,o),
(568,556,c),
(568,696,l),
(538,684,o),
(504,678,o),
(474,678,cs),
(382,678,o),
(330,736,o),
(330,834,cs),
(330,936,o),
(380,1028,o),
(456,1062,c),
(440,1064,l),
(576,926,l),
(638,926,l),
(818,1064,l),
(800,1058,l),
(848,1050,o),
(872,1006,o),
(862,940,cs),
(626,-482,l)
);
}
);
width = 1152;
},
{
layerId = "D0EC06BF-13F9-4C88-A6F5-B8203AF6C77E";
shapes = (
{
closed = 1;
nodes = (
(1006,-482,l),
(1222,810,ls),
(1262,1054,o),
(1154,1190,o),
(890,1226,c),
(722,1118,l),
(714,1118,l),
(582,1226,l),
(286,1198,o),
(88,1000,o),
(88,728,cs),
(88,494,o),
(240,348,o),
(482,348,cs),
(538,348,o),
(592,356,o),
(640,370,c),
(688,658,l),
(670,650,o),
(638,642,o),
(610,642,cs),
(534,642,o),
(490,688,o),
(490,764,cs),
(490,842,o),
(538,914,o),
(610,940,c),
(594,942,l),
(674,880,l),
(690,880,l),
(794,944,l),
(772,940,l),
(814,926,o),
(828,882,o),
(818,814,cs),
(604,-482,l)
);
}
);
width = 1284;
}
);
unicode = 3654;
}
{
glyphname = "maitaikhu-thai";
layers = (
{
anchors = (
{
name = _top;
pos = (-104,1202);
},
{
name = top;
pos = (-98,1724);
}
);
layerId = "200BE2C5-40F6-4CF4-AF4F-A33C0CC0964F";
shapes = (
{
closed = 1;
nodes = (
(-214,1390,o),
(-180,1396,o),
(-150,1410,c),
(-158,1450,l),
(-184,1440,o),
(-214,1434,o),
(-242,1434,cs),
(-308,1434,o),
(-354,1470,o),
(-356,1536,c),
(-406,1536,l),
(-496,1438,l),
(-556,1438,ls),
(-626,1438,o),
(-670,1482,o),
(-672,1550,cs),
(-670,1628,o),
(-612,1682,o),
(-516,1682,cs),
(-106,1682,l),
(-98,1724,l),
(-514,1724,ls),
(-630,1724,o),
(-718,1656,o),
(-718,1550,cs),
(-718,1462,o),
(-658,1394,o),
(-560,1394,cs),
(-486,1394,l),
(-390,1498,l),
(-384,1498,l),
(-372,1432,o),
(-320,1390,o),
(-242,1390,cs)
);
}
);
width = 0;
},
{
anchors = (
{
name = _top;
pos = (-58,1202);
},
{
name = top;
pos = (-62,1788);
}
);
layerId = "11F4534A-B963-4AB5-820F-DAF9A20CD933";
shapes = (
{
closed = 1;
nodes = (
(-200,1356,o),
(-164,1364,o),
(-128,1378,c),
(-132,1504,l),
(-160,1494,o),
(-188,1490,o),
(-218,1490,cs),
(-280,1490,o),
(-316,1520,o),
(-318,1570,c),
(-398,1570,l),
(-484,1492,l),
(-528,1492,ls),
(-572,1492,o),
(-598,1520,o),
(-598,1566,cs),
(-598,1620,o),
(-556,1660,o),
(-500,1660,cs),
(-82,1660,l),
(-62,1788,l),
(-500,1788,ls),
(-652,1788,o),
(-766,1700,o),
(-766,1564,cs),
(-766,1448,o),
(-686,1362,o),
(-556,1362,cs),
(-462,1362,l),
(-374,1444,l),
(-362,1444,l),
(-344,1386,o),
(-300,1356,o),
(-232,1356,cs)
);
}
);
width = 0;
},
{
anchors = (
{
name = _top;
pos = (4,1202);
},
{
name = top;
pos = (-12,1896);
}
);
layerId = "D0EC06BF-13F9-4C88-A6F5-B8203AF6C77E";
shapes = (
{
closed = 1;
nodes = (
(-190,1326,o),
(-148,1338,o),
(-102,1356,c),
(-96,1558,l),
(-134,1544,o),
(-170,1538,o),
(-202,1538,cs),
(-270,1538,o),
(-316,1566,o),
(-320,1612,c),
(-414,1612,l),
(-490,1544,l),
(-540,1544,ls),
(-584,1544,o),
(-612,1574,o),
(-614,1618,cs),
(-614,1666,o),
(-576,1696,o),
(-514,1696,cs),
(-44,1696,l),
(-12,1896,l),
(-566,1896,ls),
(-766,1896,o),
(-902,1772,o),
(-902,1592,cs),
(-902,1436,o),
(-798,1336,o),
(-630,1336,cs),
(-464,1336,l),
(-398,1406,l),
(-384,1406,l),
(-364,1356,o),
(-306,1326,o),
(-232,1326,cs)
);
}
);
width = 0;
}
);
unicode = 3655;
}
{
glyphname = "maiEk-thai";
layers = (
{
anchors = (
{
name = _top;
pos = (-104,1202);
},
{
name = top;
pos = (-28,1676);
}
);
layerId = "200BE2C5-40F6-4CF4-AF4F-A33C0CC0964F";
shapes = (
{
closed = 1;
nodes = (
(-74,1394,l),
(-28,1676,l),
(-72,1676,l),
(-118,1394,l)
);
}
);
width = 0;
},
{
anchors = (
{
name = _top;
pos = (-58,1202);
},
{
name = top;
pos = (26,1736);
}
);
layerId = "11F4534A-B963-4AB5-820F-DAF9A20CD933";
shapes = (
{
closed = 1;
nodes = (
(-36,1362,l),
(26,1736,l),
(-142,1736,l),
(-202,1362,l)
);
}
);
width = 0;
},
{
anchors = (
{
name = _top;
pos = (4,1202);
},
{
name = top;
pos = (88,1780);
}
);
layerId = "D0EC06BF-13F9-4C88-A6F5-B8203AF6C77E";
shapes = (
{
closed = 1;
nodes = (
(14,1336,l),
(88,1780,l),
(-294,1780,l),
(-368,1336,l)
);
}
);
width = 0;
}
);
unicode = 3656;
}
{
glyphname = "maiTho-thai";
layers = (
{
anchors = (
{
name = _top;
pos = (-104,1202);
},
{
name = top;
pos = (-36,1626);
}
);
layerId = "200BE2C5-40F6-4CF4-AF4F-A33C0CC0964F";
shapes = (
{
closed = 1;
nodes = (
(68,1394,l),
(74,1438,l),
(-308,1438,l),
(-302,1480,ls),
(-288,1574,o),
(-318,1626,o),
(-416,1626,cs),
(-494,1626,l),
(-502,1584,l),
(-416,1584,ls),
(-350,1584,o),
(-332,1558,o),
(-346,1480,cs),
(-360,1394,l)
);
}
);
width = 0;
},
{
anchors = (
{
name = _top;
pos = (-58,1202);
},
{
name = top;
pos = (30,1726);
}
);
layerId = "11F4534A-B963-4AB5-820F-DAF9A20CD933";
shapes = (
{
closed = 1;
nodes = (
(80,1362,l),
(104,1506,l),
(-256,1506,l),
(-246,1566,ls),
(-228,1672,o),
(-292,1726,o),
(-398,1726,cs),
(-548,1726,l),
(-570,1588,l),
(-484,1588,ls),
(-430,1588,o),
(-412,1568,o),
(-422,1514,cs),
(-448,1362,l)
);
}
);
width = 0;
},
{
anchors = (
{
name = _top;
pos = (4,1202);
},
{
name = top;
pos = (96,1766);
}
);
layerId = "D0EC06BF-13F9-4C88-A6F5-B8203AF6C77E";
shapes = (
{
closed = 1;
nodes = (
(102,1336,l),
(144,1592,l),
(-206,1592,l),
(-200,1630,ls),
(-186,1718,o),
(-226,1766,o),
(-314,1766,cs),
(-610,1766,l),
(-644,1554,l),
(-560,1554,ls),
(-518,1554,o),
(-496,1530,o),
(-504,1488,cs),
(-530,1336,l)
);
}
);
width = 0;
}
);
unicode = 3657;
}
{
glyphname = "maiTri-thai";
layers = (
{
anchors = (
{
name = _top;
pos = (-104,1202);
},
{
name = top;
pos = (-26,1690);
}
);
layerId = "200BE2C5-40F6-4CF4-AF4F-A33C0CC0964F";
shapes = (
{
closed = 1;
nodes = (
(-672,1394,l),
(-650,1534,ls),
(-638,1604,o),
(-606,1638,o),
(-540,1652,c),
(-576,1670,l),
(-440,1518,l),
(-428,1518,l),
(-240,1670,l),
(-282,1652,l),
(-216,1638,o),
(-200,1604,o),
(-210,1534,cs),
(-234,1394,l),
(16,1394,l),
(20,1438,l),
(-202,1438,l),
(-184,1418,l),
(-166,1530,ls),
(-150,1626,o),
(-192,1680,o),
(-280,1690,c),
(-428,1570,l),
(-432,1570,l),
(-540,1690,l),
(-632,1680,o),
(-680,1628,o),
(-694,1534,cs),
(-718,1394,l)
);
}
);
width = 0;
},
{
anchors = (
{
name = _top;
pos = (-58,1202);
},
{
name = top;
pos = (36,1756);
}
);
layerId = "11F4534A-B963-4AB5-820F-DAF9A20CD933";
shapes = (
{
closed = 1;
nodes = (
(-600,1362,l),
(-570,1538,ls),
(-566,1562,o),
(-552,1588,o),
(-522,1598,c),
(-546,1602,l),
(-424,1498,l),
(-400,1498,l),
(-244,1602,l),
(-266,1596,l),
(-242,1588,o),
(-234,1562,o),
(-238,1538,cs),
(-266,1362,l),
(24,1362,l),
(48,1506,l),
(-174,1506,l),
(-116,1424,l),
(-92,1566,ls),
(-74,1680,o),
(-124,1746,o),
(-238,1756,c),
(-390,1650,l),
(-398,1650,l),
(-516,1756,l),
(-626,1746,o),
(-700,1676,o),
(-718,1560,cs),
(-750,1362,l)
);
}
);
width = 0;
},
{
anchors = (
{
name = _top;
pos = (4,1202);
},
{
name = top;
pos = (98,1776);
}
);
layerId = "D0EC06BF-13F9-4C88-A6F5-B8203AF6C77E";
shapes = (
{
closed = 1;
nodes = (
(-588,1336,l),
(-568,1456,ls),
(-564,1480,o),
(-548,1504,o),
(-524,1518,c),
(-580,1554,l),
(-482,1448,l),
(-460,1448,l),
(-328,1554,l),
(-392,1518,l),
(-374,1506,o),
(-364,1482,o),
(-368,1456,cs),
(-390,1336,l),
(48,1336,l),
(84,1560,l),
(-94,1560,l),
(-70,1482,l),
(-64,1532,ls),
(-38,1678,o),
(-116,1770,o),
(-296,1776,c),
(-440,1662,l),
(-446,1662,l),
(-554,1776,l),
(-732,1770,o),
(-858,1674,o),
(-882,1522,cs),
(-912,1336,l)
);
}
);
width = 0;
}
);
unicode = 3658;
}
{
glyphname = "maiChattawa-thai";
layers = (
{
anchors = (
{
name = _top;
pos = (-104,1202);
},
{
name = top;
pos = (-24,1704);
}
);
layerId = "200BE2C5-40F6-4CF4-AF4F-A33C0CC0964F";
shapes = (
{
closed = 1;
nodes = (
(-76,1394,l),
(-24,1704,l),
(-70,1704,l),
(-120,1394,l)
);
},
{
closed = 1;
nodes = (
(100,1528,l),
(108,1570,l),
(-246,1570,l),
(-252,1528,l)
);
}
);
width = 0;
},
{
anchors = (
{
name = _top;
pos = (-58,1202);
},
{
name = top;
pos = (30,1778);
}
);
layerId = "11F4534A-B963-4AB5-820F-DAF9A20CD933";
shapes = (
{
closed = 1;
nodes = (
(-38,1362,l),
(30,1778,l),
(-132,1778,l),
(-200,1362,l)
);
},
{
closed = 1;
nodes = (
(156,1512,l),
(176,1630,l),
(-326,1630,l),
(-346,1512,l)
);
}
);
width = 0;
},
{
anchors = (
{
name = _top;
pos = (4,1202);
},
{
name = top;
pos = (74,1832);
}
);
layerId = "D0EC06BF-13F9-4C88-A6F5-B8203AF6C77E";
shapes = (
{
closed = 1;
nodes = (
(-8,1336,l),
(74,1832,l),
(-264,1832,l),
(-346,1336,l)
);
},
{
closed = 1;
nodes = (
(188,1474,l),
(226,1700,l),
(-460,1700,l),
(-498,1474,l)
);
}
);
width = 0;
}
);
unicode = 3659;
}
{
glyphname = "thanthakhat-thai";
layers = (
{
anchors = (
{
name = _top;
pos = (-104,1202);
},
{
name = top;
pos = (-36,1626);
}
);
layerId = "200BE2C5-40F6-4CF4-AF4F-A33C0CC0964F";
shapes = (
{
closed = 1;
nodes = (
(-300,1394,l),
(-290,1452,ls),
(-276,1542,o),
(-224,1584,o),
(-134,1584,cs),
(70,1584,l),
(78,1626,l),
(-130,1626,ls),
(-250,1626,o),
(-314,1570,o),
(-334,1454,cs),
(-344,1394,l)
);
}
);
width = 0;
},
{
anchors = (
{
name = _top;
pos = (-58,1202);
},
{
name = top;
pos = (14,1632);
}
);
layerId = "11F4534A-B963-4AB5-820F-DAF9A20CD933";
shapes = (
{
closed = 1;
nodes = (
(-202,1362,l),
(-196,1398,ls),
(-182,1460,o),
(-150,1490,o),
(-90,1490,cs),
(96,1490,l),
(118,1632,l),
(-98,1632,ls),
(-240,1632,o),
(-330,1552,o),
(-354,1410,cs),
(-362,1362,l)
);
}
);
width = 0;
},
{
anchors = (
{
name = _top;
pos = (4,1202);
},
{
name = top;
pos = (92,1742);
}
);
layerId = "D0EC06BF-13F9-4C88-A6F5-B8203AF6C77E";
shapes = (
{
closed = 1;
nodes = (
(-202,1336,l),
(-196,1382,ls),
(-186,1444,o),
(-148,1472,o),
(-82,1472,cs),
(102,1472,l),
(148,1742,l),
(-176,1742,ls),
(-380,1742,o),
(-514,1634,o),
(-544,1450,cs),
(-562,1336,l)
);
}
);
width = 0;
}
);
unicode = 3660;
}
{
glyphname = "nikhahit-thai";
layers = (
{
anchors = (
{
name = _top;
pos = (-104,1202);
},
{
name = top;
pos = (-50,1640);
}
);
layerId = "200BE2C5-40F6-4CF4-AF4F-A33C0CC0964F";
shapes = (
{
closed = 1;
nodes = (
(4,1366,o),
(74,1436,o),
(74,1528,cs),
(74,1610,o),
(10,1676,o),
(-78,1676,cs),
(-170,1676,o),
(-240,1604,o),
(-240,1514,cs),
(-240,1432,o),
(-176,1366,o),
(-88,1366,cs)
);
},
{
closed = 1;
nodes = (
(-150,1408,o),
(-192,1454,o),
(-192,1516,cs),
(-192,1580,o),
(-146,1634,o),
(-78,1634,cs),
(-14,1634,o),
(28,1588,o),
(28,1526,cs),
(28,1462,o),
(-20,1408,o),
(-88,1408,cs)
);
}
);
width = 0;
},
{
anchors = (
{
name = _top;
pos = (-58,1202);
},
{
name = top;
pos = (12,1682);
}
);
layerId = "11F4534A-B963-4AB5-820F-DAF9A20CD933";
shapes = (
{
closed = 1;
nodes = (
(14,1342,o),
(100,1420,o),
(98,1530,cs),
(100,1626,o),
(26,1690,o),
(-80,1690,cs),
(-198,1690,o),
(-282,1612,o),
(-284,1502,cs),
(-282,1408,o),
(-212,1342,o),
(-104,1342,cs)
);
},
{
closed = 1;
nodes = (
(-134,1440,o),
(-158,1466,o),
(-158,1500,cs),
(-156,1554,o),
(-126,1592,o),
(-84,1592,cs),
(-52,1592,o),
(-28,1566,o),
(-28,1532,cs),
(-26,1480,o),
(-58,1440,o),
(-102,1440,cs)
);
}
);
width = 0;
},
{
anchors = (
{
name = _top;
pos = (4,1202);
},
{
name = top;
pos = (42,1758);
}
);
layerId = "D0EC06BF-13F9-4C88-A6F5-B8203AF6C77E";
shapes = (
{
closed = 1;
nodes = (
(4,1288,o),
(134,1408,o),
(132,1570,cs),
(132,1712,o),
(18,1810,o),
(-144,1810,cs),
(-324,1810,o),
(-452,1692,o),
(-454,1526,cs),
(-452,1388,o),
(-338,1288,o),
(-174,1288,cs)
);
},
{
closed = 1;
nodes = (
(-210,1458,o),
(-238,1486,o),
(-238,1528,cs),
(-238,1596,o),
(-204,1640,o),
(-150,1640,cs),
(-110,1640,o),
(-84,1610,o),
(-84,1568,cs),
(-82,1502,o),
(-116,1458,o),
(-170,1458,cs)
);
}
);
width = 0;
}
);
unicode = 3661;
}
{
glyphname = "yamakkan-thai";
layers = (
{
anchors = (
{
name = _top;
pos = (-104,1202);
}
);
layerId = "200BE2C5-40F6-4CF4-AF4F-A33C0CC0964F";
shapes = (
{
closed = 1;
nodes = (
(-270,1394,l),
(-260,1456,ls),
(-252,1506,o),
(-228,1528,o),
(-178,1528,cs),
(-88,1528,l),
(-78,1592,ls),
(-70,1638,o),
(-46,1660,o),
(0,1660,cs),
(54,1660,l),
(62,1702,l),
(0,1702,ls),
(-68,1702,o),
(-110,1664,o),
(-120,1598,cs),
(-124,1570,l),
(-178,1570,ls),
(-250,1570,o),
(-288,1534,o),
(-302,1462,cs),
(-314,1394,l)
);
}
);
width = 0;
},
{
anchors = (
{
name = _top;
pos = (-58,1202);
}
);
layerId = "11F4534A-B963-4AB5-820F-DAF9A20CD933";
shapes = (
{
closed = 1;
nodes = (
(-144,1362,l),
(-138,1396,ls),
(-130,1436,o),
(-116,1450,o),
(-76,1450,cs),
(-14,1450,l),
(0,1536,ls),
(2,1560,o),
(14,1568,o),
(40,1568,cs),
(118,1568,l),
(140,1698,l),
(-14,1698,ls),
(-86,1698,o),
(-132,1660,o),
(-144,1588,cs),
(-148,1560,l),
(-160,1560,ls),
(-232,1560,o),
(-278,1522,o),
(-290,1450,cs),
(-304,1362,l)
);
}
);
width = 0;
},
{
anchors = (
{
name = _top;
pos = (4,1202);
}
);
layerId = "D0EC06BF-13F9-4C88-A6F5-B8203AF6C77E";
shapes = (
{
closed = 1;
nodes = (
(-200,1336,l),
(-192,1374,ls),
(-184,1420,o),
(-166,1438,o),
(-122,1438,cs),
(-28,1438,l),
(-12,1534,ls),
(-8,1562,o),
(6,1572,o),
(36,1572,cs),
(96,1572,l),
(132,1792,l),
(-70,1792,ls),
(-158,1792,o),
(-214,1744,o),
(-228,1656,cs),
(-234,1614,l),
(-296,1614,ls),
(-420,1614,o),
(-502,1544,o),
(-522,1420,cs),
(-536,1336,l)
);
}
);
width = 0;
}
);
unicode = 3662;
}
{
glyphname = "fongman-thai";
layers = (
{
layerId = "200BE2C5-40F6-4CF4-AF4F-A33C0CC0964F";
shapes = (
{
closed = 1;
nodes = (
(830,86,o),
(1068,324,o),
(1068,620,cs),
(1068,864,o),
(898,1032,o),
(654,1032,cs),
(360,1032,o),
(114,788,o),
(114,498,cs),
(114,256,o),
(288,86,o),
(534,86,cs)
);
},
{
closed = 1;
nodes = (
(314,130,o),
(160,280,o),
(162,500,cs),
(160,764,o),
(388,988,o),
(652,988,cs),
(874,988,o),
(1022,840,o),
(1022,618,cs),
(1020,348,o),
(800,130,o),
(536,130,cs)
);
},
{
closed = 1;
nodes = (
(718,310,o),
(842,434,o),
(842,590,cs),
(844,720,o),
(754,808,o),
(626,808,cs),
(470,808,o),
(338,680,o),
(338,526,cs),
(340,400,o),
(432,310,o),
(562,310,cs)
);
},
{
closed = 1;
nodes = (
(462,354,o),
(386,426,o),
(386,530,cs),
(386,656,o),
(494,766,o),
(620,766,cs),
(726,766,o),
(796,692,o),
(796,586,cs),
(796,458,o),
(692,354,o),
(566,354,cs)
);
}
);
width = 1182;
},
{
layerId = "11F4534A-B963-4AB5-820F-DAF9A20CD933";
shapes = (
{
closed = 1;
nodes = (
(880,84,o),
(1118,316,o),
(1118,614,cs),
(1118,870,o),
(920,1056,o),
(646,1056,cs),
(340,1056,o),
(100,824,o),
(100,526,cs),
(100,270,o),
(298,84,o),
(572,84,cs)
);
},
{
closed = 1;
nodes = (
(386,214,o),
(248,350,o),
(248,534,cs),
(248,756,o),
(418,926,o),
(638,926,cs),
(830,926,o),
(970,792,o),
(970,608,cs),
(970,386,o),
(800,214,o),
(578,214,cs)
);
},
{
closed = 1;
nodes = (
(744,316,o),
(862,438,o),
(862,596,cs),
(864,730,o),
(764,824,o),
(630,824,cs),
(476,824,o),
(356,702,o),
(358,544,cs),
(358,412,o),
(454,316,o),
(590,316,cs)
);
},
{
closed = 1;
nodes = (
(524,430,o),
(478,482,o),
(478,558,cs),
(478,642,o),
(544,710,o),
(626,710,cs),
(696,710,o),
(742,660,o),
(744,584,cs),
(744,502,o),
(674,430,o),
(594,430,cs)
);
}
);
width = 1214;
},
{
layerId = "D0EC06BF-13F9-4C88-A6F5-B8203AF6C77E";
shapes = (
{
closed = 1;
nodes = (
(926,62,o),
(1184,308,o),
(1184,634,cs),
(1184,918,o),
(978,1108,o),
(672,1108,cs),
(330,1108,o),
(72,864,o),
(72,536,cs),
(72,254,o),
(280,62,o),
(586,62,cs)
);
},
{
closed = 1;
nodes = (
(408,242,o),
(274,372,o),
(274,552,cs),
(274,762,o),
(448,928,o),
(664,928,cs),
(852,928,o),
(982,800,o),
(982,618,cs),
(982,408,o),
(810,242,o),
(594,242,cs)
);
},
{
closed = 1;
nodes = (
(766,338,o),
(886,452,o),
(888,600,cs),
(886,734,o),
(788,832,o),
(648,832,cs),
(490,832,o),
(370,716,o),
(370,568,cs),
(370,434,o),
(470,338,o),
(610,338,cs)
);
},
{
closed = 1;
nodes = (
(560,478,o),
(526,512,o),
(528,564,cs),
(528,636,o),
(580,692,o),
(646,692,cs),
(696,692,o),
(730,656,o),
(730,606,cs),
(730,536,o),
(676,478,o),
(610,478,cs)
);
}
);
width = 1246;
}
);
unicode = 3663;
}
{
glyphname = "zero-thai";
kernLeft = "zero-thai";
kernRight = "zero-thai";
layers = (
{
layerId = "200BE2C5-40F6-4CF4-AF4F-A33C0CC0964F";
shapes = (
{
closed = 1;
nodes = (
(830,-24,o),
(1092,272,o),
(1090,642,cs),
(1090,906,o),
(924,1082,o),
(676,1082,cs),
(346,1082,o),
(88,790,o),
(88,418,cs),
(86,154,o),
(254,-24,o),
(502,-24,cs)
);
},
{
closed = 1;
nodes = (
(278,20,o),
(136,176,o),
(136,418,cs),
(136,760,o),
(376,1038,o),
(674,1038,cs),
(898,1038,o),
(1042,882,o),
(1042,640,cs),
(1042,298,o),
(800,20,o),
(504,20,cs)
);
}
);
width = 1188;
},
{
layerId = "11F4534A-B963-4AB5-820F-DAF9A20CD933";
shapes = (
{
closed = 1;
nodes = (
(898,-24,o),
(1176,260,o),
(1176,614,cs),
(1176,900,o),
(996,1082,o),
(714,1082,cs),
(364,1082,o),
(92,802,o),
(90,446,cs),
(92,162,o),
(274,-24,o),
(554,-24,cs)
);
},
{
closed = 1;
nodes = (
(386,130,o),
(268,256,o),
(268,444,cs),
(268,708,o),
(466,928,o),
(700,928,cs),
(880,928,o),
(998,800,o),
(1000,608,cs),
(998,344,o),
(806,130,o),
(568,130,cs)
);
}
);
width = 1276;
},
{
layerId = "D0EC06BF-13F9-4C88-A6F5-B8203AF6C77E";
shapes = (
{
closed = 1;
nodes = (
(954,-20,o),
(1230,238,o),
(1230,590,cs),
(1232,892,o),
(1024,1082,o),
(702,1082,cs),
(324,1082,o),
(48,826,o),
(48,472,cs),
(48,172,o),
(254,-20,o),
(576,-20,cs)
);
},
{
closed = 1;
nodes = (
(508,276,o),
(460,338,o),
(460,450,cs),
(462,646,o),
(554,792,o),
(682,792,cs),
(770,792,o),
(818,730,o),
(818,616,cs),
(818,422,o),
(722,276,o),
(596,276,cs)
);
}
);
width = 1287;
}
);
metricRight = "=|";
unicode = 3664;
}
{
glyphname = "one-thai";
kernLeft = "zero-thai";
kernRight = "zero-thai";
layers = (
{
layerId = "200BE2C5-40F6-4CF4-AF4F-A33C0CC0964F";
shapes = (
{
closed = 1;
nodes = (
(814,-4,o),
(1070,326,o),
(1068,674,cs),
(1068,926,o),
(904,1082,o),
(642,1082,cs),
(330,1082,o),
(110,870,o),
(110,570,cs),
(110,374,o),
(240,254,o),
(446,254,cs),
(484,254,o),
(518,256,o),
(550,264,c),
(550,308,l),
(520,300,o),
(486,296,o),
(452,296,cs),
(268,296,o),
(160,400,o),
(158,572,cs),
(158,842,o),
(360,1038,o),
(640,1038,cs),
(878,1038,o),
(1022,902,o),
(1022,672,cs),
(1022,352,o),
(786,44,o),
(484,-30,c),
(482,-78,l)
);
}
);
width = 1158;
},
{
layerId = "11F4534A-B963-4AB5-820F-DAF9A20CD933";
shapes = (
{
closed = 1;
nodes = (
(860,-114,o),
(1156,198,o),
(1156,604,cs),
(1156,908,o),
(982,1082,o),
(680,1082,cs),
(344,1082,o),
(102,870,o),
(102,574,cs),
(102,348,o),
(242,208,o),
(468,208,cs),
(522,208,o),
(574,214,o),
(630,232,c),
(626,372,l),
(586,360,o),
(550,354,o),
(510,354,cs),
(360,354,o),
(278,434,o),
(278,576,cs),
(278,782,o),
(440,928,o),
(664,928,cs),
(868,928,o),
(978,810,o),
(980,594,cs),
(978,280,o),
(746,28,o),
(412,-18,c),
(414,-180,l)
);
}
);
width = 1256;
},
{
layerId = "D0EC06BF-13F9-4C88-A6F5-B8203AF6C77E";
shapes = (
{
closed = 1;
nodes = (
(898,-136,o),
(1224,170,o),
(1222,574,cs),
(1224,900,o),
(1020,1082,o),
(666,1082,cs),
(300,1082,o),
(58,888,o),
(60,598,cs),
(58,376,o),
(202,238,o),
(426,238,cs),
(498,238,o),
(568,252,o),
(630,280,c),
(626,512,l),
(606,504,o),
(584,500,o),
(562,500,cs),
(490,500,o),
(452,540,o),
(452,616,cs),
(452,730,o),
(536,818,o),
(646,818,cs),
(758,818,o),
(820,738,o),
(820,594,cs),
(820,346,o),
(662,140,o),
(436,92,c),
(420,-180,l)
);
}
);
width = 1278;
}
);
unicode = 3665;
}
{
glyphname = "two-thai";
layers = (
{
layerId = "200BE2C5-40F6-4CF4-AF4F-A33C0CC0964F";
shapes = (
{
closed = 1;
nodes = (
(966,-14,o),
(1214,166,o),
(1262,450,cs),
(1312,756,ls),
(1342,936,o),
(1280,1052,o),
(1144,1082,c),
(962,944,l),
(954,944,l),
(814,1082,l),
(656,1054,o),
(542,912,o),
(542,738,cs),
(542,586,o),
(642,482,o),
(792,482,cs),
(834,482,o),
(874,492,o),
(914,506,c),
(908,548,l),
(872,534,o),
(832,526,o),
(794,526,cs),
(668,526,o),
(588,608,o),
(590,738,cs),
(588,884,o),
(686,1016,o),
(812,1042,c),
(792,1044,l),
(950,890,l),
(962,890,l),
(1168,1044,l),
(1130,1042,l),
(1244,1016,o),
(1292,922,o),
(1266,766,cs),
(1216,458,ls),
(1174,198,o),
(942,30,o),
(628,30,cs),
(314,30,o),
(140,198,o),
(184,458,cs),
(328,1338,l),
(282,1338,l),
(138,466,ls),
(90,176,o),
(284,-14,o),
(628,-14,cs)
);
}
);
width = 1424;
},
{
layerId = "11F4534A-B963-4AB5-820F-DAF9A20CD933";
shapes = (
{
closed = 1;
nodes = (
(992,-24,o),
(1228,136,o),
(1270,392,cs),
(1336,786,ls),
(1366,958,o),
(1286,1060,o),
(1118,1074,c),
(964,956,l),
(952,956,l),
(830,1074,l),
(646,1050,o),
(516,896,o),
(516,702,cs),
(516,532,o),
(624,424,o),
(792,424,cs),
(838,424,o),
(884,432,o),
(926,448,c),
(926,590,l),
(892,576,o),
(862,570,o),
(832,570,cs),
(742,570,o),
(690,626,o),
(690,722,cs),
(690,820,o),
(740,906,o),
(806,920,c),
(798,922,l),
(914,816,l),
(976,816,l),
(1122,924,l),
(1110,920,l),
(1156,912,o),
(1180,866,o),
(1170,804,cs),
(1108,424,ls),
(1078,242,o),
(908,130,o),
(664,130,cs),
(414,130,o),
(276,244,o),
(306,424,cs),
(456,1338,l),
(286,1338,l),
(138,440,ls),
(92,158,o),
(294,-24,o),
(658,-24,cs)
);
}
);
width = 1450;
},
{
layerId = "D0EC06BF-13F9-4C88-A6F5-B8203AF6C77E";
shapes = (
{
closed = 1;
nodes = (
(1168,-24,o),
(1422,144,o),
(1474,460,cs),
(1518,722,ls),
(1552,928,o),
(1422,1064,o),
(1176,1082,c),
(1066,972,l),
(1054,972,l),
(982,1082,l),
(730,1058,o),
(574,898,o),
(572,668,cs),
(572,482,o),
(678,372,o),
(862,372,cs),
(920,372,o),
(972,384,o),
(1012,404,c),
(1008,616,l),
(996,610,o),
(978,606,o),
(962,606,cs),
(914,606,o),
(890,640,o),
(890,696,cs),
(890,774,o),
(936,828,o),
(1002,830,c),
(964,846,l),
(1014,766,l),
(1046,766,l),
(1126,850,l),
(1086,830,l),
(1136,828,o),
(1162,786,o),
(1152,726,cs),
(1116,498,ls),
(1090,344,o),
(970,262,o),
(766,262,cs),
(556,262,o),
(440,352,o),
(466,498,cs),
(604,1338,l),
(216,1338,l),
(80,516,ls),
(24,178,o),
(270,-24,o),
(740,-24,cs)
);
}
);
width = 1568;
}
);
unicode = 3666;
}
{
glyphname = "three-thai";
kernLeft = "three-thai";
layers = (
{
layerId = "200BE2C5-40F6-4CF4-AF4F-A33C0CC0964F";
shapes = (
{
closed = 1;
nodes = (
(466,-14,o),
(514,-8,o),
(550,8,c),
(542,50,l),
(502,36,o),
(460,30,o),
(416,30,cs),
(240,30,o),
(148,150,o),
(148,378,cs),
(148,754,o),
(304,1038,o),
(510,1038,cs),
(644,1038,o),
(714,940,o),
(688,788,cs),
(632,440,l),
(678,440,l),
(734,788,ls),
(760,940,o),
(868,1038,o),
(1010,1038,cs),
(1146,1038,o),
(1204,952,o),
(1176,788,cs),
(1048,0,l),
(1094,0,l),
(1224,784,ls),
(1254,970,o),
(1176,1082,o),
(1014,1082,cs),
(890,1082,o),
(792,1022,o),
(732,910,c),
(726,910,l),
(706,1020,o),
(628,1082,o),
(510,1082,cs),
(274,1082,o),
(100,782,o),
(102,376,cs),
(102,122,o),
(212,-14,o),
(416,-14,cs)
);
}
);
width = 1346;
},
{
layerId = "11F4534A-B963-4AB5-820F-DAF9A20CD933";
shapes = (
{
closed = 1;
nodes = (
(514,-14,o),
(560,-8,o),
(600,8,c),
(590,150,l),
(566,144,o),
(534,140,o),
(506,140,cs),
(368,140,o),
(304,228,o),
(304,418,cs),
(302,702,o),
(422,920,o),
(580,920,cs),
(674,920,o),
(720,858,o),
(704,756,cs),
(632,328,l),
(796,328,l),
(866,762,ls),
(880,856,o),
(948,920,o),
(1032,920,cs),
(1114,920,o),
(1162,856,o),
(1146,762,cs),
(1020,0,l),
(1188,0,l),
(1318,778,ls),
(1348,954,o),
(1250,1074,o),
(1078,1074,cs),
(962,1074,o),
(860,1018,o),
(818,932,c),
(808,932,l),
(786,1020,o),
(704,1074,o),
(584,1074,cs),
(326,1074,o),
(126,784,o),
(126,408,cs),
(126,144,o),
(254,-14,o),
(468,-14,cs)
);
}
);
width = 1442;
},
{
layerId = "D0EC06BF-13F9-4C88-A6F5-B8203AF6C77E";
shapes = (
{
closed = 1;
nodes = (
(488,-14,o),
(558,-2,o),
(620,22,c),
(606,290,l),
(582,282,o),
(558,278,o),
(536,278,cs),
(466,278,o),
(438,316,o),
(438,410,cs),
(438,610,o),
(504,804,o),
(574,804,cs),
(610,804,o),
(628,776,o),
(620,724,cs),
(562,378,l),
(862,378,l),
(920,730,ls),
(928,776,o),
(956,804,o),
(992,804,cs),
(1030,804,o),
(1048,776,o),
(1040,730,cs),
(920,0,l),
(1306,0,l),
(1430,750,ls),
(1466,960,o),
(1358,1082,o),
(1144,1082,cs),
(998,1082,o),
(882,1026,o),
(808,920,c),
(796,920,l),
(772,1024,o),
(680,1082,o),
(544,1082,cs),
(262,1082,o),
(56,804,o),
(56,418,cs),
(56,134,o),
(182,-14,o),
(420,-14,cs)
);
}
);
width = 1480;
}
);
unicode = 3667;
}
{
glyphname = "four-thai";
kernLeft = "zero-thai";
kernRight = "four-thai";
layers = (
{
layerId = "200BE2C5-40F6-4CF4-AF4F-A33C0CC0964F";
shapes = (
{
closed = 1;
nodes = (
(960,0,l),
(966,34,l),
(740,56,o),
(614,150,o),
(614,296,cs),
(614,432,o),
(716,530,o),
(856,530,cs),
(890,530,o),
(926,524,o),
(960,510,c),
(980,550,l),
(950,564,o),
(902,574,o),
(856,574,cs),
(690,574,o),
(568,456,o),
(566,294,cs),
(568,184,o),
(630,96,o),
(740,50,c),
(738,44,l),
(510,44,ls),
(288,44,o),
(144,204,o),
(142,444,cs),
(142,782,o),
(364,1024,o),
(670,1024,cs),
(932,1024,ls),
(1052,1024,o),
(1124,1084,o),
(1144,1204,cs),
(1166,1338,l),
(1118,1338,l),
(1098,1210,ls),
(1082,1114,o),
(1026,1068,o),
(932,1068,cs),
(670,1068,ls),
(334,1068,o),
(96,810,o),
(96,444,cs),
(96,180,o),
(264,0,o),
(510,0,cs)
);
}
);
width = 1164;
},
{
layerId = "11F4534A-B963-4AB5-820F-DAF9A20CD933";
shapes = (
{
closed = 1;
nodes = (
(1010,0,l),
(1030,114,l),
(884,144,o),
(794,228,o),
(792,334,cs),
(794,422,o),
(852,480,o),
(934,480,cs),
(960,480,o),
(990,476,o),
(1014,462,c),
(1062,602,l),
(1016,620,o),
(968,626,o),
(918,626,cs),
(740,626,o),
(622,522,o),
(622,366,cs),
(622,284,o),
(656,214,o),
(722,158,c),
(720,146,l),
(570,146,ls),
(380,146,o),
(270,264,o),
(268,464,cs),
(270,720,o),
(440,912,o),
(668,912,cs),
(846,912,ls),
(1044,912,o),
(1170,1004,o),
(1198,1172,cs),
(1224,1338,l),
(1060,1338,l),
(1036,1190,ls),
(1022,1102,o),
(968,1058,o),
(874,1058,cs),
(670,1058,ls),
(338,1058,o),
(90,804,o),
(92,464,cs),
(92,176,o),
(272,0,o),
(574,0,cs)
);
}
);
width = 1208;
},
{
layerId = "D0EC06BF-13F9-4C88-A6F5-B8203AF6C77E";
shapes = (
{
closed = 1;
nodes = (
(1090,0,l),
(1132,242,l),
(1038,260,o),
(978,308,o),
(978,364,cs),
(978,404,o),
(1004,430,o),
(1042,430,cs),
(1058,430,o),
(1072,422,o),
(1086,414,c),
(1170,636,l),
(1110,666,o),
(1034,686,o),
(962,686,cs),
(794,686,o),
(680,596,o),
(680,460,cs),
(680,388,o),
(714,320,o),
(772,286,c),
(770,276,l),
(670,276,ls),
(540,276,o),
(464,358,o),
(464,494,cs),
(464,672,o),
(584,798,o),
(756,798,cs),
(974,798,ls),
(1130,798,o),
(1228,870,o),
(1250,1000,cs),
(1304,1338,l),
(980,1338,l),
(948,1148,ls),
(940,1094,o),
(906,1068,o),
(846,1068,cs),
(676,1068,ls),
(306,1068,o),
(50,828,o),
(50,484,cs),
(50,184,o),
(246,0,o),
(566,0,cs)
);
}
);
width = 1244;
}
);
unicode = 3668;
}
{
glyphname = "five-thai";
kernLeft = "zero-thai";
kernRight = "four-thai";
layers = (
{
layerId = "200BE2C5-40F6-4CF4-AF4F-A33C0CC0964F";
shapes = (
{
closed = 1;
nodes = (
(960,0,l),
(966,34,l),
(740,56,o),
(614,150,o),
(614,296,cs),
(614,432,o),
(716,530,o),
(856,530,cs),
(890,530,o),
(926,524,o),
(960,510,c),
(980,550,l),
(950,564,o),
(902,574,o),
(856,574,cs),
(690,574,o),
(568,456,o),
(566,294,cs),
(568,184,o),
(630,96,o),
(740,50,c),
(738,44,l),
(510,44,ls),
(288,44,o),
(144,204,o),
(142,444,cs),
(142,782,o),
(364,1024,o),
(670,1024,cs),
(926,1024,ls),
(1052,1024,o),
(1122,1084,o),
(1144,1210,cs),
(1166,1338,l),
(1118,1338,l),
(1098,1210,ls),
(1082,1114,o),
(1026,1068,o),
(932,1068,cs),
(802,1068,l),
(738,1064,l),
(670,1068,l),
(334,1068,o),
(96,810,o),
(96,444,cs),
(96,180,o),
(264,0,o),
(510,0,cs)
);
},
{
closed = 1;
nodes = (
(820,1024,o),
(890,1094,o),
(892,1186,cs),
(890,1268,o),
(824,1334,o),
(738,1334,cs),
(646,1334,o),
(578,1264,o),
(578,1172,cs),
(576,1088,o),
(642,1024,o),
(728,1024,cs)
);
},
{
closed = 1;
nodes = (
(666,1066,o),
(622,1112,o),
(622,1174,cs),
(622,1240,o),
(672,1292,o),
(738,1292,cs),
(800,1292,o),
(844,1246,o),
(844,1184,cs),
(844,1118,o),
(794,1066,o),
(728,1066,cs)
);
}
);
width = 1164;
},
{
layerId = "11F4534A-B963-4AB5-820F-DAF9A20CD933";
shapes = (
{
closed = 1;
nodes = (
(1010,0,l),
(1030,114,l),
(882,144,o),
(792,228,o),
(792,334,cs),
(792,420,o),
(852,480,o),
(934,480,cs),
(962,480,o),
(990,474,o),
(1014,462,c),
(1064,602,l),
(1018,618,o),
(970,626,o),
(920,626,cs),
(742,626,o),
(622,522,o),
(622,366,cs),
(624,284,o),
(656,212,o),
(722,158,c),
(720,146,l),
(570,146,ls),
(378,146,o),
(268,264,o),
(268,464,cs),
(268,720,o),
(440,912,o),
(668,912,cs),
(846,912,ls),
(1044,912,o),
(1170,1004,o),
(1198,1172,cs),
(1224,1338,l),
(1060,1338,l),
(1036,1190,ls),
(1022,1100,o),
(964,1052,o),
(872,1052,cs),
(750,1052,l),
(666,1038,l),
(586,1042,l),
(294,1002,o),
(92,766,o),
(92,464,cs),
(92,176,o),
(272,0,o),
(574,0,cs)
);
},
{
closed = 1;
nodes = (
(802,974,o),
(898,1060,o),
(898,1180,cs),
(898,1286,o),
(820,1352,o),
(696,1352,cs),
(564,1352,o),
(468,1268,o),
(468,1148,cs),
(468,1040,o),
(546,974,o),
(670,974,cs)
);
},
{
closed = 1;
nodes = (
(634,1074,o),
(606,1102,o),
(606,1146,cs),
(604,1210,o),
(640,1252,o),
(694,1252,cs),
(734,1252,o),
(762,1226,o),
(762,1182,cs),
(760,1116,o),
(726,1074,o),
(674,1074,cs)
);
}
);
width = 1208;
},
{
layerId = "D0EC06BF-13F9-4C88-A6F5-B8203AF6C77E";
shapes = (
{
closed = 1;
nodes = (
(1090,0,l),
(1132,242,l),
(1038,260,o),
(978,308,o),
(978,364,cs),
(978,404,o),
(1004,430,o),
(1042,430,cs),
(1058,430,o),
(1072,422,o),
(1086,414,c),
(1170,636,l),
(1110,666,o),
(1034,686,o),
(962,686,cs),
(794,686,o),
(680,596,o),
(680,460,cs),
(680,388,o),
(714,320,o),
(772,286,c),
(770,276,l),
(670,276,ls),
(540,276,o),
(464,358,o),
(464,494,cs),
(464,672,o),
(584,798,o),
(756,798,cs),
(974,798,ls),
(1130,798,o),
(1228,870,o),
(1250,1000,cs),
(1304,1338,l),
(994,1338,l),
(962,1148,ls),
(954,1094,o),
(922,1068,o),
(862,1068,cs),
(778,1068,l),
(656,1026,l),
(536,1056,l),
(240,1004,o),
(50,780,o),
(50,484,cs),
(50,184,o),
(246,0,o),
(566,0,cs)
);
},
{
closed = 1;
nodes = (
(786,952,o),
(898,1046,o),
(898,1172,cs),
(898,1280,o),
(814,1352,o),
(688,1352,cs),
(542,1352,o),
(428,1258,o),
(428,1134,cs),
(428,1026,o),
(516,952,o),
(642,952,cs)
);
},
{
closed = 1;
nodes = (
(618,1084,o),
(600,1102,o),
(600,1134,cs),
(600,1186,o),
(630,1222,o),
(674,1222,cs),
(706,1222,o),
(724,1202,o),
(724,1170,cs),
(724,1120,o),
(694,1084,o),
(650,1084,cs)
);
}
);
width = 1244;
}
);
unicode = 3669;
}
{
glyphname = "six-thai";
kernRight = "zero-thai";
layers = (
{
layerId = "200BE2C5-40F6-4CF4-AF4F-A33C0CC0964F";
shapes = (
{
closed = 1;
nodes = (
(834,-24,o),
(1092,270,o),
(1092,650,cs),
(1092,914,o),
(934,1082,o),
(692,1082,cs),
(524,1082,o),
(366,1004,o),
(274,876,c),
(266,876,l),
(274,1338,l),
(228,1338,l),
(218,802,l),
(258,802,l),
(348,944,o),
(520,1038,o),
(692,1038,cs),
(908,1038,o),
(1044,886,o),
(1044,648,cs),
(1044,298,o),
(804,20,o),
(498,20,cs),
(276,20,o),
(134,150,o),
(152,340,c),
(128,326,l),
(488,326,l),
(496,370,l),
(112,370,l),
(110,354,ls),
(78,138,o),
(244,-24,o),
(498,-24,cs)
);
}
);
width = 1189;
},
{
layerId = "11F4534A-B963-4AB5-820F-DAF9A20CD933";
shapes = (
{
closed = 1;
nodes = (
(872,-24,o),
(1138,248,o),
(1136,616,cs),
(1136,900,o),
(968,1082,o),
(708,1082,cs),
(568,1082,o),
(438,1032,o),
(344,940,c),
(334,940,l),
(350,1338,l),
(184,1338,l),
(164,752,l),
(308,752,l),
(386,866,o),
(506,928,o),
(648,928,cs),
(842,928,o),
(962,806,o),
(962,600,cs),
(960,328,o),
(772,128,o),
(514,128,cs),
(344,128,o),
(246,210,o),
(260,348,c),
(192,304,l),
(516,304,l),
(540,444,l),
(116,444,l),
(104,382,ls),
(62,142,o),
(228,-24,o),
(514,-24,cs)
);
}
);
width = 1237;
},
{
layerId = "D0EC06BF-13F9-4C88-A6F5-B8203AF6C77E";
shapes = (
{
closed = 1;
nodes = (
(954,-24,o),
(1232,254,o),
(1230,640,cs),
(1230,916,o),
(1082,1082,o),
(836,1082,cs),
(694,1082,o),
(560,1028,o),
(478,940,c),
(466,940,l),
(484,1338,l),
(164,1338,l),
(140,672,l),
(486,672,l),
(532,750,o),
(594,790,o),
(666,790,cs),
(760,790,o),
(814,724,o),
(814,604,cs),
(814,396,o),
(708,238,o),
(568,238,cs),
(480,238,o),
(426,290,o),
(434,370,c),
(366,334,l),
(564,334,l),
(596,530,l),
(110,530,l),
(98,454,ls),
(50,164,o),
(234,-24,o),
(568,-24,cs)
);
}
);
width = 1281;
}
);
metricRight = "zero-thai";
unicode = 3670;
}
{
glyphname = "seven-thai";
kernLeft = "three-thai";
layers = (
{
layerId = "200BE2C5-40F6-4CF4-AF4F-A33C0CC0964F";
shapes = (
{
closed = 1;
nodes = (
(466,-14,o),
(514,-8,o),
(550,8,c),
(542,50,l),
(502,36,o),
(460,30,o),
(416,30,cs),
(240,30,o),
(148,150,o),
(148,378,cs),
(148,748,o),
(298,1038,o),
(494,1038,cs),
(616,1038,o),
(682,936,o),
(658,788,cs),
(602,440,l),
(648,440,l),
(706,788,ls),
(732,940,o),
(834,1038,o),
(966,1038,cs),
(1094,1038,o),
(1146,952,o),
(1118,788,cs),
(990,0,l),
(1026,0,ls),
(1276,0,o),
(1430,130,o),
(1470,372,cs),
(1630,1338,l),
(1584,1338,l),
(1426,378,ls),
(1390,158,o),
(1252,44,o),
(1028,44,cs),
(1022,44,l),
(1040,30,l),
(1166,784,ls),
(1196,972,o),
(1122,1082,o),
(970,1082,cs),
(858,1082,o),
(762,1020,o),
(702,910,c),
(696,910,l),
(674,1018,o),
(598,1082,o),
(494,1082,cs),
(268,1082,o),
(100,778,o),
(102,376,cs),
(102,122,o),
(212,-14,o),
(416,-14,cs)
);
}
);
width = 1654;
},
{
layerId = "11F4534A-B963-4AB5-820F-DAF9A20CD933";
shapes = (
{
closed = 1;
nodes = (
(515,-14,o),
(557,-8,o),
(599,8,c),
(589,150,l),
(563,144,o),
(533,140,o),
(507,140,cs),
(369,140,o),
(305,228,o),
(305,418,cs),
(303,702,o),
(413,920,o),
(559,920,cs),
(643,920,o),
(685,856,o),
(669,756,cs),
(601,358,l),
(765,358,l),
(831,762,ls),
(847,862,o),
(903,920,o),
(989,920,cs),
(1071,920,o),
(1113,860,o),
(1095,762,cs),
(969,0,l),
(1157,0,ls),
(1409,0,o),
(1577,158,o),
(1623,438,cs),
(1773,1338,l),
(1603,1338,l),
(1451,420,ls),
(1419,234,o),
(1331,144,o),
(1181,144,cs),
(1087,144,l),
(1149,62,l),
(1267,778,ls),
(1297,952,o),
(1201,1074,o),
(1037,1074,cs),
(927,1074,o),
(831,1020,o),
(783,932,c),
(771,932,l),
(751,1020,o),
(675,1074,o),
(563,1074,cs),
(315,1074,o),
(127,784,o),
(127,408,cs),
(127,144,o),
(255,-14,o),
(469,-14,cs)
);
}
);
width = 1805;
},
{
layerId = "D0EC06BF-13F9-4C88-A6F5-B8203AF6C77E";
shapes = (
{
closed = 1;
nodes = (
(479,-14,o),
(549,-2,o),
(611,22,c),
(599,290,l),
(575,282,o),
(551,278,o),
(529,278,cs),
(433,278,o),
(411,352,o),
(445,558,cs),
(475,732,o),
(511,804,o),
(567,804,cs),
(603,804,o),
(619,774,o),
(611,724,cs),
(557,400,l),
(835,400,l),
(891,730,ls),
(899,776,o),
(925,804,o),
(961,804,cs),
(999,804,o),
(1017,776,o),
(1009,730,cs),
(889,0,l),
(1207,0,ls),
(1539,0,o),
(1749,166,o),
(1799,466,cs),
(1943,1338,l),
(1579,1338,l),
(1437,478,ls),
(1415,342,o),
(1353,274,o),
(1251,274,cs),
(1143,274,l),
(1255,138,l),
(1357,750,ls),
(1393,962,o),
(1301,1082,o),
(1111,1082,cs),
(981,1082,o),
(871,1026,o),
(801,920,c),
(791,920,l),
(767,1024,o),
(677,1082,o),
(541,1082,cs),
(293,1082,o),
(119,888,o),
(63,544,cs),
(3,184,o),
(125,-14,o),
(407,-14,cs)
);
}
);
width = 1899;
}
);
metricLeft = "three-thai";
unicode = 3671;
}
{
glyphname = "eight-thai";
kernLeft = "zero-thai";
layers = (
{
layerId = "200BE2C5-40F6-4CF4-AF4F-A33C0CC0964F";
shapes = (
{
closed = 1;
nodes = (
(1002,-14,o),
(1130,132,o),
(1130,322,cs),
(1130,454,o),
(1048,540,o),
(920,540,cs),
(876,540,o),
(830,528,o),
(786,510,c),
(786,466,l),
(836,486,o),
(876,496,o),
(916,496,cs),
(1022,496,o),
(1084,434,o),
(1084,324,cs),
(1086,156,o),
(980,30,o),
(838,30,cs),
(708,30,o),
(636,130,o),
(630,322,c),
(590,322,l),
(354,24,l),
(392,44,l),
(242,84,o),
(142,232,o),
(142,422,cs),
(144,766,o),
(370,1024,o),
(670,1024,cs),
(968,1024,ls),
(1094,1024,o),
(1166,1084,o),
(1188,1210,cs),
(1208,1338,l),
(1162,1338,l),
(1142,1210,ls),
(1126,1114,o),
(1070,1068,o),
(976,1068,cs),
(672,1068,ls),
(342,1068,o),
(96,792,o),
(96,422,cs),
(96,210,o),
(212,40,o),
(386,0,c),
(588,256,l),
(594,256,l),
(612,84,o),
(702,-14,o),
(840,-14,cs)
);
}
);
width = 1262;
},
{
layerId = "11F4534A-B963-4AB5-820F-DAF9A20CD933";
shapes = (
{
closed = 1;
nodes = (
(1036,-24,o),
(1176,122,o),
(1178,312,cs),
(1176,464,o),
(1086,562,o),
(940,562,cs),
(896,562,o),
(852,552,o),
(808,536,c),
(812,398,l),
(844,410,o),
(874,414,o),
(904,414,cs),
(968,414,o),
(1006,376,o),
(1006,310,cs),
(1008,206,o),
(932,128,o),
(834,128,cs),
(730,128,o),
(682,212,o),
(690,374,c),
(562,374,l),
(356,114,l),
(456,170,l),
(336,188,o),
(268,292,o),
(268,456,cs),
(268,720,o),
(436,912,o),
(668,912,cs),
(942,912,ls),
(1140,912,o),
(1266,1004,o),
(1294,1172,cs),
(1320,1338,l),
(1154,1338,l),
(1132,1190,ls),
(1116,1102,o),
(1064,1058,o),
(970,1058,cs),
(664,1058,ls),
(336,1058,o),
(88,798,o),
(90,450,cs),
(88,210,o),
(216,38,o),
(426,-6,c),
(566,178,l),
(578,178,l),
(604,56,o),
(710,-24,o),
(848,-24,cs)
);
}
);
width = 1310;
},
{
layerId = "D0EC06BF-13F9-4C88-A6F5-B8203AF6C77E";
shapes = (
{
closed = 1;
nodes = (
(1154,-10,o),
(1304,156,o),
(1302,398,cs),
(1302,594,o),
(1202,696,o),
(1012,696,cs),
(956,696,o),
(898,688,o),
(836,670,c),
(844,458,l),
(872,472,o),
(896,478,o),
(920,478,cs),
(968,478,o),
(996,452,o),
(994,404,cs),
(994,338,o),
(944,288,o),
(878,288,cs),
(806,288,o),
(770,346,o),
(772,456,c),
(634,456,l),
(482,276,l),
(530,290,l),
(480,328,o),
(454,394,o),
(454,478,cs),
(454,662,o),
(574,792,o),
(748,792,cs),
(1074,792,ls),
(1230,792,o),
(1328,864,o),
(1350,994,cs),
(1404,1324,l),
(1080,1324,l),
(1050,1148,ls),
(1042,1094,o),
(1008,1068,o),
(948,1068,cs),
(654,1068,ls),
(308,1068,o),
(52,818,o),
(50,482,cs),
(50,192,o),
(236,0,o),
(514,0,c),
(654,162,l),
(666,162,l),
(700,54,o),
(798,-10,o),
(934,-10,cs)
);
}
);
width = 1380;
}
);
unicode = 3672;
}
{
glyphname = "nine-thai";
kernLeft = "three-thai";
layers = (
{
layerId = "200BE2C5-40F6-4CF4-AF4F-A33C0CC0964F";
shapes = (
{
closed = 1;
nodes = (
(472,-14,o),
(514,-8,o),
(550,8,c),
(542,50,l),
(502,36,o),
(460,30,o),
(416,30,cs),
(240,30,o),
(148,128,o),
(148,392,cs),
(148,728,o),
(290,1038,o),
(494,1038,cs),
(580,1038,o),
(634,980,o),
(672,806,cs),
(848,0,l),
(894,0,l),
(718,810,ls),
(710,842,o),
(710,862,o),
(710,880,cs),
(708,968,o),
(762,1024,o),
(840,1024,cs),
(946,1024,ls),
(1066,1024,o),
(1138,1084,o),
(1158,1204,cs),
(1180,1338,l),
(1134,1338,l),
(1112,1210,ls),
(1096,1114,o),
(1040,1068,o),
(946,1068,cs),
(840,1068,ls),
(754,1068,o),
(698,1022,o),
(680,942,c),
(676,942,l),
(642,1036,o),
(582,1082,o),
(494,1082,cs),
(268,1082,o),
(100,752,o),
(100,392,cs),
(102,96,o),
(220,-14,o),
(416,-14,cs)
);
}
);
width = 1164;
},
{
layerId = "11F4534A-B963-4AB5-820F-DAF9A20CD933";
shapes = (
{
closed = 1;
nodes = (
(506,-14,o),
(548,-8,o),
(592,8,c),
(582,150,l),
(558,144,o),
(528,140,o),
(504,140,cs),
(370,140,o),
(302,236,o),
(302,422,cs),
(302,698,o),
(414,920,o),
(550,920,cs),
(612,920,o),
(642,886,o),
(658,810,cs),
(808,0,l),
(986,0,l),
(846,726,ls),
(842,754,o),
(838,774,o),
(838,790,cs),
(840,876,o),
(880,912,o),
(974,912,cs),
(1022,912,ls),
(1178,912,o),
(1282,1008,o),
(1310,1176,cs),
(1336,1338,l),
(1170,1338,l),
(1144,1176,ls),
(1130,1098,o),
(1094,1058,o),
(1028,1058,cs),
(968,1058,ls),
(894,1058,o),
(834,1018,o),
(802,942,c),
(792,942,l),
(758,1028,o),
(674,1074,o),
(564,1074,cs),
(308,1074,o),
(126,798,o),
(126,414,cs),
(128,142,o),
(248,-14,o),
(460,-14,cs)
);
}
);
width = 1234;
},
{
layerId = "D0EC06BF-13F9-4C88-A6F5-B8203AF6C77E";
shapes = (
{
closed = 1;
nodes = (
(488,-14,o),
(556,-2,o),
(608,22,c),
(594,290,l),
(572,282,o),
(550,278,o),
(528,278,cs),
(454,278,o),
(426,326,o),
(426,448,cs),
(426,640,o),
(494,804,o),
(572,804,cs),
(606,804,o),
(630,780,o),
(638,728,cs),
(762,0,l),
(1118,0,l),
(1006,660,ls),
(998,716,o),
(996,714,o),
(996,726,cs),
(994,772,o),
(1022,798,o),
(1068,798,cs),
(1122,798,ls),
(1266,798,o),
(1350,868,o),
(1374,1010,cs),
(1428,1346,l),
(1100,1346,l),
(1066,1148,ls),
(1058,1094,o),
(1024,1068,o),
(964,1068,cs),
(912,1068,ls),
(840,1068,o),
(784,1026,o),
(754,950,c),
(742,950,l),
(712,1032,o),
(624,1082,o),
(502,1082,cs),
(236,1082,o),
(46,812,o),
(46,436,cs),
(46,142,o),
(176,-14,o),
(418,-14,cs)
);
}
);
width = 1322;
}
);
unicode = 3673;
}
{
glyphname = "khomut-thai";
layers = (
{
layerId = "200BE2C5-40F6-4CF4-AF4F-A33C0CC0964F";
shapes = (
{
closed = 1;
nodes = (
(600,258,o),
(754,414,o),
(858,716,c),
(862,716,l),
(946,322,l),
(990,322,l),
(1188,672,l),
(1192,672,l),
(1240,444,ls),
(1254,378,o),
(1294,344,o),
(1356,344,cs),
(1386,344,o),
(1410,352,o),
(1432,366,c),
(1432,404,l),
(1408,392,o),
(1382,386,o),
(1358,386,cs),
(1314,386,o),
(1292,406,o),
(1282,454,cs),
(1220,744,l),
(1180,744,l),
(978,392,l),
(974,392,l),
(892,784,l),
(848,784,l),
(732,458,o),
(590,302,o),
(412,302,cs),
(270,302,o),
(178,394,o),
(176,536,cs),
(176,706,o),
(294,830,o),
(456,830,cs),
(496,830,o),
(538,822,o),
(568,808,c),
(582,852,l),
(548,866,o),
(502,872,o),
(458,872,cs),
(268,872,o),
(130,732,o),
(130,536,cs),
(130,372,o),
(242,258,o),
(410,258,cs)
);
}
);
width = 1500;
},
{
layerId = "11F4534A-B963-4AB5-820F-DAF9A20CD933";
shapes = (
{
closed = 1;
nodes = (
(668,198,o),
(842,370,o),
(912,664,c),
(924,664,l),
(992,270,l),
(1114,270,l),
(1288,610,l),
(1298,610,l),
(1320,488,ls),
(1338,382,o),
(1396,330,o),
(1498,330,cs),
(1538,330,o),
(1572,336,o),
(1606,354,c),
(1602,470,l),
(1578,460,o),
(1554,456,o),
(1532,456,cs),
(1486,456,o),
(1462,476,o),
(1454,528,cs),
(1402,808,l),
(1250,808,l),
(1092,496,l),
(1080,496,l),
(1016,852,l),
(840,852,l),
(748,518,o),
(620,352,o),
(456,352,cs),
(346,352,o),
(278,426,o),
(278,540,cs),
(278,686,o),
(390,792,o),
(544,792,cs),
(580,792,o),
(618,788,o),
(652,776,c),
(700,914,l),
(654,930,o),
(600,940,o),
(544,940,cs),
(290,940,o),
(100,764,o),
(100,526,cs),
(100,332,o),
(238,198,o),
(442,198,cs)
);
}
);
width = 1668;
},
{
layerId = "D0EC06BF-13F9-4C88-A6F5-B8203AF6C77E";
shapes = (
{
closed = 1;
nodes = (
(718,168,o),
(900,306,o),
(988,556,c),
(1000,556,l),
(1036,270,l),
(1296,270,l),
(1432,514,l),
(1444,514,l),
(1474,430,ls),
(1508,342,o),
(1572,302,o),
(1678,302,cs),
(1728,302,o),
(1774,310,o),
(1810,326,c),
(1848,550,l),
(1824,542,o),
(1800,536,o),
(1776,536,cs),
(1730,536,o),
(1712,552,o),
(1694,608,cs),
(1602,874,l),
(1366,874,l),
(1246,664,l),
(1234,664,l),
(1204,918,l),
(946,918,l),
(802,596,o),
(706,478,o),
(584,478,cs),
(512,478,o),
(472,520,o),
(472,592,cs),
(472,682,o),
(540,750,o),
(636,750,cs),
(666,750,o),
(694,742,o),
(712,734,c),
(756,1006,l),
(710,1020,o),
(654,1028,o),
(592,1028,cs),
(286,1028,o),
(76,832,o),
(74,552,cs),
(76,316,o),
(232,168,o),
(480,168,cs)
);
}
);
width = 1850;
}
);
unicode = 3675;
}
{
glyphname = "doChada-thai.short";
layers = (
{
anchors = (
{
name = bottom;
pos = (882,-264);
},
{
name = top;
pos = (1112,1202);
}
);
layerId = "200BE2C5-40F6-4CF4-AF4F-A33C0CC0964F";
shapes = (
{
closed = 1;
nodes = (
(206,-146,o),
(320,-88,o),
(464,-88,cs),
(608,-88,o),
(730,-146,o),
(832,-264,c),
(882,-264,l),
(1060,804,ls),
(1102,1054,o),
(960,1218,o),
(698,1218,cs),
(434,1218,o),
(244,1064,o),
(200,824,cs),
(194,784,l),
(406,760,l),
(404,754,l),
(316,726,o),
(264,652,o),
(242,520,cs),
(184,174,ls),
(170,92,o),
(122,44,o),
(56,44,cs),
(-16,44,l),
(-24,0,l),
(52,0,ls),
(146,0,o),
(212,62,o),
(230,166,cs),
(288,516,ls),
(316,684,o),
(402,754,o),
(550,744,cs),
(570,742,l),
(576,782,l),
(224,824,l),
(242,788,l),
(246,816,ls),
(280,1034,o),
(456,1174,o),
(696,1174,cs),
(930,1174,o),
(1054,1034,o),
(1016,812,cs),
(846,-216,l),
(840,-216,l),
(734,-104,o),
(602,-44,o),
(462,-44,cs),
(306,-44,o),
(176,-110,o),
(72,-242,c),
(106,-270,l)
);
}
);
width = 1230;
},
{
anchors = (
{
name = bottom;
pos = (968,-410);
},
{
name = top;
pos = (1220,1202);
}
);
layerId = "11F4534A-B963-4AB5-820F-DAF9A20CD933";
shapes = (
{
closed = 1;
nodes = (
(210,-290,o),
(326,-216,o),
(466,-216,cs),
(600,-216,o),
(704,-284,o),
(762,-410,c),
(968,-410,l),
(1158,754,ls),
(1204,1040,o),
(1030,1226,o),
(724,1226,cs),
(424,1226,o),
(220,1054,o),
(170,780,cs),
(158,718,l),
(364,688,l),
(362,676,l),
(260,648,o),
(194,558,o),
(170,420,cs),
(148,290,ls),
(132,200,o),
(84,154,o),
(2,154,cs),
(-30,154,l),
(-56,0,l),
(-2,0,ls),
(182,0,o),
(286,82,o),
(314,248,cs),
(346,440,ls),
(372,592,o),
(438,674,o),
(526,658,cs),
(582,648,l),
(606,786,l),
(304,832,l),
(332,718,l),
(338,760,ls),
(372,950,o),
(514,1072,o),
(712,1072,cs),
(906,1072,o),
(1014,944,o),
(984,766,cs),
(816,-256,l),
(804,-256,l),
(724,-134,o),
(598,-70,o),
(440,-70,cs),
(240,-70,o),
(82,-174,o),
(-8,-366,c),
(148,-416,l)
);
}
);
width = 1292;
},
{
anchors = (
{
name = bottom;
pos = (1095,-412);
},
{
name = top;
pos = (1347,1202);
}
);
layerId = "D0EC06BF-13F9-4C88-A6F5-B8203AF6C77E";
shapes = (
{
closed = 1;
nodes = (
(389,-348,o),
(447,-312,o),
(521,-312,cs),
(595,-312,o),
(651,-346,o),
(691,-412,c),
(1095,-412,l),
(1285,744,ls),
(1335,1048,o),
(1137,1226,o),
(755,1226,cs),
(385,1226,o),
(169,1058,o),
(115,734,cs),
(103,654,l),
(345,654,l),
(345,642,l),
(223,604,o),
(155,524,o),
(143,410,cs),
(141,396,ls),
(137,350,o),
(107,326,o),
(53,326,cs),
(1,326,l),
(-49,30,l),
(123,30,ls),
(353,30,o),
(479,126,o),
(511,322,cs),
(531,434,ls),
(541,496,o),
(577,528,o),
(639,528,cs),
(659,528,l),
(697,746,l),
(419,746,l),
(499,676,l),
(507,734,ls),
(525,862,o),
(601,928,o),
(729,928,cs),
(847,928,o),
(903,870,o),
(885,764,cs),
(739,-124,l),
(729,-124,l),
(667,-52,o),
(571,-14,o),
(453,-14,cs),
(221,-14,o),
(51,-160,o),
(-9,-412,c),
(365,-412,l)
);
}
);
width = 1359;
}
);
metricLeft = "phoSamphao-thai";
metricRight = "koKai-thai";
}
{
glyphname = "loChula-thai.short";
layers = (
{
anchors = (
{
name = bottom;
pos = (994,0);
},
{
name = top;
pos = (1118,1202);
}
);
layerId = "200BE2C5-40F6-4CF4-AF4F-A33C0CC0964F";
shapes = (
{
closed = 1;
nodes = (
(258,0,l),
(734,804,l),
(742,804,l),
(952,0,l),
(994,0,l),
(1250,816,ls),
(1292,952,o),
(1254,1062,o),
(1150,1094,c),
(1150,1100,l),
(1244,1120,o),
(1306,1170,o),
(1340,1258,cs),
(1406,1422,l),
(1360,1422,l),
(1298,1272,ls),
(1258,1174,o),
(1172,1118,o),
(1064,1118,cs),
(760,1118,l),
(754,1074,l),
(1056,1074,ls),
(1194,1074,o),
(1256,976,o),
(1210,830,cs),
(982,98,l),
(970,98,l),
(770,862,l),
(718,862,l),
(270,106,l),
(258,106,l),
(284,1202,l),
(238,1202,l),
(214,0,l)
);
}
);
width = 1382;
},
{
anchors = (
{
name = bottom;
pos = (1122,0);
},
{
name = top;
pos = (1240,1202);
}
);
layerId = "11F4534A-B963-4AB5-820F-DAF9A20CD933";
shapes = (
{
closed = 1;
nodes = (
(370,0,l),
(748,640,l),
(766,640,l),
(958,0,l),
(1122,0,l),
(1384,932,ls),
(1414,1030,o),
(1400,1098,o),
(1346,1132,c),
(1346,1138,l),
(1442,1168,o),
(1520,1242,o),
(1554,1336,cs),
(1598,1456,l),
(1426,1456,l),
(1382,1334,ls),
(1352,1246,o),
(1286,1202,o),
(1182,1202,cs),
(732,1202,l),
(708,1064,l),
(1106,1064,ls),
(1206,1064,o),
(1240,1024,o),
(1214,932,cs),
(1038,270,l),
(1026,270,l),
(872,830,l),
(684,830,l),
(368,274,l),
(356,274,l),
(376,1202,l),
(202,1202,l),
(186,0,l)
);
}
);
width = 1490;
},
{
anchors = (
{
name = bottom;
pos = (1362,0);
},
{
name = top;
pos = (1304,1202);
}
);
layerId = "D0EC06BF-13F9-4C88-A6F5-B8203AF6C77E";
shapes = (
{
closed = 1;
nodes = (
(616,0,l),
(844,430,l),
(862,430,l),
(944,0,l),
(1362,0,l),
(1636,818,ls),
(1680,950,o),
(1664,1028,o),
(1578,1078,c),
(1580,1088,l),
(1710,1126,o),
(1780,1196,o),
(1840,1344,cs),
(1896,1490,l),
(1508,1490,l),
(1454,1342,ls),
(1420,1248,o),
(1350,1202,o),
(1246,1202,cs),
(868,1202,l),
(822,914,l),
(1148,914,ls),
(1258,914,o),
(1294,866,o),
(1266,772,cs),
(1142,356,l),
(1130,356,l),
(1048,762,l),
(766,762,l),
(544,356,l),
(532,356,l),
(574,1202,l),
(178,1202,l),
(198,0,l)
);
}
);
width = 1746;
}
);
}
{
glyphname = "lu_lakkhangyao-thai";
layers = (
{
layerId = "200BE2C5-40F6-4CF4-AF4F-A33C0CC0964F";
shapes = (
{
closed = 1;
nodes = (
(872,-338,l),
(1060,804,ls),
(1102,1056,o),
(960,1218,o),
(698,1218,cs),
(434,1218,o),
(240,1062,o),
(200,822,cs),
(194,784,l),
(406,760,l),
(404,754,l),
(316,726,o),
(264,650,o),
(242,518,cs),
(184,174,ls),
(170,92,o),
(124,44,o),
(56,44,cs),
(-16,44,l),
(-24,0,l),
(52,0,ls),
(148,0,o),
(212,62,o),
(230,166,cs),
(288,516,ls),
(316,684,o),
(404,760,o),
(550,744,cs),
(570,742,l),
(576,782,l),
(224,822,l),
(240,788,l),
(246,816,ls),
(280,1034,o),
(456,1174,o),
(696,1174,cs),
(930,1174,o),
(1050,1036,o),
(1014,814,cs),
(824,-338,l)
);
},
{
closed = 1;
nodes = (
(1572,-338,l),
(1762,818,ls),
(1802,1056,o),
(1682,1218,o),
(1466,1218,cs),
(1292,1218,o),
(1132,1114,o),
(1066,958,c),
(1046,958,l),
(1024,804,l),
(1060,804,l),
(1094,1026,o),
(1264,1174,o),
(1458,1174,cs),
(1652,1174,o),
(1754,1038,o),
(1718,824,cs),
(1526,-338,l)
);
}
);
width = 1931;
},
{
layerId = "11F4534A-B963-4AB5-820F-DAF9A20CD933";
shapes = (
{
closed = 1;
nodes = (
(954,-482,l),
(1160,754,ls),
(1208,1040,o),
(1034,1226,o),
(728,1226,cs),
(428,1226,o),
(222,1054,o),
(172,780,cs),
(160,718,l),
(366,688,l),
(364,676,l),
(262,648,o),
(196,558,o),
(172,420,cs),
(148,290,ls),
(132,200,o),
(84,154,o),
(2,154,cs),
(-30,154,l),
(-56,0,l),
(-2,0,ls),
(182,0,o),
(284,82,o),
(314,248,cs),
(348,440,ls),
(374,592,o),
(440,674,o),
(528,658,cs),
(584,648,l),
(606,786,l),
(306,832,l),
(334,718,l),
(340,760,ls),
(374,950,o),
(516,1072,o),
(714,1072,cs),
(908,1072,o),
(1014,944,o),
(984,766,cs),
(778,-482,l)
);
},
{
closed = 1;
nodes = (
(1714,-482,l),
(1918,750,ls),
(1966,1036,o),
(1818,1226,o),
(1556,1226,cs),
(1382,1226,o),
(1236,1138,o),
(1160,994,c),
(1076,994,l),
(1034,738,l),
(1156,736,l),
(1192,940,o),
(1334,1072,o),
(1522,1072,cs),
(1696,1072,o),
(1778,958,o),
(1746,766,cs),
(1538,-482,l)
);
}
);
width = 2050;
},
{
layerId = "D0EC06BF-13F9-4C88-A6F5-B8203AF6C77E";
shapes = (
{
closed = 1;
nodes = (
(1078,-482,l),
(1280,744,ls),
(1330,1048,o),
(1136,1226,o),
(754,1226,cs),
(384,1226,o),
(168,1058,o),
(114,734,cs),
(102,654,l),
(344,654,l),
(344,642,l),
(230,606,o),
(162,530,o),
(142,410,cs),
(134,366,ls),
(126,318,o),
(98,296,o),
(48,296,cs),
(-4,296,l),
(-54,0,l),
(118,0,ls),
(348,0,o),
(474,96,o),
(506,292,cs),
(530,434,ls),
(540,496,o),
(576,528,o),
(638,528,cs),
(658,528,l),
(696,746,l),
(418,746,l),
(498,676,l),
(506,734,ls),
(524,862,o),
(602,928,o),
(728,928,cs),
(846,928,o),
(902,870,o),
(884,764,cs),
(680,-482,l)
);
},
{
closed = 1;
nodes = (
(1832,-482,l),
(2048,820,ls),
(2088,1062,o),
(1932,1226,o),
(1666,1226,cs),
(1510,1226,o),
(1364,1150,o),
(1266,1014,c),
(1192,1014,l),
(1144,718,l),
(1276,718,l),
(1296,840,o),
(1376,914,o),
(1486,914,cs),
(1596,914,o),
(1650,842,o),
(1630,722,cs),
(1430,-482,l)
);
}
);
width = 2108;
}
);
metricLeft = "phoSamphao-thai";
metricRight = "phoSamphao-thai";
}
{
glyphname = "maiChattawa-thai.narrow";
layers = (
{
anchors = (
{
name = _top;
pos = (-302,1202);
},
{
name = top;
pos = (-366,1704);
}
);
layerId = "200BE2C5-40F6-4CF4-AF4F-A33C0CC0964F";
shapes = (
{
closed = 1;
nodes = (
(-416,1394,l),
(-366,1704,l),
(-412,1704,l),
(-462,1394,l)
);
},
{
closed = 1;
nodes = (
(-240,1528,l),
(-234,1570,l),
(-588,1570,l),
(-594,1528,l)
);
}
);
width = 0;
},
{
anchors = (
{
name = _top;
pos = (-378,1202);
},
{
name = top;
pos = (-408,1778);
}
);
layerId = "11F4534A-B963-4AB5-820F-DAF9A20CD933";
shapes = (
{
closed = 1;
nodes = (
(-476,1362,l),
(-408,1778,l),
(-570,1778,l),
(-638,1362,l)
);
},
{
closed = 1;
nodes = (
(-288,1512,l),
(-270,1630,l),
(-756,1630,l),
(-776,1512,l)
);
}
);
width = 0;
},
{
anchors = (
{
name = _top;
pos = (-494,1202);
},
{
name = top;
pos = (-560,1832);
}
);
layerId = "D0EC06BF-13F9-4C88-A6F5-B8203AF6C77E";
shapes = (
{
closed = 1;
nodes = (
(-640,1336,l),
(-560,1832,l),
(-854,1832,l),
(-936,1336,l)
);
},
{
closed = 1;
nodes = (
(-450,1474,l),
(-414,1700,l),
(-1046,1700,l),
(-1082,1474,l)
);
}
);
width = 0;
}
);
}
{
glyphname = "maiChattawa-thai.small";
layers = (
{
anchors = (
{
name = _top;
pos = (-32,1640);
},
{
name = top;
pos = (36,2068);
}
);
layerId = "200BE2C5-40F6-4CF4-AF4F-A33C0CC0964F";
shapes = (
{
closed = 1;
nodes = (
(-12,1754,l),
(36,2068,l),
(-8,2068,l),
(-58,1754,l)
);
},
{
closed = 1;
nodes = (
(170,1890,l),
(176,1932,l),
(-188,1932,l),
(-196,1890,l)
);
}
);
width = 0;
},
{
anchors = (
{
name = _top;
pos = (22,1682);
},
{
name = top;
pos = (88,2142);
}
);
layerId = "11F4534A-B963-4AB5-820F-DAF9A20CD933";
shapes = (
{
closed = 1;
nodes = (
(32,1796,l),
(88,2142,l),
(-62,2142,l),
(-118,1796,l)
);
},
{
closed = 1;
nodes = (
(198,1914,l),
(214,2024,l),
(-226,2024,l),
(-244,1914,l)
);
}
);
width = 0;
},
{
anchors = (
{
name = _top;
pos = (92,1744);
},
{
name = top;
pos = (144,2250);
}
);
layerId = "D0EC06BF-13F9-4C88-A6F5-B8203AF6C77E";
shapes = (
{
closed = 1;
nodes = (
(78,1856,l),
(144,2250,l),
(-154,2250,l),
(-218,1856,l)
);
},
{
closed = 1;
nodes = (
(266,1966,l),
(294,2140,l),
(-342,2140,l),
(-368,1966,l)
);
}
);
width = 0;
}
);
}
{
glyphname = "maiEk-thai.narrow";
layers = (
{
anchors = (
{
name = _top;
pos = (-302,1202);
},
{
name = top;
pos = (-334,1676);
}
);
layerId = "200BE2C5-40F6-4CF4-AF4F-A33C0CC0964F";
shapes = (
{
closed = 1;
nodes = (
(-380,1394,l),
(-334,1676,l),
(-380,1676,l),
(-424,1394,l)
);
}
);
width = 0;
},
{
anchors = (
{
name = _top;
pos = (-378,1202);
},
{
name = top;
pos = (-378,1736);
}
);
layerId = "11F4534A-B963-4AB5-820F-DAF9A20CD933";
shapes = (
{
closed = 1;
nodes = (
(-442,1362,l),
(-378,1736,l),
(-546,1736,l),
(-608,1362,l)
);
}
);
width = 0;
},
{
anchors = (
{
name = _top;
pos = (-494,1202);
},
{
name = top;
pos = (-446,1780);
}
);
layerId = "D0EC06BF-13F9-4C88-A6F5-B8203AF6C77E";
shapes = (
{
closed = 1;
nodes = (
(-520,1336,l),
(-446,1780,l),
(-826,1780,l),
(-902,1336,l)
);
}
);
width = 0;
}
);
}
{
glyphname = "maiEk-thai.small";
layers = (
{
anchors = (
{
name = _top;
pos = (-32,1640);
},
{
name = top;
pos = (28,2014);
}
);
layerId = "200BE2C5-40F6-4CF4-AF4F-A33C0CC0964F";
shapes = (
{
closed = 1;
nodes = (
(-12,1772,l),
(28,2014,l),
(-16,2014,l),
(-56,1772,l)
);
}
);
width = 0;
},
{
anchors = (
{
name = _top;
pos = (22,1682);
},
{
name = top;
pos = (94,2110);
}
);
layerId = "11F4534A-B963-4AB5-820F-DAF9A20CD933";
shapes = (
{
closed = 1;
nodes = (
(42,1796,l),
(94,2110,l),
(-64,2110,l),
(-116,1796,l)
);
}
);
width = 0;
},
{
anchors = (
{
name = _top;
pos = (90,1744);
},
{
name = top;
pos = (156,2226);
}
);
layerId = "D0EC06BF-13F9-4C88-A6F5-B8203AF6C77E";
shapes = (
{
closed = 1;
nodes = (
(96,1856,l),
(156,2226,l),
(-180,2226,l),
(-240,1856,l)
);
}
);
width = 0;
}
);
}
{
glyphname = "maiHanaKat-thai.narrow";
layers = (
{
anchors = (
{
name = _top;
pos = (-302,1202);
},
{
name = top;
pos = (-358,1570);
}
);
layerId = "200BE2C5-40F6-4CF4-AF4F-A33C0CC0964F";
shapes = (
{
closed = 1;
nodes = (
(-270,1394,l),
(-264,1438,l),
(-596,1438,ls),
(-690,1438,o),
(-724,1462,o),
(-712,1538,cs),
(-704,1590,l),
(-748,1590,l),
(-758,1544,ls),
(-776,1446,o),
(-724,1394,o),
(-596,1394,cs)
);
}
);
width = 0;
},
{
anchors = (
{
name = _top;
pos = (-378,1202);
},
{
name = top;
pos = (-400,1598);
}
);
layerId = "11F4534A-B963-4AB5-820F-DAF9A20CD933";
shapes = (
{
closed = 1;
nodes = (
(-336,1362,l),
(-312,1506,l),
(-660,1506,ls),
(-726,1506,o),
(-754,1532,o),
(-746,1592,cs),
(-740,1634,l),
(-904,1634,l),
(-910,1586,ls),
(-932,1442,o),
(-864,1362,o),
(-714,1362,cs)
);
}
);
width = 0;
},
{
anchors = (
{
name = _top;
pos = (-494,1202);
},
{
name = top;
pos = (-512,1716);
}
);
layerId = "D0EC06BF-13F9-4C88-A6F5-B8203AF6C77E";
shapes = (
{
closed = 1;
nodes = (
(-472,1336,l),
(-428,1600,l),
(-762,1600,ls),
(-828,1600,o),
(-856,1634,o),
(-846,1696,cs),
(-838,1742,l),
(-1190,1742,l),
(-1212,1614,ls),
(-1244,1430,o),
(-1158,1336,o),
(-952,1336,cs)
);
}
);
width = 0;
}
);
}
{
glyphname = "maiTho-thai.narrow";
layers = (
{
anchors = (
{
name = _top;
pos = (-302,1202);
},
{
name = top;
pos = (-324,1626);
}
);
layerId = "200BE2C5-40F6-4CF4-AF4F-A33C0CC0964F";
shapes = (
{
closed = 1;
nodes = (
(-270,1394,l),
(-264,1438,l),
(-628,1438,l),
(-620,1480,ls),
(-606,1574,o),
(-638,1626,o),
(-736,1626,cs),
(-800,1626,l),
(-806,1584,l),
(-736,1584,ls),
(-670,1584,o),
(-652,1558,o),
(-666,1480,cs),
(-680,1394,l)
);
}
);
width = 0;
},
{
anchors = (
{
name = _top;
pos = (-378,1202);
},
{
name = top;
pos = (-292,1726);
}
);
layerId = "11F4534A-B963-4AB5-820F-DAF9A20CD933";
shapes = (
{
closed = 1;
nodes = (
(-336,1362,l),
(-312,1506,l),
(-620,1506,l),
(-610,1566,ls),
(-592,1672,o),
(-656,1726,o),
(-762,1726,cs),
(-896,1726,l),
(-920,1588,l),
(-848,1588,ls),
(-794,1588,o),
(-776,1568,o),
(-786,1514,cs),
(-812,1362,l)
);
}
);
width = 0;
},
{
anchors = (
{
name = _top;
pos = (-494,1202);
},
{
name = top;
pos = (-400,1766);
}
);
layerId = "D0EC06BF-13F9-4C88-A6F5-B8203AF6C77E";
shapes = (
{
closed = 1;
nodes = (
(-472,1336,l),
(-430,1592,l),
(-700,1592,l),
(-694,1630,ls),
(-678,1718,o),
(-720,1766,o),
(-808,1766,cs),
(-1098,1766,l),
(-1130,1554,l),
(-1046,1554,ls),
(-1004,1554,o),
(-984,1530,o),
(-992,1488,cs),
(-1018,1336,l)
);
}
);
width = 0;
}
);
}
{
glyphname = "maiTho-thai.small";
layers = (
{
anchors = (
{
name = _top;
pos = (-32,1640);
},
{
name = top;
pos = (26,2002);
}
);
layerId = "200BE2C5-40F6-4CF4-AF4F-A33C0CC0964F";
shapes = (
{
closed = 1;
nodes = (
(128,1772,l),
(134,1814,l),
(-156,1814,l),
(-150,1856,ls),
(-134,1956,o),
(-168,2002,o),
(-262,2002,cs),
(-314,2002,l),
(-320,1960,l),
(-262,1960,ls),
(-198,1960,o),
(-180,1936,o),
(-194,1858,cs),
(-208,1772,l)
);
}
);
width = 0;
},
{
anchors = (
{
name = _top;
pos = (22,1682);
},
{
name = top;
pos = (92,2098);
}
);
layerId = "11F4534A-B963-4AB5-820F-DAF9A20CD933";
shapes = (
{
closed = 1;
nodes = (
(182,1796,l),
(204,1928,l),
(-82,1928,l),
(-76,1962,ls),
(-60,2058,o),
(-102,2098,o),
(-208,2098,cs),
(-350,2098,l),
(-370,1974,l),
(-296,1974,ls),
(-248,1974,o),
(-230,1958,o),
(-236,1920,cs),
(-256,1796,l)
);
}
);
width = 0;
},
{
anchors = (
{
name = _top;
pos = (90,1744);
},
{
name = top;
pos = (174,2240);
}
);
layerId = "D0EC06BF-13F9-4C88-A6F5-B8203AF6C77E";
shapes = (
{
closed = 1;
nodes = (
(224,1856,l),
(260,2062,l),
(-98,2062,l),
(-92,2106,ls),
(-80,2192,o),
(-118,2240,o),
(-206,2240,cs),
(-470,2240,l),
(-512,2028,l),
(-422,2028,ls),
(-380,2028,o),
(-362,2002,o),
(-368,1962,cs),
(-384,1856,l)
);
}
);
width = 0;
}
);
}
{
glyphname = "maiTri-thai.narrow";
layers = (
{
anchors = (
{
name = _top;
pos = (-302,1202);
},
{
name = top;
pos = (-408,1690);
}
);
layerId = "200BE2C5-40F6-4CF4-AF4F-A33C0CC0964F";
shapes = (
{
closed = 1;
nodes = (
(-846,1394,l),
(-822,1534,ls),
(-812,1604,o),
(-780,1638,o),
(-714,1652,c),
(-750,1670,l),
(-624,1518,l),
(-612,1518,l),
(-436,1670,l),
(-478,1652,l),
(-412,1638,o),
(-394,1604,o),
(-406,1534,cs),
(-430,1394,l),
(-200,1394,l),
(-194,1438,l),
(-396,1438,l),
(-380,1418,l),
(-362,1530,ls),
(-348,1626,o),
(-388,1680,o),
(-476,1690,c),
(-612,1570,l),
(-616,1570,l),
(-712,1690,l),
(-806,1680,o),
(-854,1628,o),
(-868,1534,cs),
(-892,1394,l)
);
}
);
width = 0;
},
{
anchors = (
{
name = _top;
pos = (-378,1202);
},
{
name = top;
pos = (-286,1756);
}
);
layerId = "11F4534A-B963-4AB5-820F-DAF9A20CD933";
shapes = (
{
closed = 1;
nodes = (
(-858,1362,l),
(-828,1544,ls),
(-824,1566,o),
(-810,1588,o),
(-788,1600,c),
(-806,1600,l),
(-718,1512,l),
(-670,1512,l),
(-554,1600,l),
(-568,1600,l),
(-550,1588,o),
(-542,1568,o),
(-546,1544,cs),
(-576,1362,l),
(-298,1362,l),
(-276,1506,l),
(-484,1506,l),
(-426,1424,l),
(-402,1566,ls),
(-384,1680,o),
(-428,1746,o),
(-548,1756,c),
(-676,1658,l),
(-682,1658,l),
(-778,1756,l),
(-886,1746,o),
(-958,1676,o),
(-976,1560,cs),
(-1008,1362,l)
);
}
);
width = 0;
},
{
anchors = (
{
name = _top;
pos = (-494,1202);
},
{
name = top;
pos = (-496,1776);
}
);
layerId = "D0EC06BF-13F9-4C88-A6F5-B8203AF6C77E";
shapes = (
{
closed = 1;
nodes = (
(-992,1336,l),
(-970,1464,ls),
(-968,1488,o),
(-952,1512,o),
(-932,1524,c),
(-994,1568,l),
(-902,1482,l),
(-880,1482,l),
(-758,1568,l),
(-834,1524,l),
(-816,1512,o),
(-810,1488,o),
(-814,1464,cs),
(-836,1336,l),
(-450,1336,l),
(-414,1560,l),
(-564,1560,l),
(-544,1482,l),
(-536,1532,ls),
(-512,1680,o),
(-578,1770,o),
(-714,1776,c),
(-864,1676,l),
(-870,1676,l),
(-984,1776,l),
(-1118,1770,o),
(-1218,1672,o),
(-1242,1522,cs),
(-1272,1336,l)
);
}
);
width = 0;
}
);
}
{
glyphname = "maiTri-thai.small";
layers = (
{
anchors = (
{
name = _top;
pos = (-32,1640);
},
{
name = top;
pos = (30,2020);
}
);
layerId = "200BE2C5-40F6-4CF4-AF4F-A33C0CC0964F";
shapes = (
{
closed = 1;
nodes = (
(-356,1772,l),
(-340,1868,ls),
(-328,1938,o),
(-286,1972,o),
(-220,1984,c),
(-264,1992,l),
(-160,1854,l),
(-150,1854,l),
(-10,1992,l),
(-56,1984,l),
(8,1972,o),
(38,1938,o),
(26,1868,cs),
(10,1772,l),
(190,1772,l),
(196,1814,l),
(44,1814,l),
(60,1794,l),
(72,1868,ls),
(86,1962,o),
(28,2012,o),
(-38,2020,c),
(-148,1908,l),
(-152,1908,l),
(-236,2020,l),
(-304,2012,o),
(-368,1962,o),
(-384,1868,cs),
(-400,1772,l)
);
}
);
width = 0;
},
{
anchors = (
{
name = _top;
pos = (22,1682);
},
{
name = top;
pos = (100,2146);
}
);
layerId = "11F4534A-B963-4AB5-820F-DAF9A20CD933";
shapes = (
{
closed = 1;
nodes = (
(-316,1796,l),
(-288,1960,ls),
(-284,1982,o),
(-262,2006,o),
(-222,2012,c),
(-242,2012,l),
(-174,1940,l),
(-132,1940,l),
(-38,2012,l),
(-54,2012,l),
(-16,2006,o),
(0,1982,o),
(-4,1960,cs),
(-32,1796,l),
(212,1796,l),
(234,1928,l),
(44,1928,l),
(114,1846,l),
(132,1964,ls),
(148,2070,o),
(64,2136,o),
(-38,2146,c),
(-202,1996,l),
(-84,1996,l),
(-214,2146,l),
(-318,2136,o),
(-420,2070,o),
(-436,1966,cs),
(-464,1796,l)
);
}
);
width = 0;
},
{
anchors = (
{
name = _top;
pos = (90,1744);
},
{
name = top;
pos = (176,2248);
}
);
layerId = "D0EC06BF-13F9-4C88-A6F5-B8203AF6C77E";
shapes = (
{
closed = 1;
nodes = (
(-282,1856,l),
(-262,1976,ls),
(-258,1998,o),
(-244,2020,o),
(-224,2030,c),
(-272,2062,l),
(-188,1970,l),
(-170,1970,l),
(-54,2062,l),
(-112,2030,l),
(-94,2020,o),
(-86,1998,o),
(-90,1976,cs),
(-112,1856,l),
(264,1856,l),
(298,2056,l),
(158,2056,l),
(178,1986,l),
(186,2030,ls),
(208,2160,o),
(130,2244,o),
(-28,2248,c),
(-200,2108,l),
(-126,2108,l),
(-250,2248,l),
(-406,2242,o),
(-514,2158,o),
(-538,2022,cs),
(-568,1856,l)
);
}
);
width = 0;
}
);
}
{
glyphname = "maitaikhu-thai.narrow";
layers = (
{
anchors = (
{
name = _top;
pos = (-302,1202);
},
{
name = top;
pos = (-216,1724);
}
);
layerId = "200BE2C5-40F6-4CF4-AF4F-A33C0CC0964F";
shapes = (
{
closed = 1;
nodes = (
(-328,1390,o),
(-296,1396,o),
(-268,1410,c),
(-276,1450,l),
(-300,1440,o),
(-330,1434,o),
(-354,1434,cs),
(-416,1434,o),
(-458,1470,o),
(-460,1536,c),
(-508,1536,l),
(-600,1438,l),
(-630,1438,ls),
(-700,1438,o),
(-746,1482,o),
(-748,1550,cs),
(-746,1628,o),
(-686,1682,o),
(-590,1682,cs),
(-224,1682,l),
(-216,1724,l),
(-588,1724,ls),
(-704,1724,o),
(-792,1656,o),
(-792,1550,cs),
(-792,1462,o),
(-732,1394,o),
(-634,1394,cs),
(-588,1394,l),
(-494,1498,l),
(-486,1498,l),
(-474,1432,o),
(-428,1390,o),
(-354,1390,cs)
);
}
);
width = 0;
},
{
anchors = (
{
name = _top;
pos = (-378,1202);
},
{
name = top;
pos = (-280,1788);
}
);
layerId = "11F4534A-B963-4AB5-820F-DAF9A20CD933";
shapes = (
{
closed = 1;
nodes = (
(-416,1356,o),
(-382,1364,o),
(-346,1378,c),
(-350,1504,l),
(-380,1494,o),
(-408,1490,o),
(-436,1490,cs),
(-498,1490,o),
(-534,1520,o),
(-536,1570,c),
(-616,1570,l),
(-702,1492,l),
(-718,1492,ls),
(-762,1492,o),
(-788,1520,o),
(-788,1566,cs),
(-788,1620,o),
(-746,1660,o),
(-690,1660,cs),
(-300,1660,l),
(-280,1788,l),
(-690,1788,ls),
(-848,1788,o),
(-954,1696,o),
(-954,1564,cs),
(-954,1444,o),
(-872,1362,o),
(-746,1362,cs),
(-680,1362,l),
(-592,1444,l),
(-580,1444,l),
(-562,1386,o),
(-518,1356,o),
(-450,1356,cs)
);
}
);
width = 0;
},
{
anchors = (
{
name = _top;
pos = (-494,1202);
},
{
name = top;
pos = (-380,1896);
}
);
layerId = "D0EC06BF-13F9-4C88-A6F5-B8203AF6C77E";
shapes = (
{
closed = 1;
nodes = (
(-550,1326,o),
(-510,1338,o),
(-470,1356,c),
(-464,1558,l),
(-498,1544,o),
(-530,1538,o),
(-560,1538,cs),
(-618,1538,o),
(-656,1566,o),
(-662,1612,c),
(-758,1612,l),
(-834,1544,l),
(-854,1544,ls),
(-898,1544,o),
(-928,1570,o),
(-928,1614,cs),
(-926,1664,o),
(-888,1696,o),
(-828,1696,cs),
(-412,1696,l),
(-380,1896,l),
(-854,1896,ls),
(-1054,1896,o),
(-1192,1772,o),
(-1192,1592,cs),
(-1192,1436,o),
(-1088,1336,o),
(-920,1336,cs),
(-806,1336,l),
(-742,1406,l),
(-726,1406,l),
(-704,1356,o),
(-654,1326,o),
(-588,1326,cs)
);
}
);
width = 0;
}
);
}
{
glyphname = "maitaikhu-thai.small";
layers = (
{
anchors = (
{
name = _top;
pos = (-32,1640);
},
{
name = top;
pos = (30,2028);
}
);
layerId = "200BE2C5-40F6-4CF4-AF4F-A33C0CC0964F";
shapes = (
{
closed = 1;
nodes = (
(-26,1768,o),
(6,1774,o),
(34,1788,c),
(26,1826,l),
(2,1816,o),
(-28,1810,o),
(-52,1810,cs),
(-106,1810,o),
(-140,1846,o),
(-142,1912,c),
(-190,1912,l),
(-274,1814,l),
(-310,1814,ls),
(-358,1814,o),
(-390,1844,o),
(-390,1892,cs),
(-392,1948,o),
(-348,1986,o),
(-284,1986,cs),
(68,1986,l),
(74,2028,l),
(-284,2028,ls),
(-376,2028,o),
(-436,1974,o),
(-436,1892,cs),
(-436,1820,o),
(-388,1772,o),
(-314,1772,cs),
(-264,1772,l),
(-176,1874,l),
(-170,1874,l),
(-158,1808,o),
(-118,1768,o),
(-52,1768,cs)
);
}
);
width = 0;
},
{
anchors = (
{
name = _top;
pos = (22,1682);
},
{
name = top;
pos = (60,2158);
}
);
layerId = "11F4534A-B963-4AB5-820F-DAF9A20CD933";
shapes = (
{
closed = 1;
nodes = (
(-58,1790,o),
(-28,1794,o),
(2,1808,c),
(0,1924,l),
(-24,1916,o),
(-50,1912,o),
(-74,1912,cs),
(-128,1912,o),
(-160,1938,o),
(-162,1984,c),
(-236,1984,l),
(-308,1914,l),
(-328,1914,ls),
(-362,1914,o),
(-382,1936,o),
(-382,1970,cs),
(-382,2010,o),
(-352,2040,o),
(-308,2040,cs),
(40,2040,l),
(60,2158,l),
(-322,2158,ls),
(-444,2158,o),
(-532,2078,o),
(-532,1968,cs),
(-532,1864,o),
(-458,1796,o),
(-346,1796,cs),
(-286,1796,l),
(-216,1870,l),
(-206,1870,l),
(-188,1818,o),
(-148,1790,o),
(-88,1790,cs)
);
}
);
width = 0;
},
{
anchors = (
{
name = _top;
pos = (90,1744);
},
{
name = top;
pos = (84,2250);
}
);
layerId = "D0EC06BF-13F9-4C88-A6F5-B8203AF6C77E";
shapes = (
{
closed = 1;
nodes = (
(-48,1846,o),
(-18,1852,o),
(16,1868,c),
(20,2002,l),
(-6,1992,o),
(-34,1986,o),
(-58,1986,cs),
(-104,1986,o),
(-130,2006,o),
(-138,2040,c),
(-214,2040,l),
(-276,1990,l),
(-336,1990,ls),
(-370,1990,o),
(-394,2014,o),
(-394,2044,cs),
(-392,2078,o),
(-366,2096,o),
(-326,2096,cs),
(58,2096,l),
(84,2250,l),
(-352,2250,ls),
(-510,2250,o),
(-618,2176,o),
(-618,2046,cs),
(-618,1930,o),
(-536,1854,o),
(-404,1854,cs),
(-252,1854,l),
(-202,1904,l),
(-190,1904,l),
(-172,1866,o),
(-130,1846,o),
(-80,1846,cs)
);
}
);
width = 0;
}
);
}
{
glyphname = "moMa_underscore-thai";
layers = (
{
anchors = (
{
name = bottom;
pos = (870,-270);
}
);
layerId = "200BE2C5-40F6-4CF4-AF4F-A33C0CC0964F";
shapes = (
{
closed = 1;
nodes = (
(870,-270,l),
(878,-226,l),
(86,-226,l),
(80,-270,l)
);
},
{
ref = "moMa-thai";
}
);
width = 1218;
},
{
anchors = (
{
name = bottom;
pos = (952,-344);
}
);
layerId = "11F4534A-B963-4AB5-820F-DAF9A20CD933";
shapes = (
{
closed = 1;
nodes = (
(952,-344,l),
(978,-184,l),
(48,-184,l),
(22,-344,l)
);
},
{
ref = "moMa-thai";
}
);
width = 1278;
},
{
anchors = (
{
name = bottom;
pos = (1094,-372);
}
);
layerId = "D0EC06BF-13F9-4C88-A6F5-B8203AF6C77E";
shapes = (
{
closed = 1;
nodes = (
(1094,-372,l),
(1128,-162,l),
(-14,-162,l),
(-50,-372,l)
);
},
{
ref = "moMa-thai";
}
);
width = 1360;
}
);
subCategory = Other;
}
{
glyphname = "ngoNgu_underscore-thai";
layers = (
{
anchors = (
{
name = bottom;
pos = (752,-270);
}
);
layerId = "200BE2C5-40F6-4CF4-AF4F-A33C0CC0964F";
shapes = (
{
closed = 1;
nodes = (
(752,-270,l),
(760,-226,l),
(-4,-226,l),
(-12,-270,l)
);
},
{
ref = "ngoNgu-thai";
}
);
width = 1054;
},
{
anchors = (
{
name = bottom;
pos = (894,-344);
}
);
layerId = "11F4534A-B963-4AB5-820F-DAF9A20CD933";
shapes = (
{
closed = 1;
nodes = (
(894,-344,l),
(920,-184,l),
(0,-184,l),
(-26,-344,l)
);
},
{
ref = "ngoNgu-thai";
}
);
width = 1186;
},
{
anchors = (
{
name = bottom;
pos = (1022,-372);
}
);
layerId = "D0EC06BF-13F9-4C88-A6F5-B8203AF6C77E";
shapes = (
{
closed = 1;
nodes = (
(1022,-372,l),
(1056,-162,l),
(14,-162,l),
(-20,-372,l)
);
},
{
ref = "ngoNgu-thai";
}
);
width = 1290;
}
);
subCategory = Other;
}
{
glyphname = "noNu_underscore-thai";
layers = (
{
anchors = (
{
name = bottom;
pos = (864,-270);
}
);
layerId = "200BE2C5-40F6-4CF4-AF4F-A33C0CC0964F";
shapes = (
{
closed = 1;
nodes = (
(864,-270,l),
(872,-226,l),
(80,-226,l),
(74,-270,l)
);
},
{
ref = "noNu-thai";
}
);
width = 1218;
},
{
anchors = (
{
name = bottom;
pos = (958,-344);
}
);
layerId = "11F4534A-B963-4AB5-820F-DAF9A20CD933";
shapes = (
{
closed = 1;
nodes = (
(958,-344,l),
(984,-184,l),
(56,-184,l),
(30,-344,l)
);
},
{
ref = "noNu-thai";
}
);
width = 1278;
},
{
anchors = (
{
name = bottom;
pos = (1088,-372);
}
);
layerId = "D0EC06BF-13F9-4C88-A6F5-B8203AF6C77E";
shapes = (
{
closed = 1;
nodes = (
(1088,-372,l),
(1122,-162,l),
(-20,-162,l),
(-56,-372,l)
);
},
{
ref = "noNu-thai";
}
);
width = 1360;
}
);
subCategory = Other;
}
{
glyphname = "phinthu-thai.small";
layers = (
{
anchors = (
{
name = _bottom;
pos = (-348,-264);
},
{
name = bottom;
pos = (-368,-494);
}
);
layerId = "200BE2C5-40F6-4CF4-AF4F-A33C0CC0964F";
shapes = (
{
closed = 1;
nodes = (
(-376,-494,o),
(-350,-470,o),
(-350,-436,cs),
(-350,-408,o),
(-370,-388,o),
(-400,-388,cs),
(-432,-388,o),
(-456,-414,o),
(-456,-446,cs),
(-456,-474,o),
(-438,-494,o),
(-408,-494,cs)
);
}
);
width = 0;
},
{
anchors = (
{
name = _bottom;
pos = (-324,-410);
},
{
name = bottom;
pos = (-364,-744);
}
);
layerId = "11F4534A-B963-4AB5-820F-DAF9A20CD933";
shapes = (
{
closed = 1;
nodes = (
(-378,-744,o),
(-326,-698,o),
(-328,-620,cs),
(-326,-564,o),
(-370,-526,o),
(-436,-526,cs),
(-516,-526,o),
(-568,-574,o),
(-570,-650,cs),
(-568,-708,o),
(-526,-744,o),
(-460,-744,cs)
);
}
);
width = 0;
},
{
anchors = (
{
name = _bottom;
pos = (-264,-412);
},
{
name = bottom;
pos = (-342,-872);
}
);
layerId = "D0EC06BF-13F9-4C88-A6F5-B8203AF6C77E";
shapes = (
{
closed = 1;
nodes = (
(-390,-872,o),
(-298,-784,o),
(-298,-656,cs),
(-298,-554,o),
(-374,-482,o),
(-482,-482,cs),
(-618,-482,o),
(-710,-572,o),
(-710,-704,cs),
(-710,-804,o),
(-636,-872,o),
(-528,-872,cs)
);
}
);
width = 0;
}
);
}
{
glyphname = "ru_lakkhangyao-thai";
layers = (
{
layerId = "200BE2C5-40F6-4CF4-AF4F-A33C0CC0964F";
shapes = (
{
closed = 1;
nodes = (
(870,-338,l),
(1058,798,ls),
(1100,1054,o),
(960,1218,o),
(702,1218,cs),
(448,1218,o),
(258,1062,o),
(218,820,cs),
(212,780,l),
(376,762,l),
(376,756,l),
(288,728,o),
(236,652,o),
(214,520,cs),
(170,258,ls),
(144,100,o),
(228,-10,o),
(378,-10,cs),
(410,-10,o),
(442,-4,o),
(474,8,c),
(466,48,l),
(440,38,o),
(412,34,o),
(382,34,cs),
(260,34,o),
(192,118,o),
(214,246,cs),
(260,518,ls),
(288,686,o),
(376,762,o),
(522,746,cs),
(560,742,l),
(566,784,l),
(242,818,l),
(258,784,l),
(264,812,ls),
(298,1030,o),
(470,1174,o),
(698,1174,cs),
(928,1174,o),
(1052,1034,o),
(1014,810,cs),
(824,-338,l)
);
},
{
closed = 1;
nodes = (
(1570,-338,l),
(1762,816,ls),
(1802,1054,o),
(1680,1218,o),
(1464,1218,cs),
(1290,1218,o),
(1132,1114,o),
(1066,956,c),
(1046,958,l),
(1022,798,l),
(1058,798,l),
(1094,1036,o),
(1262,1174,o),
(1456,1174,cs),
(1650,1174,o),
(1752,1038,o),
(1716,824,cs),
(1524,-338,l)
);
}
);
width = 1930;
},
{
layerId = "11F4534A-B963-4AB5-820F-DAF9A20CD933";
shapes = (
{
closed = 1;
nodes = (
(962,-482,l),
(1168,754,ls),
(1216,1040,o),
(1042,1226,o),
(736,1226,cs),
(434,1226,o),
(218,1056,o),
(166,780,cs),
(154,718,l),
(352,688,l),
(350,676,l),
(242,646,o),
(174,556,o),
(152,420,cs),
(132,306,ls),
(100,106,o),
(190,-14,o),
(378,-14,cs),
(422,-14,o),
(464,-8,o),
(504,6,c),
(494,152,l),
(470,144,o),
(444,140,o),
(418,140,cs),
(322,140,o),
(288,194,o),
(306,306,cs),
(328,440,ls),
(352,586,o),
(424,672,o),
(514,658,cs),
(580,648,l),
(604,786,l),
(300,832,l),
(328,718,l),
(334,760,ls),
(368,952,o),
(518,1072,o),
(722,1072,cs),
(916,1072,o),
(1024,944,o),
(994,766,cs),
(786,-482,l)
);
},
{
closed = 1;
nodes = (
(1724,-482,l),
(1928,750,ls),
(1976,1036,o),
(1826,1226,o),
(1564,1226,cs),
(1390,1226,o),
(1246,1138,o),
(1170,994,c),
(1084,994,l),
(1042,744,l),
(1166,744,l),
(1200,946,o),
(1342,1072,o),
(1528,1072,cs),
(1702,1072,o),
(1786,958,o),
(1754,766,cs),
(1548,-482,l)
);
}
);
width = 2060;
},
{
layerId = "D0EC06BF-13F9-4C88-A6F5-B8203AF6C77E";
shapes = (
{
closed = 1;
nodes = (
(1078,-482,l),
(1280,744,ls),
(1330,1048,o),
(1134,1226,o),
(748,1226,cs),
(374,1226,o),
(154,1058,o),
(100,734,cs),
(88,654,l),
(280,654,l),
(278,642,l),
(152,600,o),
(76,514,o),
(56,374,cs),
(48,324,ls),
(18,126,o),
(146,-14,o),
(360,-14,cs),
(440,-14,o),
(526,-2,o),
(608,22,c),
(596,304,l),
(574,298,o),
(536,292,o),
(516,292,cs),
(466,292,o),
(444,316,o),
(452,362,cs),
(464,434,ls),
(474,498,o),
(512,528,o),
(574,528,cs),
(622,528,l),
(658,746,l),
(390,746,l),
(482,676,l),
(492,734,ls),
(510,862,o),
(590,928,o),
(722,928,cs),
(844,928,o),
(902,870,o),
(884,764,cs),
(680,-482,l)
);
},
{
closed = 1;
nodes = (
(1832,-482,l),
(2048,820,ls),
(2088,1062,o),
(1932,1226,o),
(1666,1226,cs),
(1484,1226,o),
(1338,1150,o),
(1266,1014,c),
(1192,1014,l),
(1144,718,l),
(1276,718,l),
(1294,838,o),
(1376,914,o),
(1486,914,cs),
(1596,914,o),
(1650,842,o),
(1630,722,cs),
(1430,-482,l)
);
}
);
width = 2108;
}
);
metricLeft = "thoThung-thai";
metricRight = "thoThung-thai";
}
{
glyphname = "saraI-thai.narrow";
layers = (
{
anchors = (
{
name = _top;
pos = (-302,1202);
},
{
name = top;
pos = (-256,1474);
}
);
layerId = "200BE2C5-40F6-4CF4-AF4F-A33C0CC0964F";
shapes = (
{
closed = 1;
nodes = (
(-270,1394,l),
(-264,1438,l),
(-956,1438,l),
(-960,1394,l)
);
}
);
width = 0;
},
{
anchors = (
{
name = _top;
pos = (-378,1202);
},
{
name = top;
pos = (-322,1538);
}
);
layerId = "11F4534A-B963-4AB5-820F-DAF9A20CD933";
shapes = (
{
closed = 1;
nodes = (
(-352,1362,l),
(-328,1510,l),
(-1052,1510,l),
(-1076,1362,l)
);
}
);
width = 0;
},
{
anchors = (
{
name = _top;
pos = (-494,1202);
},
{
name = top;
pos = (-426,1620);
}
);
layerId = "D0EC06BF-13F9-4C88-A6F5-B8203AF6C77E";
shapes = (
{
closed = 1;
nodes = (
(-472,1336,l),
(-426,1600,l),
(-1220,1600,l),
(-1264,1336,l)
);
}
);
width = 0;
}
);
}
{
glyphname = "saraIi-thai.narrow";
layers = (
{
anchors = (
{
name = _top;
pos = (-302,1202);
},
{
name = top;
pos = (-230,1640);
}
);
layerId = "200BE2C5-40F6-4CF4-AF4F-A33C0CC0964F";
shapes = (
{
closed = 1;
nodes = (
(-270,1394,l),
(-230,1640,l),
(-276,1640,l),
(-310,1438,l),
(-956,1438,l),
(-960,1394,l)
);
}
);
width = 0;
},
{
anchors = (
{
name = _top;
pos = (-378,1202);
},
{
name = top;
pos = (-298,1682);
}
);
layerId = "11F4534A-B963-4AB5-820F-DAF9A20CD933";
shapes = (
{
closed = 1;
nodes = (
(-350,1362,l),
(-298,1682,l),
(-462,1682,l),
(-490,1510,l),
(-1052,1510,l),
(-1076,1362,l)
);
}
);
width = 0;
},
{
anchors = (
{
name = _top;
pos = (-496,1202);
},
{
name = top;
pos = (-404,1744);
}
);
layerId = "D0EC06BF-13F9-4C88-A6F5-B8203AF6C77E";
shapes = (
{
closed = 1;
nodes = (
(-474,1336,l),
(-406,1744,l),
(-758,1744,l),
(-780,1600,l),
(-1220,1600,l),
(-1264,1336,l)
);
}
);
width = 0;
}
);
}
{
glyphname = "saraU-thai.small";
layers = (
{
anchors = (
{
name = _bottom;
pos = (-348,-264);
},
{
name = bottom;
pos = (-408,-622);
}
);
layerId = "200BE2C5-40F6-4CF4-AF4F-A33C0CC0964F";
shapes = (
{
closed = 1;
nodes = (
(-408,-622,l),
(-370,-396,l),
(-512,-396,l),
(-520,-438,l),
(-422,-438,l),
(-454,-622,l)
);
}
);
width = 0;
},
{
anchors = (
{
name = _bottom;
pos = (-324,-410);
},
{
name = bottom;
pos = (-398,-856);
}
);
layerId = "11F4534A-B963-4AB5-820F-DAF9A20CD933";
shapes = (
{
closed = 1;
nodes = (
(-398,-856,l),
(-346,-542,l),
(-640,-542,l),
(-660,-668,l),
(-530,-668,l),
(-562,-856,l)
);
}
);
width = 0;
},
{
anchors = (
{
name = _bottom;
pos = (-266,-412);
},
{
name = bottom;
pos = (-342,-872);
}
);
layerId = "D0EC06BF-13F9-4C88-A6F5-B8203AF6C77E";
shapes = (
{
closed = 1;
nodes = (
(-342,-872,l),
(-278,-492,l),
(-764,-492,l),
(-800,-714,l),
(-656,-714,l),
(-682,-872,l)
);
}
);
width = 0;
}
);
}
{
glyphname = "saraUe-thai.narrow";
layers = (
{
anchors = (
{
name = _top;
pos = (-302,1202);
},
{
name = top;
pos = (-282,1640);
}
);
layerId = "200BE2C5-40F6-4CF4-AF4F-A33C0CC0964F";
shapes = (
{
closed = 1;
nodes = (
(-338,1394,ls),
(-244,1394,o),
(-180,1466,o),
(-180,1550,cs),
(-180,1622,o),
(-232,1676,o),
(-310,1676,cs),
(-396,1676,o),
(-464,1608,o),
(-464,1522,cs),
(-464,1482,o),
(-450,1442,o),
(-422,1428,c),
(-422,1438,l),
(-956,1438,l),
(-960,1394,l)
);
},
{
closed = 1;
nodes = (
(-390,1438,o),
(-420,1468,o),
(-422,1518,cs),
(-422,1580,o),
(-376,1634,o),
(-310,1634,cs),
(-258,1634,o),
(-224,1602,o),
(-224,1548,cs),
(-224,1482,o),
(-274,1438,o),
(-336,1438,cs)
);
}
);
width = 0;
},
{
anchors = (
{
name = _top;
pos = (-378,1202);
},
{
name = top;
pos = (-384,1682);
}
);
layerId = "11F4534A-B963-4AB5-820F-DAF9A20CD933";
shapes = (
{
closed = 1;
nodes = (
(-498,1362,ls),
(-372,1362,o),
(-290,1440,o),
(-290,1554,cs),
(-290,1642,o),
(-358,1704,o),
(-456,1704,cs),
(-580,1704,o),
(-660,1624,o),
(-660,1504,cs),
(-660,1486,o),
(-658,1470,o),
(-654,1452,c),
(-580,1510,l),
(-1054,1510,l),
(-1076,1362,l)
);
},
{
closed = 1;
nodes = (
(-520,1462,o),
(-540,1484,o),
(-538,1518,cs),
(-540,1566,o),
(-504,1606,o),
(-464,1606,cs),
(-434,1606,o),
(-416,1586,o),
(-414,1552,cs),
(-414,1502,o),
(-448,1462,o),
(-490,1462,cs)
);
}
);
width = 0;
},
{
anchors = (
{
name = _top;
pos = (-494,1202);
},
{
name = top;
pos = (-438,1744);
}
);
layerId = "D0EC06BF-13F9-4C88-A6F5-B8203AF6C77E";
shapes = (
{
closed = 1;
nodes = (
(-700,1336,ls),
(-512,1336,o),
(-388,1440,o),
(-388,1602,cs),
(-388,1734,o),
(-474,1796,o),
(-608,1796,cs),
(-768,1796,o),
(-892,1702,o),
(-890,1548,cs),
(-890,1530,o),
(-888,1510,o),
(-884,1490,c),
(-736,1600,l),
(-1220,1600,l),
(-1264,1336,l)
);
},
{
closed = 1;
nodes = (
(-688,1502,o),
(-710,1526,o),
(-710,1564,cs),
(-710,1616,o),
(-674,1660,o),
(-628,1660,cs),
(-594,1660,o),
(-572,1636,o),
(-574,1598,cs),
(-574,1546,o),
(-608,1502,o),
(-654,1502,cs)
);
}
);
width = 0;
}
);
}
{
glyphname = "saraUee-thai.narrow";
layers = (
{
anchors = (
{
name = _top;
pos = (-302,1202);
},
{
name = top;
pos = (-230,1640);
}
);
layerId = "200BE2C5-40F6-4CF4-AF4F-A33C0CC0964F";
shapes = (
{
closed = 1;
nodes = (
(-270,1394,l),
(-230,1640,l),
(-276,1640,l),
(-310,1438,l),
(-502,1438,l),
(-516,1438,l),
(-956,1438,l),
(-960,1394,l)
);
},
{
closed = 1;
nodes = (
(-492,1416,l),
(-456,1640,l),
(-502,1640,l),
(-538,1416,l)
);
}
);
width = 0;
},
{
anchors = (
{
name = _top;
pos = (-378,1202);
},
{
name = top;
pos = (-298,1682);
}
);
layerId = "11F4534A-B963-4AB5-820F-DAF9A20CD933";
shapes = (
{
closed = 1;
nodes = (
(-350,1362,l),
(-298,1682,l),
(-458,1682,l),
(-486,1506,l),
(-620,1506,l),
(-640,1510,l),
(-1052,1510,l),
(-1076,1362,l)
);
},
{
closed = 1;
nodes = (
(-608,1438,l),
(-568,1682,l),
(-718,1682,l),
(-760,1438,l)
);
}
);
width = 0;
},
{
anchors = (
{
name = _top;
pos = (-496,1202);
},
{
name = top;
pos = (-404,1744);
}
);
layerId = "D0EC06BF-13F9-4C88-A6F5-B8203AF6C77E";
shapes = (
{
closed = 1;
nodes = (
(-474,1336,l),
(-406,1744,l),
(-652,1744,l),
(-680,1576,l),
(-854,1576,l),
(-848,1600,l),
(-1220,1600,l),
(-1264,1336,l)
);
},
{
closed = 1;
nodes = (
(-778,1506,l),
(-738,1744,l),
(-972,1744,l),
(-1012,1506,l)
);
}
);
width = 0;
}
);
}
{
glyphname = "saraUu-thai.small";
layers = (
{
anchors = (
{
name = _bottom;
pos = (-348,-264);
},
{
name = bottom;
pos = (-416,-626);
}
);
layerId = "200BE2C5-40F6-4CF4-AF4F-A33C0CC0964F";
shapes = (
{
closed = 1;
nodes = (
(-470,-634,o),
(-398,-566,o),
(-380,-456,cs),
(-370,-396,l),
(-416,-396,l),
(-426,-452,ls),
(-440,-544,o),
(-496,-592,o),
(-590,-592,cs),
(-684,-592,o),
(-722,-544,o),
(-708,-452,cs),
(-698,-396,l),
(-826,-396,l),
(-832,-438,l),
(-750,-438,l),
(-752,-448,ls),
(-768,-562,o),
(-708,-634,o),
(-590,-634,cs)
);
}
);
width = 0;
},
{
anchors = (
{
name = _bottom;
pos = (-324,-410);
},
{
name = bottom;
pos = (-414,-872);
}
);
layerId = "11F4534A-B963-4AB5-820F-DAF9A20CD933";
shapes = (
{
closed = 1;
nodes = (
(-492,-872,o),
(-390,-808,o),
(-372,-696,cs),
(-346,-542,l),
(-506,-542,l),
(-524,-660,ls),
(-534,-718,o),
(-580,-750,o),
(-652,-750,cs),
(-730,-750,o),
(-766,-720,o),
(-756,-660,cs),
(-738,-542,l),
(-986,-542,l),
(-1004,-660,l),
(-910,-660,l),
(-910,-670,ls),
(-932,-794,o),
(-846,-872,o),
(-652,-872,cs)
);
}
);
width = 0;
},
{
anchors = (
{
name = _bottom;
pos = (-266,-412);
},
{
name = bottom;
pos = (-356,-872);
}
);
layerId = "D0EC06BF-13F9-4C88-A6F5-B8203AF6C77E";
shapes = (
{
closed = 1;
nodes = (
(-458,-872,o),
(-328,-792,o),
(-304,-650,cs),
(-278,-492,l),
(-586,-492,l),
(-602,-604,ls),
(-610,-658,o),
(-646,-686,o),
(-696,-686,cs),
(-746,-686,o),
(-774,-658,o),
(-766,-604,cs),
(-748,-492,l),
(-1140,-492,l),
(-1168,-658,l),
(-1054,-658,l),
(-1056,-684,ls),
(-1070,-802,o),
(-948,-872,o),
(-704,-872,cs)
);
}
);
width = 0;
}
);
}
{
glyphname = "thanthakhat-thai.narrow";
layers = (
{
anchors = (
{
name = _top;
pos = (-302,1202);
},
{
name = top;
pos = (-232,1626);
}
);
layerId = "200BE2C5-40F6-4CF4-AF4F-A33C0CC0964F";
shapes = (
{
closed = 1;
nodes = (
(-612,1394,l),
(-604,1452,ls),
(-590,1542,o),
(-536,1584,o),
(-446,1584,cs),
(-208,1584,l),
(-204,1626,l),
(-444,1626,ls),
(-564,1626,o),
(-626,1570,o),
(-646,1454,cs),
(-656,1394,l)
);
}
);
width = 0;
},
{
anchors = (
{
name = _top;
pos = (-378,1202);
},
{
name = top;
pos = (-306,1632);
}
);
layerId = "11F4534A-B963-4AB5-820F-DAF9A20CD933";
shapes = (
{
closed = 1;
nodes = (
(-598,1362,l),
(-592,1394,ls),
(-582,1456,o),
(-540,1490,o),
(-478,1490,cs),
(-300,1490,l),
(-276,1632,l),
(-494,1632,ls),
(-636,1632,o),
(-726,1552,o),
(-750,1410,cs),
(-756,1362,l)
);
}
);
width = 0;
},
{
anchors = (
{
name = _top;
pos = (-494,1202);
},
{
name = top;
pos = (-406,1742);
}
);
layerId = "D0EC06BF-13F9-4C88-A6F5-B8203AF6C77E";
shapes = (
{
closed = 1;
nodes = (
(-696,1336,l),
(-686,1396,ls),
(-676,1458,o),
(-638,1486,o),
(-572,1486,cs),
(-438,1486,l),
(-396,1742,l),
(-646,1742,ls),
(-850,1742,o),
(-984,1634,o),
(-1014,1450,cs),
(-1034,1336,l)
);
}
);
width = 0;
}
);
}
{
glyphname = "thanthakhat-thai.small";
layers = (
{
anchors = (
{
name = _top;
pos = (-32,1640);
},
{
name = top;
pos = (24,1982);
}
);
layerId = "200BE2C5-40F6-4CF4-AF4F-A33C0CC0964F";
shapes = (
{
closed = 1;
nodes = (
(-230,1758,l),
(-220,1822,ls),
(-206,1904,o),
(-162,1938,o),
(-80,1938,cs),
(106,1938,l),
(114,1982,l),
(-76,1982,ls),
(-186,1982,o),
(-244,1930,o),
(-262,1824,cs),
(-274,1758,l)
);
}
);
width = 0;
},
{
anchors = (
{
name = _top;
pos = (22,1682);
},
{
name = top;
pos = (84,2050);
}
);
layerId = "11F4534A-B963-4AB5-820F-DAF9A20CD933";
shapes = (
{
closed = 1;
nodes = (
(-144,1796,l),
(-140,1822,ls),
(-130,1876,o),
(-92,1908,o),
(-36,1908,cs),
(122,1908,l),
(146,2050,l),
(-50,2050,ls),
(-184,2050,o),
(-288,1974,o),
(-312,1838,cs),
(-318,1796,l)
);
}
);
width = 0;
},
{
anchors = (
{
name = _top;
pos = (90,1744);
},
{
name = top;
pos = (170,2226);
}
);
layerId = "D0EC06BF-13F9-4C88-A6F5-B8203AF6C77E";
shapes = (
{
closed = 1;
nodes = (
(-112,1856,l),
(-102,1912,ls),
(-94,1968,o),
(-56,1992,o),
(10,1992,cs),
(186,1992,l),
(226,2226,l),
(-54,2226,ls),
(-258,2226,o),
(-396,2128,o),
(-422,1960,cs),
(-438,1856,l)
);
}
);
width = 0;
}
);
}
{
glyphname = "thoThan-thai.less";
layers = (
{
anchors = (
{
name = bottom;
pos = (844,0);
},
{
name = top;
pos = (1042,1202);
}
);
layerId = "200BE2C5-40F6-4CF4-AF4F-A33C0CC0964F";
shapes = (
{
closed = 1;
nodes = (
(410,0,ls),
(728,0,o),
(984,356,o),
(984,796,cs),
(984,924,o),
(952,1026,o),
(890,1100,c),
(906,1080,l),
(842,1170,o),
(738,1218,o),
(606,1218,cs),
(374,1218,o),
(174,1066,o),
(112,844,c),
(160,844,l),
(230,1046,o),
(404,1174,o),
(606,1174,cs),
(820,1174,o),
(936,1038,o),
(936,792,cs),
(936,382,o),
(700,42,o),
(410,42,cs),
(330,42,l),
(356,12,l),
(456,624,l),
(200,624,l),
(192,580,l),
(432,580,l),
(408,612,l),
(308,0,l)
);
},
{
closed = 1;
nodes = (
(1188,1304,l),
(1126,1304,l),
(880,1102,l),
(898,1064,l)
);
}
);
width = 1112;
},
{
anchors = (
{
name = bottom;
pos = (906,0);
},
{
name = top;
pos = (1102,1202);
}
);
layerId = "11F4534A-B963-4AB5-820F-DAF9A20CD933";
shapes = (
{
closed = 1;
nodes = (
(510,0,ls),
(838,0,o),
(1084,318,o),
(1084,742,cs),
(1084,926,o),
(1026,1060,o),
(916,1134,c),
(984,1070,l),
(906,1174,o),
(792,1226,o),
(638,1226,cs),
(374,1226,o),
(174,1076,o),
(102,822,c),
(276,822,l),
(332,980,o),
(460,1072,o),
(624,1072,cs),
(808,1072,o),
(904,958,o),
(904,742,cs),
(904,420,o),
(722,152,o),
(506,152,cs),
(370,152,l),
(426,50,l),
(524,646,l),
(194,646,l),
(170,498,l),
(386,498,l),
(338,546,l),
(248,0,l)
);
},
{
closed = 1;
nodes = (
(1224,1284,l),
(1026,1284,l),
(812,1080,l),
(946,1022,l)
);
}
);
width = 1184;
},
{
anchors = (
{
name = bottom;
pos = (1064,0);
},
{
name = top;
pos = (1262,1202);
}
);
layerId = "D0EC06BF-13F9-4C88-A6F5-B8203AF6C77E";
shapes = (
{
closed = 1;
nodes = (
(516,0,ls),
(914,0,o),
(1204,286,o),
(1206,680,cs),
(1204,876,o),
(1130,994,o),
(974,1038,c),
(1084,974,l),
(1012,1136,o),
(852,1226,o),
(642,1226,cs),
(340,1226,o),
(114,1048,o),
(74,778,c),
(472,778,l),
(500,862,o),
(568,914,o),
(652,914,cs),
(746,914,o),
(794,852,o),
(794,726,cs),
(794,492,o),
(682,290,o),
(552,290,cs),
(420,290,l),
(498,118,l),
(590,668,l),
(120,668,l),
(78,414,l),
(254,414,l),
(196,486,l),
(116,0,l)
);
},
{
closed = 1;
nodes = (
(1410,1262,l),
(1082,1262,l),
(894,1054,l),
(1064,850,l)
);
}
);
width = 1260;
}
);
metricLeft = "choChan-thai";
}
